<svg xmlns="http://www.w3.org/2000/svg" xmlns:xlink="http://www.w3.org/1999/xlink" width="1191.313" height="416.265" viewBox="0 0 1191.313 416.265">
  <defs>
    <clipPath id="clip-path">
      <rect id="Rectángulo_264262" data-name="Rectángulo 264262" width="613.506" height="320.592" fill="none"/>
    </clipPath>
    <clipPath id="clip-path-2">
      <rect id="Rectángulo_264228" data-name="Rectángulo 264228" width="11.022" height="15.97" fill="#263238"/>
    </clipPath>
    <clipPath id="clip-path-4">
      <rect id="Rectángulo_264249" data-name="Rectángulo 264249" width="11.022" height="15.971" fill="#263238"/>
    </clipPath>
    <clipPath id="clip-path-6">
      <rect id="Rectángulo_264252" data-name="Rectángulo 264252" width="9.118" height="22.439" fill="none"/>
    </clipPath>
    <clipPath id="clip-path-7">
      <rect id="Rectángulo_264255" data-name="Rectángulo 264255" width="4.279" height="28.328" fill="none"/>
    </clipPath>
    <clipPath id="clip-path-8">
      <rect id="Rectángulo_264256" data-name="Rectángulo 264256" width="28.333" height="6.827" fill="#ff725e"/>
    </clipPath>
    <clipPath id="clip-path-9">
      <rect id="Rectángulo_264257" data-name="Rectángulo 264257" width="29.374" height="24.194" fill="none"/>
    </clipPath>
    <clipPath id="clip-path-10">
      <rect id="Rectángulo_264258" data-name="Rectángulo 264258" width="14.581" height="2.847" fill="none"/>
    </clipPath>
    <clipPath id="clip-path-11">
      <rect id="Rectángulo_264259" data-name="Rectángulo 264259" width="14.58" height="2.847" fill="none"/>
    </clipPath>
  </defs>
  <g id="Grupo_707365" data-name="Grupo 707365" transform="translate(12558 9762.265)">
    <path id="Trazado_489207" data-name="Trazado 489207" d="M-16211.294-10072.69s152.457-124.348,343.51-143.085,209.41,65.685,286.848,111.7,118.5,40.156,118.5,40.156v261.74h-1190.4l-.912-345.59s20.4,67.228,41.213,74.3c5.133,1.746,4.375,91.547,41.822,145.4,36.342,52.278,115.516,73.62,162,72.714,48.957-.954,124.285-33.639,161.2-87.256C-16209.948-9997.177-16211.294-10072.69-16211.294-10072.69Z" transform="translate(4095.747 456.181)" fill="#ffde90" opacity="0.2"/>
    <path id="Trazado_489208" data-name="Trazado 489208" d="M-16654.777-9856.1l.449,56.52h1190.863v-89.21s-78.756,32.751-179.74,21.568-169.536-42.747-299.826-48.139-378.569,77.45-453.254,83.7C-16574.113-9816.787-16654.777-9856.1-16654.777-9856.1Z" transform="translate(4096.777 453.584)" fill="#ffdf94" opacity="0.2"/>
    <g id="Grupo_707362" data-name="Grupo 707362" transform="translate(-12431.408 -9729.282)" opacity="0.35">
      <path id="Trazado_489179" data-name="Trazado 489179" d="M1494.308,757.569V739.586l4.036-3.512V721.884l9.444-8.219v14.962l5.691,4.953,9.081-7.9-8.233-7.165,14.529-12.644,31.479,27.4h9.686l13.93,12.123c.217,14.357.444,36.346-.209,36.346h-24.215v-7.305h-18.08v10.678h-8.718v11.52l-11.462,9.975-32.609-28.379V757.569Z" transform="translate(-1439.715 -686.829)" fill="#e6d0be"/>
      <rect id="Rectángulo_263568" data-name="Rectángulo 263568" width="60.996" height="126.964" transform="translate(179.832 62.452)" fill="#d3bba3"/>
      <rect id="Rectángulo_263569" data-name="Rectángulo 263569" width="53.987" height="178.7" transform="translate(140.073)" fill="#e6d0be"/>
      <rect id="Rectángulo_263570" data-name="Rectángulo 263570" width="102.514" height="271.757" transform="translate(0 17.178)" fill="#e6d0be"/>
      <rect id="Rectángulo_263571" data-name="Rectángulo 263571" width="11.947" height="11.477" transform="translate(78.619 29.839)" fill="#fff"/>
      <rect id="Rectángulo_263572" data-name="Rectángulo 263572" width="11.947" height="11.477" transform="translate(56.615 29.839)" fill="#fff"/>
      <rect id="Rectángulo_263573" data-name="Rectángulo 263573" width="11.947" height="11.477" transform="translate(34.613 29.839)" fill="#fff"/>
      <rect id="Rectángulo_263574" data-name="Rectángulo 263574" width="11.947" height="11.477" transform="translate(12.609 29.839)" fill="#fff"/>
      <rect id="Rectángulo_263575" data-name="Rectángulo 263575" width="11.947" height="11.477" transform="translate(78.619 50.975)" fill="#fff"/>
      <rect id="Rectángulo_263576" data-name="Rectángulo 263576" width="11.947" height="11.477" transform="translate(56.615 50.975)" fill="#fff"/>
      <rect id="Rectángulo_263577" data-name="Rectángulo 263577" width="11.947" height="11.477" transform="translate(34.613 50.975)" fill="#fff"/>
      <rect id="Rectángulo_263578" data-name="Rectángulo 263578" width="11.947" height="11.477" transform="translate(12.609 50.975)" fill="#fff"/>
      <rect id="Rectángulo_263579" data-name="Rectángulo 263579" width="11.947" height="11.477" transform="translate(78.619 72.111)" fill="#fff"/>
      <rect id="Rectángulo_263580" data-name="Rectángulo 263580" width="11.947" height="11.477" transform="translate(56.615 72.111)" fill="#fff"/>
      <rect id="Rectángulo_263581" data-name="Rectángulo 263581" width="11.947" height="11.477" transform="translate(34.613 72.111)" fill="#fff"/>
      <rect id="Rectángulo_263582" data-name="Rectángulo 263582" width="11.947" height="11.477" transform="translate(12.609 72.111)" fill="#fff"/>
      <rect id="Rectángulo_263583" data-name="Rectángulo 263583" width="11.947" height="11.477" transform="translate(78.619 93.247)" fill="#fff"/>
      <rect id="Rectángulo_263584" data-name="Rectángulo 263584" width="11.947" height="11.477" transform="translate(56.615 93.247)" fill="#fff"/>
      <rect id="Rectángulo_263585" data-name="Rectángulo 263585" width="11.947" height="11.477" transform="translate(34.613 93.247)" fill="#fff"/>
      <rect id="Rectángulo_263586" data-name="Rectángulo 263586" width="11.947" height="11.477" transform="translate(12.609 93.247)" fill="#fff"/>
      <rect id="Rectángulo_263587" data-name="Rectángulo 263587" width="11.947" height="11.477" transform="translate(78.619 114.383)" fill="#fff"/>
      <rect id="Rectángulo_263588" data-name="Rectángulo 263588" width="11.947" height="11.477" transform="translate(56.615 114.383)" fill="#fff"/>
      <rect id="Rectángulo_263589" data-name="Rectángulo 263589" width="11.947" height="11.477" transform="translate(34.613 114.383)" fill="#fff"/>
      <rect id="Rectángulo_263590" data-name="Rectángulo 263590" width="11.947" height="11.477" transform="translate(12.609 114.383)" fill="#fff"/>
      <rect id="Rectángulo_263591" data-name="Rectángulo 263591" width="11.947" height="11.477" transform="translate(78.619 135.519)" fill="#fff"/>
      <rect id="Rectángulo_263592" data-name="Rectángulo 263592" width="11.947" height="11.477" transform="translate(56.615 135.519)" fill="#fff"/>
      <rect id="Rectángulo_263593" data-name="Rectángulo 263593" width="11.947" height="11.477" transform="translate(34.613 135.519)" fill="#fff"/>
      <rect id="Rectángulo_263594" data-name="Rectángulo 263594" width="11.947" height="11.477" transform="translate(12.609 135.519)" fill="#fff"/>
      <rect id="Rectángulo_263595" data-name="Rectángulo 263595" width="11.947" height="11.477" transform="translate(78.619 156.655)" fill="#fff"/>
      <rect id="Rectángulo_263596" data-name="Rectángulo 263596" width="11.947" height="11.477" transform="translate(56.615 156.655)" fill="#fff"/>
      <rect id="Rectángulo_263597" data-name="Rectángulo 263597" width="11.947" height="11.477" transform="translate(34.613 156.655)" fill="#fff"/>
      <rect id="Rectángulo_263598" data-name="Rectángulo 263598" width="11.947" height="11.477" transform="translate(12.609 156.655)" fill="#fff"/>
      <rect id="Rectángulo_263599" data-name="Rectángulo 263599" width="11.947" height="11.477" transform="translate(78.619 177.791)" fill="#fff"/>
      <rect id="Rectángulo_263600" data-name="Rectángulo 263600" width="11.947" height="11.477" transform="translate(56.615 177.791)" fill="#fff"/>
      <rect id="Rectángulo_263601" data-name="Rectángulo 263601" width="11.947" height="11.477" transform="translate(34.613 177.791)" fill="#fff"/>
      <rect id="Rectángulo_263602" data-name="Rectángulo 263602" width="11.947" height="11.477" transform="translate(12.609 177.791)" fill="#fff"/>
      <rect id="Rectángulo_263603" data-name="Rectángulo 263603" width="11.947" height="11.477" transform="translate(78.619 198.927)" fill="#fff"/>
      <rect id="Rectángulo_263604" data-name="Rectángulo 263604" width="11.947" height="11.477" transform="translate(56.615 198.927)" fill="#fff"/>
      <rect id="Rectángulo_263605" data-name="Rectángulo 263605" width="11.947" height="11.477" transform="translate(34.613 198.927)" fill="#fff"/>
      <rect id="Rectángulo_263606" data-name="Rectángulo 263606" width="11.947" height="11.477" transform="translate(12.609 198.927)" fill="#fff"/>
      <rect id="Rectángulo_263607" data-name="Rectángulo 263607" width="11.947" height="11.477" transform="translate(78.619 220.063)" fill="#fff"/>
      <rect id="Rectángulo_263608" data-name="Rectángulo 263608" width="11.947" height="11.477" transform="translate(56.615 220.063)" fill="#fff"/>
      <rect id="Rectángulo_263609" data-name="Rectángulo 263609" width="11.947" height="11.477" transform="translate(34.613 220.063)" fill="#fff"/>
      <rect id="Rectángulo_263610" data-name="Rectángulo 263610" width="11.947" height="11.477" transform="translate(12.609 220.063)" fill="#fff"/>
      <rect id="Rectángulo_263611" data-name="Rectángulo 263611" width="11.947" height="11.477" transform="translate(78.619 241.199)" fill="#fff"/>
      <rect id="Rectángulo_263612" data-name="Rectángulo 263612" width="11.947" height="11.477" transform="translate(56.615 241.199)" fill="#fff"/>
      <rect id="Rectángulo_263613" data-name="Rectángulo 263613" width="11.947" height="11.477" transform="translate(34.613 241.199)" fill="#fff"/>
      <rect id="Rectángulo_263614" data-name="Rectángulo 263614" width="11.947" height="11.477" transform="translate(12.609 241.199)" fill="#fff"/>
      <rect id="Rectángulo_263615" data-name="Rectángulo 263615" width="11.947" height="11.477" transform="translate(78.619 262.335)" fill="#fff"/>
      <rect id="Rectángulo_263616" data-name="Rectángulo 263616" width="11.947" height="11.477" transform="translate(56.615 262.335)" fill="#fff"/>
      <rect id="Rectángulo_263617" data-name="Rectángulo 263617" width="11.947" height="11.477" transform="translate(34.613 262.335)" fill="#fff"/>
      <rect id="Rectángulo_263618" data-name="Rectángulo 263618" width="11.947" height="11.477" transform="translate(12.609 262.335)" fill="#fff"/>
      <rect id="Rectángulo_263619" data-name="Rectángulo 263619" width="78.619" height="229.176" transform="translate(100.608 70.018)" fill="#d3bba3"/>
      <rect id="Rectángulo_263620" data-name="Rectángulo 263620" width="11.947" height="11.477" transform="translate(156.124 82.679)" fill="#fff"/>
      <rect id="Rectángulo_263621" data-name="Rectángulo 263621" width="11.947" height="11.477" transform="translate(134.121 82.679)" fill="#fff"/>
      <rect id="Rectángulo_263622" data-name="Rectángulo 263622" width="11.947" height="11.477" transform="translate(112.119 82.679)" fill="#fff"/>
      <rect id="Rectángulo_263623" data-name="Rectángulo 263623" width="11.947" height="11.477" transform="translate(156.124 103.815)" fill="#fff"/>
      <rect id="Rectángulo_263624" data-name="Rectángulo 263624" width="11.947" height="11.477" transform="translate(134.121 103.815)" fill="#fff"/>
      <rect id="Rectángulo_263625" data-name="Rectángulo 263625" width="11.947" height="11.477" transform="translate(112.119 103.815)" fill="#fff"/>
      <rect id="Rectángulo_263626" data-name="Rectángulo 263626" width="11.947" height="11.477" transform="translate(156.124 124.951)" fill="#fff"/>
      <rect id="Rectángulo_263627" data-name="Rectángulo 263627" width="11.947" height="11.477" transform="translate(134.121 124.951)" fill="#fff"/>
      <rect id="Rectángulo_263628" data-name="Rectángulo 263628" width="11.947" height="11.477" transform="translate(112.119 124.951)" fill="#fff"/>
      <rect id="Rectángulo_263629" data-name="Rectángulo 263629" width="11.947" height="11.477" transform="translate(156.124 146.087)" fill="#fff"/>
      <rect id="Rectángulo_263630" data-name="Rectángulo 263630" width="11.947" height="11.477" transform="translate(134.121 146.087)" fill="#fff"/>
      <rect id="Rectángulo_263631" data-name="Rectángulo 263631" width="11.947" height="11.477" transform="translate(112.119 146.087)" fill="#fff"/>
      <rect id="Rectángulo_263632" data-name="Rectángulo 263632" width="11.947" height="11.477" transform="translate(156.124 167.223)" fill="#fff"/>
      <rect id="Rectángulo_263633" data-name="Rectángulo 263633" width="11.947" height="11.477" transform="translate(134.121 167.223)" fill="#fff"/>
      <rect id="Rectángulo_263634" data-name="Rectángulo 263634" width="11.947" height="11.477" transform="translate(112.119 167.223)" fill="#fff"/>
      <rect id="Rectángulo_263635" data-name="Rectángulo 263635" width="11.947" height="11.477" transform="translate(156.124 188.359)" fill="#fff"/>
      <rect id="Rectángulo_263636" data-name="Rectángulo 263636" width="11.947" height="11.477" transform="translate(134.121 188.359)" fill="#fff"/>
      <rect id="Rectángulo_263637" data-name="Rectángulo 263637" width="11.947" height="11.477" transform="translate(112.119 188.359)" fill="#fff"/>
      <rect id="Rectángulo_263638" data-name="Rectángulo 263638" width="11.947" height="11.477" transform="translate(156.124 209.495)" fill="#fff"/>
      <rect id="Rectángulo_263639" data-name="Rectángulo 263639" width="11.947" height="11.477" transform="translate(134.121 209.495)" fill="#fff"/>
      <rect id="Rectángulo_263640" data-name="Rectángulo 263640" width="11.947" height="11.477" transform="translate(112.119 209.495)" fill="#fff"/>
      <rect id="Rectángulo_263641" data-name="Rectángulo 263641" width="11.947" height="11.477" transform="translate(156.124 230.631)" fill="#fff"/>
      <rect id="Rectángulo_263642" data-name="Rectángulo 263642" width="11.947" height="11.477" transform="translate(134.121 230.631)" fill="#fff"/>
      <rect id="Rectángulo_263643" data-name="Rectángulo 263643" width="11.947" height="11.477" transform="translate(112.119 230.631)" fill="#fff"/>
      <rect id="Rectángulo_263644" data-name="Rectángulo 263644" width="11.947" height="11.477" transform="translate(156.124 251.767)" fill="#fff"/>
      <rect id="Rectángulo_263645" data-name="Rectángulo 263645" width="11.947" height="11.477" transform="translate(134.121 251.767)" fill="#fff"/>
      <rect id="Rectángulo_263646" data-name="Rectángulo 263646" width="11.947" height="11.477" transform="translate(112.119 251.767)" fill="#fff"/>
      <rect id="Rectángulo_263647" data-name="Rectángulo 263647" width="11.947" height="11.477" transform="translate(156.124 272.903)" fill="#fff"/>
      <rect id="Rectángulo_263648" data-name="Rectángulo 263648" width="11.947" height="11.477" transform="translate(134.121 272.903)" fill="#fff"/>
      <rect id="Rectángulo_263649" data-name="Rectángulo 263649" width="11.947" height="11.477" transform="translate(112.119 272.903)" fill="#fff"/>
      <rect id="Rectángulo_263650" data-name="Rectángulo 263650" width="74.118" height="106.916" transform="translate(217.998 106.828)" fill="#f7f1eb"/>
      <rect id="Rectángulo_263651" data-name="Rectángulo 263651" width="92.721" height="120.494" transform="translate(173.232 178.699)" fill="#d3bba3"/>
      <rect id="Rectángulo_263652" data-name="Rectángulo 263652" width="7.725" height="18.612" transform="translate(208.287 189.416)" fill="#fff"/>
      <rect id="Rectángulo_263653" data-name="Rectángulo 263653" width="7.725" height="18.612" transform="translate(194.06 189.416)" fill="#fff"/>
      <rect id="Rectángulo_263654" data-name="Rectángulo 263654" width="7.725" height="18.612" transform="translate(179.833 189.416)" fill="#fff"/>
      <rect id="Rectángulo_263655" data-name="Rectángulo 263655" width="7.725" height="18.612" transform="translate(208.287 223.694)" fill="#fff"/>
      <rect id="Rectángulo_263656" data-name="Rectángulo 263656" width="7.725" height="18.612" transform="translate(194.06 223.694)" fill="#fff"/>
      <rect id="Rectángulo_263657" data-name="Rectángulo 263657" width="7.725" height="18.612" transform="translate(179.833 223.694)" fill="#fff"/>
      <rect id="Rectángulo_263658" data-name="Rectángulo 263658" width="7.725" height="18.612" transform="translate(208.287 257.972)" fill="#fff"/>
      <rect id="Rectángulo_263659" data-name="Rectángulo 263659" width="7.725" height="18.612" transform="translate(194.06 257.972)" fill="#fff"/>
      <rect id="Rectángulo_263660" data-name="Rectángulo 263660" width="7.725" height="18.612" transform="translate(179.833 257.972)" fill="#fff"/>
      <rect id="Rectángulo_263661" data-name="Rectángulo 263661" width="7.725" height="18.612" transform="translate(251.194 189.416)" fill="#fff"/>
      <rect id="Rectángulo_263662" data-name="Rectángulo 263662" width="7.725" height="18.612" transform="translate(236.967 189.416)" fill="#fff"/>
      <rect id="Rectángulo_263663" data-name="Rectángulo 263663" width="7.725" height="18.612" transform="translate(222.739 189.416)" fill="#fff"/>
      <rect id="Rectángulo_263664" data-name="Rectángulo 263664" width="7.725" height="18.612" transform="translate(251.194 223.694)" fill="#fff"/>
      <rect id="Rectángulo_263665" data-name="Rectángulo 263665" width="7.725" height="18.612" transform="translate(236.967 223.694)" fill="#fff"/>
      <rect id="Rectángulo_263666" data-name="Rectángulo 263666" width="7.725" height="18.612" transform="translate(222.739 223.694)" fill="#fff"/>
      <rect id="Rectángulo_263667" data-name="Rectángulo 263667" width="7.725" height="18.612" transform="translate(251.194 257.972)" fill="#fff"/>
      <rect id="Rectángulo_263668" data-name="Rectángulo 263668" width="7.725" height="18.612" transform="translate(236.967 257.972)" fill="#fff"/>
      <rect id="Rectángulo_263669" data-name="Rectángulo 263669" width="7.725" height="18.612" transform="translate(222.739 257.972)" fill="#fff"/>
    </g>
    <g id="Grupo_707363" data-name="Grupo 707363" transform="translate(-11739.903 -9728.215)" opacity="0.35">
      <path id="Trazado_489179-2" data-name="Trazado 489179" d="M1582.759,760.007V741.176l-4.226-3.678V722.639l-9.889-8.606V729.7l-5.959,5.186-9.509-8.275,8.622-7.5-15.214-13.241-32.964,28.687h-10.143L1488.89,747.25c-.228,15.034-.465,38.06.219,38.06h25.357v-7.65H1533.4v11.181h9.129V800.9l12,10.445,34.147-29.718V760.007Z" transform="translate(-1334.035 -685.931)" fill="#e6d0be"/>
      <rect id="Rectángulo_263568-2" data-name="Rectángulo 263568" width="63.873" height="132.951" transform="translate(53.706 65.397)" fill="#d3bba3"/>
      <rect id="Rectángulo_263569-2" data-name="Rectángulo 263569" width="56.533" height="187.126" transform="translate(102.68)" fill="#e6d0be"/>
      <rect id="Rectángulo_263570-2" data-name="Rectángulo 263570" width="107.348" height="284.572" transform="translate(198.543 17.988)" fill="#e6d0be"/>
      <rect id="Rectángulo_263571-2" data-name="Rectángulo 263571" width="12.511" height="12.018" transform="translate(211.054 31.246)" fill="#fff"/>
      <rect id="Rectángulo_263572-2" data-name="Rectángulo 263572" width="12.511" height="12.018" transform="translate(234.095 31.246)" fill="#fff"/>
      <rect id="Rectángulo_263573-2" data-name="Rectángulo 263573" width="12.511" height="12.018" transform="translate(257.135 31.246)" fill="#fff"/>
      <rect id="Rectángulo_263574-2" data-name="Rectángulo 263574" width="12.511" height="12.018" transform="translate(280.177 31.246)" fill="#fff"/>
      <rect id="Rectángulo_263575-2" data-name="Rectángulo 263575" width="12.511" height="12.018" transform="translate(211.054 53.379)" fill="#fff"/>
      <rect id="Rectángulo_263576-2" data-name="Rectángulo 263576" width="12.511" height="12.018" transform="translate(234.095 53.379)" fill="#fff"/>
      <rect id="Rectángulo_263577-2" data-name="Rectángulo 263577" width="12.511" height="12.018" transform="translate(257.135 53.379)" fill="#fff"/>
      <rect id="Rectángulo_263578-2" data-name="Rectángulo 263578" width="12.511" height="12.018" transform="translate(280.177 53.379)" fill="#fff"/>
      <rect id="Rectángulo_263579-2" data-name="Rectángulo 263579" width="12.511" height="12.018" transform="translate(211.054 75.511)" fill="#fff"/>
      <rect id="Rectángulo_263580-2" data-name="Rectángulo 263580" width="12.511" height="12.018" transform="translate(234.095 75.511)" fill="#fff"/>
      <rect id="Rectángulo_263581-2" data-name="Rectángulo 263581" width="12.511" height="12.018" transform="translate(257.135 75.511)" fill="#fff"/>
      <rect id="Rectángulo_263582-2" data-name="Rectángulo 263582" width="12.511" height="12.018" transform="translate(280.177 75.511)" fill="#fff"/>
      <rect id="Rectángulo_263583-2" data-name="Rectángulo 263583" width="12.511" height="12.018" transform="translate(211.054 97.644)" fill="#fff"/>
      <rect id="Rectángulo_263584-2" data-name="Rectángulo 263584" width="12.511" height="12.018" transform="translate(234.095 97.644)" fill="#fff"/>
      <rect id="Rectángulo_263585-2" data-name="Rectángulo 263585" width="12.511" height="12.018" transform="translate(257.135 97.644)" fill="#fff"/>
      <rect id="Rectángulo_263586-2" data-name="Rectángulo 263586" width="12.511" height="12.018" transform="translate(280.177 97.644)" fill="#fff"/>
      <rect id="Rectángulo_263587-2" data-name="Rectángulo 263587" width="12.511" height="12.018" transform="translate(211.054 119.777)" fill="#fff"/>
      <rect id="Rectángulo_263588-2" data-name="Rectángulo 263588" width="12.511" height="12.018" transform="translate(234.095 119.777)" fill="#fff"/>
      <rect id="Rectángulo_263589-2" data-name="Rectángulo 263589" width="12.511" height="12.018" transform="translate(257.135 119.777)" fill="#fff"/>
      <rect id="Rectángulo_263590-2" data-name="Rectángulo 263590" width="12.511" height="12.018" transform="translate(280.177 119.777)" fill="#fff"/>
      <rect id="Rectángulo_263591-2" data-name="Rectángulo 263591" width="12.511" height="12.018" transform="translate(211.054 141.909)" fill="#fff"/>
      <rect id="Rectángulo_263592-2" data-name="Rectángulo 263592" width="12.511" height="12.018" transform="translate(234.095 141.909)" fill="#fff"/>
      <rect id="Rectángulo_263593-2" data-name="Rectángulo 263593" width="12.511" height="12.018" transform="translate(257.135 141.909)" fill="#fff"/>
      <rect id="Rectángulo_263594-2" data-name="Rectángulo 263594" width="12.511" height="12.018" transform="translate(280.177 141.909)" fill="#fff"/>
      <rect id="Rectángulo_263595-2" data-name="Rectángulo 263595" width="12.511" height="12.018" transform="translate(211.054 164.042)" fill="#fff"/>
      <rect id="Rectángulo_263596-2" data-name="Rectángulo 263596" width="12.511" height="12.018" transform="translate(234.095 164.042)" fill="#fff"/>
      <rect id="Rectángulo_263597-2" data-name="Rectángulo 263597" width="12.511" height="12.018" transform="translate(257.135 164.042)" fill="#fff"/>
      <rect id="Rectángulo_263598-2" data-name="Rectángulo 263598" width="12.511" height="12.018" transform="translate(280.177 164.042)" fill="#fff"/>
      <rect id="Rectángulo_263599-2" data-name="Rectángulo 263599" width="12.511" height="12.018" transform="translate(211.054 186.175)" fill="#fff"/>
      <rect id="Rectángulo_263600-2" data-name="Rectángulo 263600" width="12.511" height="12.018" transform="translate(234.095 186.175)" fill="#fff"/>
      <rect id="Rectángulo_263601-2" data-name="Rectángulo 263601" width="12.511" height="12.018" transform="translate(257.135 186.175)" fill="#fff"/>
      <rect id="Rectángulo_263602-2" data-name="Rectángulo 263602" width="12.511" height="12.018" transform="translate(280.177 186.175)" fill="#fff"/>
      <rect id="Rectángulo_263603-2" data-name="Rectángulo 263603" width="12.511" height="12.018" transform="translate(211.054 208.307)" fill="#fff"/>
      <rect id="Rectángulo_263604-2" data-name="Rectángulo 263604" width="12.511" height="12.018" transform="translate(234.095 208.307)" fill="#fff"/>
      <rect id="Rectángulo_263605-2" data-name="Rectángulo 263605" width="12.511" height="12.018" transform="translate(257.135 208.307)" fill="#fff"/>
      <rect id="Rectángulo_263606-2" data-name="Rectángulo 263606" width="12.511" height="12.018" transform="translate(280.177 208.307)" fill="#fff"/>
      <rect id="Rectángulo_263607-2" data-name="Rectángulo 263607" width="12.511" height="12.018" transform="translate(211.054 230.441)" fill="#fff"/>
      <rect id="Rectángulo_263608-2" data-name="Rectángulo 263608" width="12.511" height="12.018" transform="translate(234.095 230.441)" fill="#fff"/>
      <rect id="Rectángulo_263609-2" data-name="Rectángulo 263609" width="12.511" height="12.018" transform="translate(257.135 230.441)" fill="#fff"/>
      <rect id="Rectángulo_263610-2" data-name="Rectángulo 263610" width="12.511" height="12.018" transform="translate(280.177 230.441)" fill="#fff"/>
      <rect id="Rectángulo_263611-2" data-name="Rectángulo 263611" width="12.511" height="12.018" transform="translate(211.054 252.573)" fill="#fff"/>
      <rect id="Rectángulo_263612-2" data-name="Rectángulo 263612" width="12.511" height="12.018" transform="translate(234.095 252.573)" fill="#fff"/>
      <rect id="Rectángulo_263613-2" data-name="Rectángulo 263613" width="12.511" height="12.018" transform="translate(257.135 252.573)" fill="#fff"/>
      <rect id="Rectángulo_263614-2" data-name="Rectángulo 263614" width="12.511" height="12.018" transform="translate(280.177 252.573)" fill="#fff"/>
      <rect id="Rectángulo_263615-2" data-name="Rectángulo 263615" width="12.511" height="12.018" transform="translate(211.054 274.706)" fill="#fff"/>
      <rect id="Rectángulo_263616-2" data-name="Rectángulo 263616" width="12.511" height="12.018" transform="translate(234.095 274.706)" fill="#fff"/>
      <rect id="Rectángulo_263617-2" data-name="Rectángulo 263617" width="12.511" height="12.018" transform="translate(257.135 274.706)" fill="#fff"/>
      <rect id="Rectángulo_263618-2" data-name="Rectángulo 263618" width="12.511" height="12.018" transform="translate(280.177 274.706)" fill="#fff"/>
      <rect id="Rectángulo_263619-2" data-name="Rectángulo 263619" width="82.327" height="239.983" transform="translate(118.212 73.32)" fill="#d3bba3"/>
      <rect id="Rectángulo_263620-2" data-name="Rectángulo 263620" width="12.511" height="12.018" transform="translate(129.894 86.578)" fill="#fff"/>
      <rect id="Rectángulo_263621-2" data-name="Rectángulo 263621" width="12.511" height="12.018" transform="translate(152.934 86.578)" fill="#fff"/>
      <rect id="Rectángulo_263622-2" data-name="Rectángulo 263622" width="12.511" height="12.018" transform="translate(175.974 86.578)" fill="#fff"/>
      <rect id="Rectángulo_263623-2" data-name="Rectángulo 263623" width="12.511" height="12.018" transform="translate(129.894 108.711)" fill="#fff"/>
      <rect id="Rectángulo_263624-2" data-name="Rectángulo 263624" width="12.511" height="12.018" transform="translate(152.934 108.711)" fill="#fff"/>
      <rect id="Rectángulo_263625-2" data-name="Rectángulo 263625" width="12.511" height="12.018" transform="translate(175.974 108.711)" fill="#fff"/>
      <rect id="Rectángulo_263626-2" data-name="Rectángulo 263626" width="12.511" height="12.018" transform="translate(129.894 130.843)" fill="#fff"/>
      <rect id="Rectángulo_263627-2" data-name="Rectángulo 263627" width="12.511" height="12.018" transform="translate(152.934 130.843)" fill="#fff"/>
      <rect id="Rectángulo_263628-2" data-name="Rectángulo 263628" width="12.511" height="12.018" transform="translate(175.974 130.843)" fill="#fff"/>
      <rect id="Rectángulo_263629-2" data-name="Rectángulo 263629" width="12.511" height="12.018" transform="translate(129.894 152.976)" fill="#fff"/>
      <rect id="Rectángulo_263630-2" data-name="Rectángulo 263630" width="12.511" height="12.018" transform="translate(152.934 152.976)" fill="#fff"/>
      <rect id="Rectángulo_263631-2" data-name="Rectángulo 263631" width="12.511" height="12.018" transform="translate(175.974 152.976)" fill="#fff"/>
      <rect id="Rectángulo_263632-2" data-name="Rectángulo 263632" width="12.511" height="12.018" transform="translate(129.894 175.109)" fill="#fff"/>
      <rect id="Rectángulo_263633-2" data-name="Rectángulo 263633" width="12.511" height="12.018" transform="translate(152.934 175.109)" fill="#fff"/>
      <rect id="Rectángulo_263634-2" data-name="Rectángulo 263634" width="12.511" height="12.018" transform="translate(175.974 175.109)" fill="#fff"/>
      <rect id="Rectángulo_263635-2" data-name="Rectángulo 263635" width="12.511" height="12.018" transform="translate(129.894 197.241)" fill="#fff"/>
      <rect id="Rectángulo_263636-2" data-name="Rectángulo 263636" width="12.511" height="12.018" transform="translate(152.934 197.241)" fill="#fff"/>
      <rect id="Rectángulo_263637-2" data-name="Rectángulo 263637" width="12.511" height="12.018" transform="translate(175.974 197.241)" fill="#fff"/>
      <rect id="Rectángulo_263638-2" data-name="Rectángulo 263638" width="12.511" height="12.018" transform="translate(129.894 219.374)" fill="#fff"/>
      <rect id="Rectángulo_263639-2" data-name="Rectángulo 263639" width="12.511" height="12.018" transform="translate(152.934 219.374)" fill="#fff"/>
      <rect id="Rectángulo_263640-2" data-name="Rectángulo 263640" width="12.511" height="12.018" transform="translate(175.974 219.374)" fill="#fff"/>
      <rect id="Rectángulo_263641-2" data-name="Rectángulo 263641" width="12.511" height="12.018" transform="translate(129.894 241.507)" fill="#fff"/>
      <rect id="Rectángulo_263642-2" data-name="Rectángulo 263642" width="12.511" height="12.018" transform="translate(152.934 241.507)" fill="#fff"/>
      <rect id="Rectángulo_263643-2" data-name="Rectángulo 263643" width="12.511" height="12.018" transform="translate(175.974 241.507)" fill="#fff"/>
      <rect id="Rectángulo_263644-2" data-name="Rectángulo 263644" width="12.511" height="12.018" transform="translate(129.894 263.639)" fill="#fff"/>
      <rect id="Rectángulo_263645-2" data-name="Rectángulo 263645" width="12.511" height="12.018" transform="translate(152.934 263.639)" fill="#fff"/>
      <rect id="Rectángulo_263646-2" data-name="Rectángulo 263646" width="12.511" height="12.018" transform="translate(175.974 263.639)" fill="#fff"/>
      <rect id="Rectángulo_263647-2" data-name="Rectángulo 263647" width="12.511" height="12.018" transform="translate(129.894 285.772)" fill="#fff"/>
      <rect id="Rectángulo_263648-2" data-name="Rectángulo 263648" width="12.511" height="12.018" transform="translate(152.934 285.772)" fill="#fff"/>
      <rect id="Rectángulo_263649-2" data-name="Rectángulo 263649" width="12.511" height="12.018" transform="translate(175.974 285.772)" fill="#fff"/>
      <rect id="Rectángulo_263650-2" data-name="Rectángulo 263650" width="77.613" height="111.958" transform="translate(0 111.865)" fill="#f7f1eb"/>
      <rect id="Rectángulo_263651-2" data-name="Rectángulo 263651" width="97.094" height="110.664" transform="translate(27.396 187.126)" fill="#d3bba3"/>
      <rect id="Rectángulo_264263" data-name="Rectángulo 264263" width="302.094" height="110.664" transform="translate(-274.141 187.126)" fill="#d3bba3"/>
      <rect id="Rectángulo_263652-2" data-name="Rectángulo 263652" width="8.09" height="19.49" transform="translate(79.692 198.348)" fill="#fff"/>
      <rect id="Rectángulo_263653-2" data-name="Rectángulo 263653" width="8.09" height="19.49" transform="translate(94.59 198.348)" fill="#fff"/>
      <rect id="Rectángulo_263654-2" data-name="Rectángulo 263654" width="8.09" height="19.49" transform="translate(109.488 198.348)" fill="#fff"/>
      <rect id="Rectángulo_263655-2" data-name="Rectángulo 263655" width="8.09" height="19.49" transform="translate(79.692 234.243)" fill="#fff"/>
      <rect id="Rectángulo_263656-2" data-name="Rectángulo 263656" width="8.09" height="19.49" transform="translate(94.59 234.243)" fill="#fff"/>
      <rect id="Rectángulo_263657-2" data-name="Rectángulo 263657" width="8.09" height="19.49" transform="translate(109.488 234.243)" fill="#fff"/>
      <rect id="Rectángulo_263658-2" data-name="Rectángulo 263658" width="8.09" height="19.49" transform="translate(79.692 270.137)" fill="#fff"/>
      <rect id="Rectángulo_263659-2" data-name="Rectángulo 263659" width="8.09" height="19.49" transform="translate(94.59 270.137)" fill="#fff"/>
      <rect id="Rectángulo_263660-2" data-name="Rectángulo 263660" width="8.09" height="19.49" transform="translate(109.488 270.137)" fill="#fff"/>
      <rect id="Rectángulo_263661-2" data-name="Rectángulo 263661" width="8.09" height="19.49" transform="translate(34.762 198.348)" fill="#fff"/>
      <rect id="Rectángulo_263662-2" data-name="Rectángulo 263662" width="8.09" height="19.49" transform="translate(49.66 198.348)" fill="#fff"/>
      <rect id="Rectángulo_263663-2" data-name="Rectángulo 263663" width="8.09" height="19.49" transform="translate(64.558 198.348)" fill="#fff"/>
      <rect id="Rectángulo_263664-2" data-name="Rectángulo 263664" width="8.09" height="19.49" transform="translate(34.762 234.243)" fill="#fff"/>
      <rect id="Rectángulo_263665-2" data-name="Rectángulo 263665" width="8.09" height="19.49" transform="translate(49.66 234.243)" fill="#fff"/>
      <rect id="Rectángulo_263666-2" data-name="Rectángulo 263666" width="8.09" height="19.49" transform="translate(64.558 234.243)" fill="#fff"/>
      <rect id="Rectángulo_263667-2" data-name="Rectángulo 263667" width="8.09" height="19.49" transform="translate(34.762 270.137)" fill="#fff"/>
      <rect id="Rectángulo_263668-2" data-name="Rectángulo 263668" width="8.09" height="19.49" transform="translate(49.66 270.137)" fill="#fff"/>
      <rect id="Rectángulo_263669-2" data-name="Rectángulo 263669" width="8.09" height="19.49" transform="translate(64.558 270.137)" fill="#fff"/>
    </g>
    <path id="Trazado_489178" data-name="Trazado 489178" d="M174.563,1291.25c74.561,15.269,192.9,24.557,329.06,24.557s256.808-9.611,331.369-24.88Z" transform="translate(-12505.32 -10721.349)" fill="#e6d0be" opacity="0.5"/>
    <g id="Grupo_707361" data-name="Grupo 707361" transform="translate(-12269 -9762.134)">
      <g id="Grupo_707350" data-name="Grupo 707350" transform="translate(0 36)" clip-path="url(#clip-path)">
        <g id="Grupo_707349" data-name="Grupo 707349" transform="translate(66.256 -35.372)">
          <g id="Grupo_707359" data-name="Grupo 707359" transform="translate(0)">
            <path id="Trazado_492080" data-name="Trazado 492080" d="M109.628,347.67c-.134,0-.242-21.028-.242-46.964s.108-46.968.242-46.968.242,21.025.242,46.968-.108,46.964-.242,46.964" transform="translate(-73.759 -17.404)" fill="#e0e0e0"/>
            <rect id="Rectángulo_264176" data-name="Rectángulo 264176" width="9.377" height="10.6" transform="translate(46.767 309.458)" fill="#fafafa"/>
            <path id="Trazado_492081" data-name="Trazado 492081" d="M130.165,246.612c-.134,0-.242-21.028-.242-46.964s.108-46.968.242-46.968.242,21.025.242,46.968-.108,46.964-.242,46.964" transform="translate(-75.167 -10.473)" fill="#e0e0e0"/>
            <rect id="Rectángulo_264180" data-name="Rectángulo 264180" width="9.377" height="10.6" transform="translate(65.895 215.332)" fill="#fafafa"/>
            <path id="Trazado_492082" data-name="Trazado 492082" d="M127.591,147.079c-.108,0-.195-16.909-.195-37.762s.087-37.766.195-37.766.195,16.905.195,37.766-.087,37.762-.195,37.762" transform="translate(-74.994 -4.908)" fill="#e0e0e0"/>
            <path id="Trazado_492083" data-name="Trazado 492083" d="M600.576,199.057c-.1,0-.183-15.883-.183-35.472s.082-35.475.183-35.475.184,15.88.184,35.475-.082,35.472-.184,35.472" transform="translate(-107.437 -8.787)" fill="#e0e0e0"/>
            <rect id="Rectángulo_264188" data-name="Rectángulo 264188" width="7.082" height="8.006" transform="translate(501.369 174.554)" fill="#fafafa"/>
            <rect id="Rectángulo_264189" data-name="Rectángulo 264189" width="10.494" height="15.204" transform="translate(452.083 119.7)" fill="#e0e0e0"/>
            <rect id="Rectángulo_264190" data-name="Rectángulo 264190" width="10.494" height="15.204" transform="translate(452.083 175.356)" fill="#e0e0e0"/>
            <path id="Trazado_492084" data-name="Trazado 492084" d="M630.028,374.3c-.116,0-.211-18.307-.211-40.883s.095-40.888.211-40.888.211,18.3.211,40.888-.1,40.883-.211,40.883" transform="translate(-109.456 -20.065)" fill="#e0e0e0"/>
            <rect id="Rectángulo_264192" data-name="Rectángulo 264192" width="8.164" height="9.228" transform="translate(487.789 336.089)" fill="#fafafa"/>
            <rect id="Rectángulo_264193" data-name="Rectángulo 264193" width="12.095" height="17.524" transform="translate(473.253 272.901)" fill="#e0e0e0"/>
            <rect id="Rectángulo_264194" data-name="Rectángulo 264194" width="12.095" height="17.524" transform="translate(492.815 152.208)" fill="#e0e0e0"/>
            <path id="Trazado_492085" data-name="Trazado 492085" d="M614.235,286.354c-.116,0-.212-18.307-.212-40.883s.1-40.887.212-40.887.211,18.3.211,40.887-.095,40.883-.211,40.883" transform="translate(-108.372 -14.033)" fill="#e0e0e0"/>
            <rect id="Rectángulo_264196" data-name="Rectángulo 264196" width="8.164" height="9.228" transform="translate(515.349 254.208)" fill="#fafafa"/>
            <rect id="Rectángulo_264197" data-name="Rectángulo 264197" width="12.095" height="17.524" transform="translate(458.544 190.984)" fill="#e0e0e0"/>
            <rect id="Rectángulo_264198" data-name="Rectángulo 264198" width="12.095" height="17.524" transform="translate(458.544 255.132)" fill="#e0e0e0"/>
            <path id="Trazado_492086" data-name="Trazado 492086" d="M407.191,200.287c-.1,0-.184-15.883-.184-35.471s.082-35.475.184-35.475.183,15.88.183,35.475-.082,35.471-.183,35.471" transform="translate(-94.173 -8.872)" fill="#e0e0e0"/>
            <rect id="Rectángulo_264200" data-name="Rectángulo 264200" width="7.082" height="8.006" transform="translate(321.248 175.7)" fill="#fafafa"/>
            <rect id="Rectángulo_264201" data-name="Rectángulo 264201" width="10.494" height="15.204" transform="translate(271.963 120.846)" fill="#e0e0e0"/>
            <rect id="Rectángulo_264202" data-name="Rectángulo 264202" width="10.494" height="15.204" transform="translate(271.963 176.502)" fill="#e0e0e0"/>
            <path id="Trazado_492087" data-name="Trazado 492087" d="M415.986,123.98c-.1,0-.183-15.883-.183-35.471s.082-35.475.183-35.475.183,15.88.183,35.475-.082,35.471-.183,35.471" transform="translate(-94.776 -3.638)" fill="#e0e0e0"/>
            <rect id="Rectángulo_264204" data-name="Rectángulo 264204" width="7.082" height="8.006" transform="translate(72.883 63.634)" fill="#fafafa"/>
            <rect id="Rectángulo_264267" data-name="Rectángulo 264267" width="7.082" height="8.006" transform="translate(88.422 144.679)" fill="#fafafa"/>
            <rect id="Rectángulo_264205" data-name="Rectángulo 264205" width="10.494" height="15.204" transform="translate(280.156 49.774)" fill="#e0e0e0"/>
            <rect id="Rectángulo_264206" data-name="Rectángulo 264206" width="10.494" height="15.204" transform="translate(280.156 105.429)" fill="#e0e0e0"/>
            <path id="Trazado_492088" data-name="Trazado 492088" d="M419.348,50.766c-.073,0-.131-11.365-.131-25.382S419.276,0,419.348,0s.131,11.363.131,25.384-.059,25.382-.131,25.382" transform="translate(-95.01 0)" fill="#e0e0e0"/>
            <rect id="Rectángulo_264208" data-name="Rectángulo 264208" width="5.068" height="5.729" transform="translate(330.227 39.52)" fill="#fafafa"/>
            <rect id="Rectángulo_264210" data-name="Rectángulo 264210" width="7.509" height="10.88" transform="translate(294.961 40.093)" fill="#e0e0e0"/>
            <path id="Trazado_492089" data-name="Trazado 492089" d="M436.642,375.533c-.116,0-.211-18.307-.211-40.883s.1-40.888.211-40.888.211,18.3.211,40.888-.1,40.883-.211,40.883" transform="translate(-96.191 -20.15)" fill="#e0e0e0"/>
            <rect id="Rectángulo_264213" data-name="Rectángulo 264213" width="12.095" height="17.524" transform="translate(293.132 274.047)" fill="#e0e0e0"/>
            <rect id="Rectángulo_264214" data-name="Rectángulo 264214" width="12.095" height="17.524" transform="translate(323.133 326.195)" fill="#e0e0e0"/>
            <rect id="Rectángulo_264265" data-name="Rectángulo 264265" width="12.095" height="17.524" transform="translate(37.318 79.385)" fill="#e0e0e0"/>
            <rect id="Rectángulo_264266" data-name="Rectángulo 264266" width="12.095" height="17.524" transform="translate(62.892 98.782)" fill="#e0e0e0"/>
            <rect id="Rectángulo_264215" data-name="Rectángulo 264215" width="106.482" height="82.129" transform="translate(245.939 191.919)" fill="#ebebeb"/>
            <path id="Trazado_492090" data-name="Trazado 492090" d="M420.85,287.584c-.117,0-.211-18.307-.211-40.883s.095-40.888.211-40.888.211,18.3.211,40.888-.1,40.883-.211,40.883" transform="translate(-95.108 -14.117)" fill="#e0e0e0"/>
            <rect id="Rectángulo_264216" data-name="Rectángulo 264216" width="8.164" height="9.228" transform="translate(335.229 255.353)" fill="#fafafa"/>
            <rect id="Rectángulo_264217" data-name="Rectángulo 264217" width="12.095" height="17.524" transform="translate(278.423 192.13)" fill="#e0e0e0"/>
            <rect id="Rectángulo_264218" data-name="Rectángulo 264218" width="12.095" height="17.524" transform="translate(278.423 256.278)" fill="#e0e0e0"/>
            <rect id="Rectángulo_264219" data-name="Rectángulo 264219" width="97.038" height="74.844" transform="translate(17.768 156.982)" fill="#efbc73"/>
            <path id="Trazado_492092" data-name="Trazado 492092" d="M168.28,242.844c-.087,0-.156-16.682-.156-37.257s.07-37.261.156-37.261.156,16.68.156,37.261-.07,37.257-.156,37.257" transform="translate(-77.788 -11.546)" fill="#263238"/>
            <rect id="Rectángulo_264222" data-name="Rectángulo 264222" width="7.439" height="8.41" transform="translate(99.138 214.791)" fill="#f5f5f5"/>
            <rect id="Rectángulo_264223" data-name="Rectángulo 264223" width="11.022" height="15.97" transform="translate(47.371 157.176)" fill="#263238" opacity="0.93"/>
            <rect id="Rectángulo_264224" data-name="Rectángulo 264224" width="11.022" height="15.97" transform="translate(47.371 215.634)" fill="#263238" opacity="0.93"/>
            <path id="Trazado_492093" data-name="Trazado 492093" d="M186.4,168.532a1.373,1.373,0,0,1-.249.016l-.728.016-2.8.03-10.308.049-34.006.045-34.012-.045-10.307-.05-2.8-.029-.728-.016a1.386,1.386,0,0,1-.249-.016,1.384,1.384,0,0,1,.249-.016l.728-.016,2.8-.03,10.307-.049,34.012-.047,34.006.047,10.308.05,2.8.029.728.016a1.371,1.371,0,0,1,.249.016" transform="translate(-72.443 -11.549)" fill="#263238"/>
            <rect id="Rectángulo_264225" data-name="Rectángulo 264225" width="97.038" height="74.844" transform="translate(98.546 156.892)" fill="#efbc73"/>
            <path id="Trazado_492094" data-name="Trazado 492094" d="M255.008,242.747c-.087,0-.157-16.682-.157-37.257s.07-37.261.157-37.261.156,16.68.156,37.261-.07,37.257-.156,37.257" transform="translate(-83.736 -11.539)" fill="#263238"/>
            <rect id="Rectángulo_264226" data-name="Rectángulo 264226" width="7.439" height="8.41" transform="translate(179.917 214.701)" fill="#263238"/>
            <g id="Grupo_707314" data-name="Grupo 707314" transform="translate(128.15 157.086)" opacity="0.82">
              <g id="Grupo_707313" data-name="Grupo 707313">
                <g id="Grupo_707312" data-name="Grupo 707312" clip-path="url(#clip-path-2)">
                  <rect id="Rectángulo_264227" data-name="Rectángulo 264227" width="11.022" height="15.97" fill="#263238"/>
                </g>
              </g>
            </g>
            <g id="Grupo_707317" data-name="Grupo 707317" transform="translate(128.15 215.544)" opacity="0.93">
              <g id="Grupo_707316" data-name="Grupo 707316">
                <g id="Grupo_707315" data-name="Grupo 707315" clip-path="url(#clip-path-2)">
                  <rect id="Rectángulo_264229" data-name="Rectángulo 264229" width="11.022" height="15.97" fill="#263238"/>
                </g>
              </g>
            </g>
            <path id="Trazado_492095" data-name="Trazado 492095" d="M273.13,168.435a1.374,1.374,0,0,1-.249.016l-.728.016-2.8.029-10.308.05-34.006.045-34.012-.045-10.307-.05-2.8-.029-.728-.016a1.387,1.387,0,0,1-.249-.016,1.384,1.384,0,0,1,.249-.016l.728-.016,2.8-.03,10.307-.049,34.012-.047,34.006.047,10.308.049,2.8.03.728.016a1.371,1.371,0,0,1,.249.016" transform="translate(-78.392 -11.542)" fill="#263238"/>
            <rect id="Rectángulo_264231" data-name="Rectángulo 264231" width="97.038" height="74.844" transform="translate(103.994 82.046)" fill="#efbc73"/>
            <path id="Trazado_492096" data-name="Trazado 492096" d="M260.857,162.388c-.087,0-.156-16.682-.156-37.257s.07-37.261.156-37.261.156,16.68.156,37.261-.07,37.257-.156,37.257" transform="translate(-84.138 -6.027)" fill="#263238"/>
            <rect id="Rectángulo_264232" data-name="Rectángulo 264232" width="7.439" height="8.41" transform="translate(185.364 139.855)" fill="#263238"/>
            <rect id="Rectángulo_264233" data-name="Rectángulo 264233" width="11.022" height="15.97" transform="translate(133.597 82.239)" fill="#263238" opacity="0.93"/>
            <rect id="Rectángulo_264234" data-name="Rectángulo 264234" width="11.022" height="15.97" transform="translate(133.597 140.698)" fill="#263238" opacity="0.93"/>
            <path id="Trazado_492097" data-name="Trazado 492097" d="M278.979,88.076a1.392,1.392,0,0,1-.25.016l-.728.016-2.8.029-10.307.05-34.007.045-34.012-.045-10.307-.05-2.8-.029-.728-.016a1.4,1.4,0,0,1-.249-.016,1.4,1.4,0,0,1,.249-.016l.728-.016,2.8-.03,10.307-.049,34.012-.047,34.007.047,10.307.05,2.8.029.728.016a1.393,1.393,0,0,1,.25.016" transform="translate(-78.793 -6.03)" fill="#263238"/>
            <path id="Trazado_492098" data-name="Trazado 492098" d="M262.451,337.728v-8.767H83.161a2.4,2.4,0,0,0-2.4,2.4v3.972a2.4,2.4,0,0,0,2.4,2.4h4.992v3.991a2.36,2.36,0,0,1-2.36,2.36h-2.67a2.359,2.359,0,0,0-2.359,2.36v4.048a2.36,2.36,0,0,0,2.359,2.36H262.451V344.08H220.658v-6.351Zm-131.323,0h10.744v6.351H131.128Zm-7.163,6.351H113.222v-6.351h10.744Zm25.068-6.351h10.744v6.351H149.033Zm17.906,0h10.744v6.351H166.94Zm17.905,0h10.744v6.351H184.845Zm-89.53,0h10.744v6.351H95.315ZM213.5,344.08H202.752v-6.351H213.5Z" transform="translate(-71.795 -22.564)" fill="#455a64"/>
            <path id="Trazado_492099" data-name="Trazado 492099" d="M424.947,173.754a3.168,3.168,0,0,0-.1-4.51l-30.244-28.582a3.256,3.256,0,0,0-4.581,4.624l12.064,12.692-6.28,6.038-3.275-2.57-22.809,26.125-12.192-11.727-14.7,43.231,2.916,58.7h33.812l-2.36-69.73,22.649-32.332.173-7.689,6.488-6.67,14.051,12.548a3.167,3.167,0,0,0,4.381-.155" transform="translate(-89.771 -9.588)" fill="#263238"/>
            <path id="Trazado_492100" data-name="Trazado 492100" d="M333.026,281.973c-.134,0-.242-53.538-.242-119.566,0-66.051.108-119.578.242-119.578s.242,53.527.242,119.578c0,66.028-.108,119.566-.242,119.566" transform="translate(-89.082 -2.938)" fill="#263238"/>
            <path id="Trazado_492101" data-name="Trazado 492101" d="M414.331,271.879,434.9,214.774l-7.726-3.129V200.569L483.4,199.7a5.467,5.467,0,0,0,5.319-4.854l8.256-73.409a6.723,6.723,0,0,1,13.4,1.028l-3.11,75.644,29.363.158,1,13.8-86.832,3.4-22.642,55.6Z" transform="translate(-94.675 -7.92)" fill="#374a52"/>
            <path id="Trazado_492102" data-name="Trazado 492102" d="M422.837,277.3l-73.093.582v4.866l30.274-.389L428.252,282l116.923-16.513-13.253-50.452H452.779a8.425,8.425,0,0,0-7,3.559Z" transform="translate(-90.245 -14.749)" fill="#263238"/>
            <path id="Trazado_492103" data-name="Trazado 492103" d="M386.694,54.88,333.562,224.335l.373,47.132h16.9V224.63l43.533-169.3,117.954-.659,22.56,176.341h13.31L520.749,55.907a10,10,0,0,0-9.831-8.156H396.276a10,10,0,0,0-9.581,7.129" transform="translate(-89.135 -3.275)" fill="#455a64"/>
            <path id="Trazado_492104" data-name="Trazado 492104" d="M323.323,339.3V294.034l9.909-9.175,93.114-1.2,16.8-13.637a19.139,19.139,0,0,1,10.986-4.249l17.932-1.013s8.049-5.546,15.811-11.041a58.386,58.386,0,0,1,33.735-10.743h51.624a7.069,7.069,0,0,1,7.069,7.068V339.3Z" transform="translate(-88.433 -16.666)" fill="#ff725e"/>
            <rect id="Rectángulo_264235" data-name="Rectángulo 264235" width="257.894" height="14.882" transform="translate(233.975 308.049)" fill="#263238"/>
            <path id="Trazado_492105" data-name="Trazado 492105" d="M336.672,343.9a31.888,31.888,0,1,0,32.344-31.425A31.888,31.888,0,0,0,336.672,343.9" transform="translate(-89.348 -21.433)" fill="#263238"/>
            <path id="Trazado_492106" data-name="Trazado 492106" d="M336.677,346.13c0,.028-.006.055-.006.082a31.888,31.888,0,0,0,63.769.92c0-.028,0-.055,0-.083Z" transform="translate(-89.348 -23.742)" fill="#263238"/>
            <path id="Trazado_492107" data-name="Trazado 492107" d="M346.871,344.74a22.387,22.387,0,1,0,22.708-22.062,22.387,22.387,0,0,0-22.708,22.062" transform="translate(-90.048 -22.133)" fill="#fafafa"/>
            <path id="Trazado_492108" data-name="Trazado 492108" d="M369.579,322.678a22.388,22.388,0,0,0-22.708,22.062l44.77.646a22.387,22.387,0,0,0-22.062-22.708" transform="translate(-90.048 -22.133)" fill="#e0e0e0"/>
            <path id="Trazado_492109" data-name="Trazado 492109" d="M356.265,345.511A13.637,13.637,0,1,0,370.1,332.072a13.636,13.636,0,0,0-13.832,13.439" transform="translate(-90.692 -22.777)" fill="#263238"/>
            <path id="Trazado_492110" data-name="Trazado 492110" d="M504.213,343.9a31.888,31.888,0,1,0,32.344-31.425A31.888,31.888,0,0,0,504.213,343.9" transform="translate(-100.84 -21.433)" fill="#263238"/>
            <path id="Trazado_492111" data-name="Trazado 492111" d="M504.218,346.13c0,.028-.006.055-.006.082a31.888,31.888,0,0,0,63.769.92c0-.028,0-.055,0-.083Z" transform="translate(-100.84 -23.742)" fill="#263238"/>
            <path id="Trazado_492112" data-name="Trazado 492112" d="M514.412,344.74a22.387,22.387,0,1,0,22.708-22.062,22.387,22.387,0,0,0-22.708,22.062" transform="translate(-101.54 -22.133)" fill="#fafafa"/>
            <path id="Trazado_492113" data-name="Trazado 492113" d="M537.12,322.678a22.388,22.388,0,0,0-22.708,22.062l44.77.646a22.387,22.387,0,0,0-22.062-22.708" transform="translate(-101.54 -22.133)" fill="#e0e0e0"/>
            <path id="Trazado_492114" data-name="Trazado 492114" d="M523.806,345.511a13.637,13.637,0,1,0,13.832-13.439,13.636,13.636,0,0,0-13.832,13.439" transform="translate(-102.184 -22.777)" fill="#263238"/>
            <path id="Trazado_492115" data-name="Trazado 492115" d="M576.9,320.516a1.122,1.122,0,0,1-.155-.221l-.411-.671q-.272-.46-.652-1.1a14.979,14.979,0,0,0-.935-1.466,45.1,45.1,0,0,0-7.19-8.387c-.823-.832-1.818-1.555-2.79-2.378-.995-.8-2.1-1.538-3.22-2.329-1.182-.7-2.346-1.521-3.663-2.163-.65-.335-1.3-.7-1.975-1.026l-2.088-.928A44.187,44.187,0,0,0,515.1,301.7l-1.991,1.123c-.644.389-1.253.813-1.867,1.209-1.251.765-2.33,1.7-3.442,2.5-1.04.9-2.069,1.737-2.983,2.625-.889.913-1.81,1.727-2.551,2.633a45.139,45.139,0,0,0-6.358,9.034,15.357,15.357,0,0,0-.791,1.548q-.317.671-.545,1.154c-.142.29-.254.522-.345.706a1.209,1.209,0,0,1-.132.235,1.023,1.023,0,0,1,.087-.253c.078-.189.177-.428.3-.727l.5-1.176a14.38,14.38,0,0,1,.754-1.574,43.268,43.268,0,0,1,6.269-9.174c.738-.92,1.658-1.748,2.547-2.675.915-.9,1.946-1.759,2.989-2.667,1.115-.822,2.2-1.766,3.456-2.544.618-.4,1.232-.833,1.879-1.229l2.005-1.142A44.3,44.3,0,0,1,554,299.44l2.105.946c.681.333,1.333.7,1.987,1.044,1.325.655,2.5,1.491,3.683,2.2,1.125.8,2.233,1.559,3.229,2.369.974.838,1.968,1.575,2.79,2.42a43.328,43.328,0,0,1,7.115,8.536,14.324,14.324,0,0,1,.9,1.5l.614,1.122c.152.285.273.514.369.695a1.066,1.066,0,0,1,.111.244" transform="translate(-100.147 -20.284)" fill="#263238"/>
            <path id="Trazado_492116" data-name="Trazado 492116" d="M409.474,326.468a1.238,1.238,0,0,1-.123-.254l-.315-.761q-.211-.518-.5-1.241-.33-.731-.749-1.664a50.984,50.984,0,0,0-6.031-9.9,39.567,39.567,0,0,0-12.981-11.059,38.3,38.3,0,0,0-9.593-3.195,48.806,48.806,0,0,0-10.834-.986,48.068,48.068,0,0,0-10.79,1.388,40.057,40.057,0,0,0-9.426,3.683,47.2,47.2,0,0,0-13.4,10.643,53.5,53.5,0,0,0-6.566,9.558c-.648,1.211-1.139,2.158-1.45,2.812l-.373.734a.142.142,0,1,1-.046-.021l.33-.755c.283-.668.747-1.631,1.372-2.859a51.106,51.106,0,0,1,6.473-9.692,46.961,46.961,0,0,1,13.448-10.813,40.266,40.266,0,0,1,9.523-3.751,48.177,48.177,0,0,1,10.9-1.412,48.954,48.954,0,0,1,10.939,1.006,38.493,38.493,0,0,1,9.7,3.263,39.5,39.5,0,0,1,13.049,11.247,48.908,48.908,0,0,1,5.932,10.033q.4.946.71,1.689l.46,1.26c.111.321.2.578.27.779a1.158,1.158,0,0,1,.076.271" transform="translate(-88.63 -20.366)" fill="#263238"/>
            <rect id="Rectángulo_264236" data-name="Rectángulo 264236" width="141.374" height="16.533" transform="translate(93.451 306.397)" fill="#263238"/>
            <path id="Trazado_492117" data-name="Trazado 492117" d="M318.535,336.188a4.118,4.118,0,1,1-4.119-4.118,4.119,4.119,0,0,1,4.119,4.118" transform="translate(-87.54 -22.777)" fill="#455a64"/>
            <rect id="Rectángulo_264237" data-name="Rectángulo 264237" width="11.801" height="234.421" transform="translate(221.171 43.18)" fill="#455a64"/>
            <path id="Trazado_492118" data-name="Trazado 492118" d="M494.894,312.367c0,.134-19.892.242-44.424.242s-44.428-.108-44.428-.242,19.888-.242,44.428-.242,44.424.108,44.424.242" transform="translate(-94.107 -21.409)" fill="#263238"/>
            <path id="Trazado_492119" data-name="Trazado 492119" d="M481.979,305.766c-.134,0-.242-8.652-.242-19.322s.108-19.325.242-19.325.242,8.651.242,19.325-.108,19.322-.242,19.322" transform="translate(-99.299 -18.322)" fill="#263238"/>
            <rect id="Rectángulo_264238" data-name="Rectángulo 264238" width="24.083" height="10.748" transform="translate(219.898 37.806)" fill="#263238"/>
            <rect id="Rectángulo_264239" data-name="Rectángulo 264239" width="15.507" height="30.943" transform="translate(219.318 275.667)" fill="#263238"/>
            <rect id="Rectángulo_264240" data-name="Rectángulo 264240" width="97.038" height="74.844" transform="translate(101.779 231.766)" fill="#efbc73"/>
            <path id="Trazado_492120" data-name="Trazado 492120" d="M258.478,323.135c-.087,0-.156-16.682-.156-37.257s.07-37.261.156-37.261.156,16.68.156,37.261-.07,37.257-.156,37.257" transform="translate(-83.974 -17.053)" fill="#263238"/>
            <rect id="Rectángulo_264243" data-name="Rectángulo 264243" width="7.439" height="8.41" transform="translate(183.149 289.575)" fill="#263238"/>
            <rect id="Rectángulo_264244" data-name="Rectángulo 264244" width="11.022" height="15.97" transform="translate(131.382 231.96)" fill="#263238"/>
            <rect id="Rectángulo_264245" data-name="Rectángulo 264245" width="11.022" height="15.97" transform="translate(131.382 290.418)" fill="#263238" opacity="0.93"/>
            <path id="Trazado_492121" data-name="Trazado 492121" d="M276.6,248.822a1.37,1.37,0,0,1-.249.016l-.728.016-2.8.029-10.308.05-34.006.045-34.012-.045-10.307-.05-2.8-.029-.728-.016a1.364,1.364,0,0,1-.248-.016,1.372,1.372,0,0,1,.248-.016l.728-.016,2.8-.03,10.307-.049,34.012-.047,34.006.047,10.308.049,2.8.03.728.016a1.378,1.378,0,0,1,.249.016" transform="translate(-78.63 -17.056)" fill="#263238"/>
            <path id="Trazado_492204" data-name="Trazado 492204" d="M0,0H97.038V74.844H0Z" transform="translate(0 231.766)" fill="#efbc73" stroke="#f8e6c3" stroke-width="1"/>
            <path id="Trazado_492122" data-name="Trazado 492122" d="M149.205,323.135c-.087,0-.156-16.682-.156-37.257s.07-37.261.156-37.261.156,16.68.156,37.261-.07,37.257-.156,37.257" transform="translate(-76.479 -17.053)" fill="#263238"/>
            <rect id="Rectángulo_264247" data-name="Rectángulo 264247" width="7.439" height="8.41" transform="translate(81.372 289.575)" fill="#263238" opacity="0.91"/>
            <g id="Grupo_707323" data-name="Grupo 707323" transform="translate(29.604 231.959)" opacity="0.82">
              <g id="Grupo_707322" data-name="Grupo 707322">
                <g id="Grupo_707321" data-name="Grupo 707321" clip-path="url(#clip-path-4)">
                  <rect id="Rectángulo_264248" data-name="Rectángulo 264248" width="11.022" height="15.97" transform="translate(0 0.001)" fill="#263238"/>
                </g>
              </g>
            </g>
            <g id="Grupo_707326" data-name="Grupo 707326" transform="translate(29.604 290.418)" opacity="0.82">
              <g id="Grupo_707325" data-name="Grupo 707325">
                <g id="Grupo_707324" data-name="Grupo 707324" clip-path="url(#clip-path-2)">
                  <rect id="Rectángulo_264250" data-name="Rectángulo 264250" width="11.022" height="15.97" transform="translate(0 0)" fill="#263238"/>
                </g>
              </g>
            </g>
            <path id="Trazado_492123" data-name="Trazado 492123" d="M167.327,248.822a1.37,1.37,0,0,1-.249.016l-.728.016-2.8.029-10.308.05-34.006.045-34.012-.045-10.307-.05-2.8-.029-.728-.016a1.382,1.382,0,0,1-.249-.016,1.39,1.39,0,0,1,.249-.016l.728-.016,2.8-.03,10.307-.049,34.012-.047,34.006.047,10.308.049,2.8.03.728.016a1.378,1.378,0,0,1,.249.016" transform="translate(-71.135 -17.056)" fill="#263238"/>
            <path id="Trazado_492124" data-name="Trazado 492124" d="M603.6,270.679c5,1.2,9.2,6.285,9.116,11.431a11.785,11.785,0,0,1-9.116,11.007" transform="translate(-107.657 -18.566)" fill="#e8505b"/>
            <g id="Grupo_707329" data-name="Grupo 707329" transform="translate(495.943 252.113)" opacity="0.6">
              <g id="Grupo_707328" data-name="Grupo 707328">
                <g id="Grupo_707327" data-name="Grupo 707327" clip-path="url(#clip-path-6)">
                  <path id="Trazado_492125" data-name="Trazado 492125" d="M603.6,270.679c5,1.2,9.2,6.285,9.116,11.431a11.785,11.785,0,0,1-9.116,11.007" transform="translate(-603.6 -270.679)" fill="#fff"/>
                </g>
              </g>
            </g>
            <rect id="Rectángulo_264253" data-name="Rectángulo 264253" width="4.278" height="28.327" transform="translate(491.87 249.222)" fill="#e8505b"/>
            <g id="Grupo_707332" data-name="Grupo 707332" transform="translate(491.869 249.221)" opacity="0.3">
              <g id="Grupo_707331" data-name="Grupo 707331">
                <g id="Grupo_707330" data-name="Grupo 707330" clip-path="url(#clip-path-7)">
                  <rect id="Rectángulo_264254" data-name="Rectángulo 264254" width="4.278" height="28.327" transform="translate(0.001 0.001)"/>
                </g>
              </g>
            </g>
            <path id="Trazado_492126" data-name="Trazado 492126" d="M385.355,144.907a2.7,2.7,0,0,1-.7-3.474c.713-1.255,1.555-2.725,1.937-3.335a22.161,22.161,0,0,0,1.273-2.258,2.541,2.541,0,0,1,1.956-1.863,10.854,10.854,0,0,1,3.424.1l11.65,2.514,5.425,2.689-5.281,4.653-2.931-.9c-.88.77-4.338,1.17-5.508,1.025-1.5-.184-4.505-1.159-6.211-.833l-1.642.226.782.658a7.75,7.75,0,0,1,4.136.846,1.179,1.179,0,0,1-.571,2.163l-3.83.251a22.013,22.013,0,0,1-2.983-1.7,11.7,11.7,0,0,0-.928-.766" transform="translate(-92.616 -9.183)" fill="#ffbe9d"/>
            <path id="Trazado_492127" data-name="Trazado 492127" d="M388.779,143.8a1.485,1.485,0,0,1-.632.26,3.293,3.293,0,0,1-1.883-.023,2.346,2.346,0,0,1-1.113-.773,1.967,1.967,0,0,1-.349-1.552,1.4,1.4,0,0,1,.483-.778,2.6,2.6,0,0,1,.8-.4,13.065,13.065,0,0,1,1.7-.442,27.4,27.4,0,0,1,3.326-.426c.514-.034,1-.059,1.467-.055.113,0,.238.007.353.016a1.592,1.592,0,0,0,.277-.011,5.776,5.776,0,0,0,.576-.11c1.482-.376,2.388-.714,2.413-.641a8.491,8.491,0,0,1-2.326.972,5.727,5.727,0,0,1-.609.149,1.86,1.86,0,0,1-.366.027c-.1,0-.2,0-.317,0-.444.013-.928.052-1.433.1-1.012.1-2.124.232-3.268.456a13.673,13.673,0,0,0-1.636.416c-.544.157-.9.4-1.007.833a1.588,1.588,0,0,0,.239,1.208,2.053,2.053,0,0,0,.908.689,3.473,3.473,0,0,0,1.729.159c.422-.053.656-.115.668-.075" transform="translate(-92.647 -9.524)" fill="#eb996e"/>
            <path id="Trazado_492128" data-name="Trazado 492128" d="M390.577,137.642c.125-.034.352.582.124,1.319s-.754,1.121-.84,1.024.2-.551.376-1.166.2-1.153.34-1.176" transform="translate(-92.995 -9.441)" fill="#eb996e"/>
            <path id="Trazado_492129" data-name="Trazado 492129" d="M392.516,138.436c.13.013.167.468-.154.884s-.768.5-.814.376.195-.359.429-.672.4-.61.538-.588" transform="translate(-93.112 -9.495)" fill="#eb996e"/>
            <path id="Trazado_492130" data-name="Trazado 492130" d="M439.171,135.639c1.607-.665-9.205,10.442-9.205,10.442L410,138.639l-7.05,4.33,21.476,15.12a11.31,11.31,0,0,0,14.65-1.393l12.674-14.65Z" transform="translate(-93.894 -9.302)" fill="#ffbe9d"/>
            <path id="Trazado_492131" data-name="Trazado 492131" d="M454.072,87.275c-2.785-.534-4.53-1.394-4.6-2.466-.15-2.214,6.884-4.493,15.71-5.091s16.1.712,16.253,2.925c.073,1.067-1.525,2.15-4.187,3.051" transform="translate(-97.085 -5.458)" fill="#ff725e"/>
            <g id="Grupo_707335" data-name="Grupo 707335" transform="translate(354.426 74.809)" opacity="0.4">
              <g id="Grupo_707334" data-name="Grupo 707334">
                <g id="Grupo_707333" data-name="Grupo 707333" clip-path="url(#clip-path-8)">
                  <path id="Trazado_492132" data-name="Trazado 492132" d="M455.743,87.145c-2.469-.473-4.078-1.233-4.08-2.186-.008-2.653,6.1-3.983,13.924-4.513s14.272.631,14.405,2.593c.064.945-1.351,1.9-3.711,2.7" transform="translate(-451.662 -80.318)" fill="#ff725e"/>
                </g>
              </g>
            </g>
            <path id="Trazado_492133" data-name="Trazado 492133" d="M451.753,82.682s1.65-9.55,1.814-10.02,2.563-4.766,8.883-6.375l5.289-.359s7.674,1.908,9.169,3.644,2.685,10.576,2.685,10.576l-15.053-2.219-9.921,3.144Z" transform="translate(-97.242 -4.522)" fill="#ff725e"/>
            <path id="Trazado_492134" data-name="Trazado 492134" d="M464.8,65.016l-2.271.154a3.687,3.687,0,0,0-.74,2.449c.006,1.651.4,12.958.4,12.958l6.61-.751-1.157-13.92,2.286.347-.124-.785-.645-.663Z" transform="translate(-97.93 -4.445)" fill="#ff725e"/>
            <path id="Trazado_492135" data-name="Trazado 492135" d="M478.144,117.931l-16.207.355c-.208-1.708-.051-12.375-.051-12.375s-6.171-.536-6.66-6.636-.389-18.355-.389-18.355l.068-.539c6.863-3.517,15.031-4.343,21.446-.063l.952.635Z" transform="translate(-97.453 -5.31)" fill="#ffbe9d"/>
            <path id="Trazado_492136" data-name="Trazado 492136" d="M462.4,107.8a14.788,14.788,0,0,0,7.791-2.889s-1.681,4.613-7.812,4.476Z" transform="translate(-97.971 -7.196)" fill="#eb996e"/>
            <path id="Trazado_492137" data-name="Trazado 492137" d="M478.609,88.036c.1-.052,4.111-1.526,4.261,2.658s-4.081,3.47-4.094,3.351-.168-6.009-.168-6.009" transform="translate(-99.084 -6.018)" fill="#ffbe9d"/>
            <path id="Trazado_492138" data-name="Trazado 492138" d="M480.1,92.513c.018-.014.075.048.2.1a.73.73,0,0,0,.545-.008,1.805,1.805,0,0,0,.777-1.648,2.414,2.414,0,0,0-.241-1.037.844.844,0,0,0-.568-.539.371.371,0,0,0-.424.215c-.051.119-.021.2-.044.21s-.092-.067-.065-.241a.474.474,0,0,1,.156-.268.559.559,0,0,1,.4-.121,1.027,1.027,0,0,1,.784.622,2.48,2.48,0,0,1,.294,1.157,1.894,1.894,0,0,1-1,1.845.784.784,0,0,1-.671-.088c-.133-.1-.158-.191-.144-.2" transform="translate(-99.186 -6.117)" fill="#eb996e"/>
            <path id="Trazado_492139" data-name="Trazado 492139" d="M457.014,89.2a.874.874,0,0,0,.9.823.837.837,0,0,0,.846-.848.874.874,0,0,0-.9-.823.836.836,0,0,0-.847.848" transform="translate(-97.603 -6.061)" fill="#263238"/>
            <path id="Trazado_492140" data-name="Trazado 492140" d="M456.71,88.266c.115.106.743-.428,1.682-.488s1.658.361,1.752.239c.047-.054-.078-.251-.392-.45a2.4,2.4,0,0,0-1.412-.333,2.3,2.3,0,0,0-1.329.531c-.274.24-.358.453-.3.5" transform="translate(-97.581 -5.983)" fill="#263238"/>
            <path id="Trazado_492141" data-name="Trazado 492141" d="M466.939,88.836a.873.873,0,0,0,.9.823.836.836,0,0,0,.846-.847.874.874,0,0,0-.9-.823.837.837,0,0,0-.847.847" transform="translate(-98.284 -6.035)" fill="#263238"/>
            <path id="Trazado_492142" data-name="Trazado 492142" d="M466.625,87.783c.115.106.744-.428,1.682-.488s1.658.361,1.752.239c.047-.054-.076-.251-.392-.45a2.4,2.4,0,0,0-1.412-.333,2.306,2.306,0,0,0-1.329.531c-.273.24-.357.453-.3.5" transform="translate(-98.261 -5.95)" fill="#263238"/>
            <path id="Trazado_492143" data-name="Trazado 492143" d="M463.3,95a6.213,6.213,0,0,0-1.542-.171c-.241-.009-.471-.041-.523-.2a1.227,1.227,0,0,1,.112-.721l.586-1.872a31.529,31.529,0,0,0,1.268-4.881,31.36,31.36,0,0,0-1.658,4.767q-.291.985-.554,1.881a1.385,1.385,0,0,0-.061.949.6.6,0,0,0,.417.323,1.633,1.633,0,0,0,.411.029A6.087,6.087,0,0,0,463.3,95" transform="translate(-97.867 -5.978)" fill="#263238"/>
            <path id="Trazado_492144" data-name="Trazado 492144" d="M466.28,96.074c-.154,0-.087,1.02-.909,1.8s-1.915.743-1.913.886c-.009.065.255.182.714.163a2.545,2.545,0,0,0,1.6-.682,2.214,2.214,0,0,0,.7-1.507c.01-.428-.121-.672-.19-.662" transform="translate(-98.045 -6.59)" fill="#263238"/>
            <path id="Trazado_492145" data-name="Trazado 492145" d="M466.1,83.868c.11.249,1.038.064,2.148.123,1.112.035,2.021.3,2.152.059.058-.114-.113-.344-.489-.566a3.744,3.744,0,0,0-3.276-.139c-.393.191-.582.405-.535.523" transform="translate(-98.226 -5.695)" fill="#263238"/>
            <path id="Trazado_492146" data-name="Trazado 492146" d="M456.882,85.321c.18.2.81-.063,1.587-.126.775-.091,1.446.046,1.581-.188.06-.113-.059-.319-.359-.5a2.307,2.307,0,0,0-2.554.252c-.26.237-.335.464-.255.563" transform="translate(-97.592 -5.778)" fill="#263238"/>
            <path id="Trazado_492147" data-name="Trazado 492147" d="M478.578,83.672c-.047,1.705.122,3.417.074,5.122a5.8,5.8,0,0,1-.484,1.868,1.684,1.684,0,0,1-3.185.23,5,5,0,0,1-.52-2.162,7.029,7.029,0,0,0-.379-2.2,11.927,11.927,0,0,0-1.409-2.072,2.709,2.709,0,0,1-.554-2.356,12.47,12.47,0,0,1,6.457,1.569" transform="translate(-98.632 -5.63)" fill="#263238"/>
            <path id="Trazado_492148" data-name="Trazado 492148" d="M454.834,84.088l-.1-3.425,9.778-3.649,12.711,2.828.249,3.672a30.714,30.714,0,0,0-22.636.575" transform="translate(-97.446 -5.283)" fill="#ff725e"/>
            <path id="Trazado_492149" data-name="Trazado 492149" d="M455.066,79.878l-.41.455-3.439,2.5a57.019,57.019,0,0,1,13.914-2.816,66.666,66.666,0,0,1,15.477,1.449l-4.923-2.525a8.169,8.169,0,0,0-5.968-2.189l-8.976.432a8.167,8.167,0,0,0-5.677,2.694" transform="translate(-97.205 -5.264)" fill="#ff725e"/>
            <path id="Trazado_492150" data-name="Trazado 492150" d="M462.031,76.213a30.51,30.51,0,0,0,.13-4.783,30.437,30.437,0,0,0-.246-4.778,30.646,30.646,0,0,0-.13,4.783,30.728,30.728,0,0,0,.246,4.778" transform="translate(-97.93 -4.572)" fill="#263238"/>
            <path id="Trazado_492151" data-name="Trazado 492151" d="M470.346,66.333a6.5,6.5,0,0,0-1.715-.372.737.737,0,0,0-.675.719q.032.486.064,1.006c.057.718.116,1.479.179,2.278.137,1.615.281,3.076.405,4.132a7.88,7.88,0,0,0,.278,1.7,7.892,7.892,0,0,0-.013-1.723c-.056-1.061-.159-2.524-.3-4.14-.073-.8-.143-1.559-.208-2.276q-.05-.506-.1-.981a.453.453,0,0,1,.39-.455,9.253,9.253,0,0,0,1.688.107" transform="translate(-98.354 -4.524)" fill="#263238"/>
            <path id="Trazado_492152" data-name="Trazado 492152" d="M450.975,82.776c.016.025.407-.2,1.158-.524.373-.168.836-.362,1.352-.647a3.993,3.993,0,0,0,1.5-1.342c.441-.649.469-1.517.96-2.167.454-.69,1.433-.753,2.379-.852,1.92-.21,4.039-.371,6.267-.462s4.355-.109,6.288-.09a3.82,3.82,0,0,1,2.5.65,6.661,6.661,0,0,1,.815.9l.379.455.194.215a.9.9,0,0,0,.275.176c1.379.557,2.5.894,3.271,1.183a11.819,11.819,0,0,0,1.2.414,1.163,1.163,0,0,0-.288-.165c-.194-.1-.484-.227-.862-.386-.748-.328-1.886-.715-3.21-1.285a.649.649,0,0,1-.189-.121l-.183-.211-.363-.455a6.863,6.863,0,0,0-.839-.957,4.1,4.1,0,0,0-2.7-.76c-1.94-.037-4.072-.031-6.31.061s-4.364.264-6.291.493a9.983,9.983,0,0,0-1.42.228,2,2,0,0,0-1.173.787c-.539.767-.542,1.632-.934,2.209a3.833,3.833,0,0,1-1.378,1.3c-.493.3-.946.509-1.311.7s-.645.344-.828.458-.273.186-.266.2" transform="translate(-97.189 -5.235)" fill="#263238"/>
            <path id="Trazado_492153" data-name="Trazado 492153" d="M452.447,83.485a.916.916,0,0,0,.257-.149,5.808,5.808,0,0,1,.716-.432,14.6,14.6,0,0,1,2.876-1.092,36.049,36.049,0,0,1,10.095-1.175c2.005.007,3.909-.034,5.63.075,1.712.128,3.27.345,4.552.56.642.115,1.217.243,1.718.376a2.926,2.926,0,0,1,1.182.509,1.194,1.194,0,0,1,.439.962c.008,0,.06-.1.049-.3a1.221,1.221,0,0,0-.39-.773,2.935,2.935,0,0,0-1.222-.6c-.5-.155-1.08-.3-1.725-.435a43.376,43.376,0,0,0-4.579-.645c-1.741-.129-3.654-.1-5.651-.1a33.482,33.482,0,0,0-10.173,1.3,12.822,12.822,0,0,0-2.873,1.22,4.185,4.185,0,0,0-.69.5c-.147.128-.219.2-.21.209" transform="translate(-97.29 -5.505)" fill="#263238"/>
            <path id="Trazado_492154" data-name="Trazado 492154" d="M463.626,65.417a5.844,5.844,0,0,0,.936.007l2.255-.089c.877-.024,1.683-.137,2.241-.081a1.1,1.1,0,0,1,.786.4c.007,0-.019-.1-.136-.217a1.136,1.136,0,0,0-.634-.288,16.234,16.234,0,0,0-2.264.035l-2.253.133a5.874,5.874,0,0,0-.93.1" transform="translate(-98.056 -4.466)" fill="#fafafa"/>
            <path id="Trazado_492155" data-name="Trazado 492155" d="M463.214,77.3a2.868,2.868,0,0,0,.472.009l1.288-.019c1.087-.015,2.589-.027,4.247,0l2.338.058a10.648,10.648,0,0,1,1.89.149,1.854,1.854,0,0,1,1.058.637,2.025,2.025,0,0,1,.226.406.9.9,0,0,0-.179-.441,1.852,1.852,0,0,0-1.08-.706,9.92,9.92,0,0,0-1.91-.183c-.719-.033-1.511-.057-2.342-.07-1.661-.027-3.165,0-4.252.045l-1.287.067a2.838,2.838,0,0,0-.47.048" transform="translate(-98.028 -5.291)" fill="#fafafa"/>
            <path id="Trazado_492156" data-name="Trazado 492156" d="M468.415,74.9a1.45,1.45,0,0,0-.028-.338c-.041-.3-.082-.6-.124-.915-.105-.772-.241-1.839-.357-3.021s-.188-2.256-.234-3.033c-.019-.314-.037-.618-.055-.921a.17.17,0,1,0-.059,0c0,.218,0,.534.007.924.019.78.075,1.857.19,3.043s.269,2.253.4,3.021c.066.385.125.695.171.908a1.487,1.487,0,0,0,.086.329" transform="translate(-98.326 -4.55)" fill="#fafafa"/>
            <path id="Trazado_492157" data-name="Trazado 492157" d="M476.8,79.511a1.329,1.329,0,0,0,.293.132l.819.308,2.72.963a11.2,11.2,0,0,1,1.471.564,1.813,1.813,0,0,1,.872.867,1.268,1.268,0,0,1,.078.826c-.058.193-.133.283-.121.292a.675.675,0,0,0,.177-.274,1.272,1.272,0,0,0-.036-.884,1.877,1.877,0,0,0-.9-.949,10.223,10.223,0,0,0-1.487-.584l-2.735-.921-.834-.263a1.269,1.269,0,0,0-.313-.077" transform="translate(-98.96 -5.454)" fill="#fafafa"/>
            <path id="Trazado_492158" data-name="Trazado 492158" d="M401.838,258.2l.843,15.12s-15.085,5.935-15.2,8.744l29.374-.582-.347-23.612Z" transform="translate(-92.833 -17.688)" fill="#e8505b"/>
            <g id="Grupo_707338" data-name="Grupo 707338" transform="translate(294.647 240.185)" opacity="0.4">
              <g id="Grupo_707337" data-name="Grupo 707337">
                <g id="Grupo_707336" data-name="Grupo 707336" clip-path="url(#clip-path-9)">
                  <path id="Trazado_492159" data-name="Trazado 492159" d="M401.838,258.2l.843,15.12s-15.085,5.935-15.2,8.744l29.374-.582-.347-23.612Z" transform="translate(-387.48 -257.873)"/>
                </g>
              </g>
            </g>
            <path id="Trazado_492160" data-name="Trazado 492160" d="M413.421,272.9a1.2,1.2,0,0,1,.857,1.352,1.153,1.153,0,0,1-1.334.861,1.265,1.265,0,0,1-.9-1.436,1.2,1.2,0,0,1,1.487-.742" transform="translate(-94.516 -18.715)" fill="#e0e0e0"/>
            <path id="Trazado_492161" data-name="Trazado 492161" d="M416.853,283.049l-.128-2.379-28.116,1.447s-1.3.6-1.13,1.514Z" transform="translate(-92.832 -19.252)" fill="#e0e0e0"/>
            <path id="Trazado_492162" data-name="Trazado 492162" d="M403.286,274.3c.007.143.726.194,1.441.642.726.428,1.1,1.042,1.233.983.132-.03-.1-.883-.974-1.41s-1.733-.346-1.7-.214" transform="translate(-93.918 -18.805)" fill="#263238"/>
            <path id="Trazado_492163" data-name="Trazado 492163" d="M400,275.739c-.03.14.6.372,1.1.969.517.582.653,1.236.8,1.227.135.02.218-.822-.417-1.553s-1.473-.78-1.474-.643" transform="translate(-93.693 -18.909)" fill="#263238"/>
            <path id="Trazado_492164" data-name="Trazado 492164" d="M398.117,279.559c.131.028.317-.693-.068-1.471s-1.061-1.078-1.119-.957c-.079.12.365.533.671,1.176s.374,1.241.516,1.252" transform="translate(-93.481 -19.007)" fill="#263238"/>
            <path id="Trazado_492165" data-name="Trazado 492165" d="M403.49,270.548c.062.129.717-.081,1.529-.043s1.449.282,1.521.158c.081-.105-.545-.624-1.5-.657s-1.62.429-1.547.541" transform="translate(-93.931 -18.52)" fill="#263238"/>
            <g id="Grupo_707341" data-name="Grupo 707341" transform="translate(309.175 243.358)" opacity="0.3">
              <g id="Grupo_707340" data-name="Grupo 707340">
                <g id="Grupo_707339" data-name="Grupo 707339" clip-path="url(#clip-path-10)">
                  <path id="Trazado_492166" data-name="Trazado 492166" d="M403.078,261.432l.146,2.695,14.435-.417-.03-2.43Z" transform="translate(-403.078 -261.279)"/>
                </g>
              </g>
            </g>
            <path id="Trazado_492167" data-name="Trazado 492167" d="M403.368,267.13a2.752,2.752,0,0,0,1.471-.036,6.61,6.61,0,0,0,1.53-.5,6.9,6.9,0,0,0,.835-.465,1.8,1.8,0,0,0,.438-.355.626.626,0,0,0,.05-.765.785.785,0,0,0-.635-.315,1.908,1.908,0,0,0-.55.087,5.2,5.2,0,0,0-2.247,1.249c-.669.645-.891,1.186-.841,1.213.065.046.388-.41,1.071-.944a5.882,5.882,0,0,1,1.3-.766,5.547,5.547,0,0,1,.84-.278c.309-.088.574-.1.657.042.03.052.034.073-.03.166a1.492,1.492,0,0,1-.321.259,7.746,7.746,0,0,1-.768.459,8.164,8.164,0,0,1-1.411.574,10.231,10.231,0,0,0-1.386.379" transform="translate(-93.923 -18.156)" fill="#263238"/>
            <path id="Trazado_492168" data-name="Trazado 492168" d="M403.426,267.185a2.343,2.343,0,0,0,.359-1.429,4.762,4.762,0,0,0-.231-1.607,4.878,4.878,0,0,0-.393-.886,1.218,1.218,0,0,0-.954-.724.688.688,0,0,0-.606.422,1.942,1.942,0,0,0-.139.543,3.248,3.248,0,0,0,.018.99,3.392,3.392,0,0,0,.658,1.508c.591.75,1.192.909,1.2.861.047-.074-.459-.34-.913-1.063a3.393,3.393,0,0,1-.493-1.374,3.1,3.1,0,0,1,.01-.85c.04-.313.153-.567.269-.537.146-.006.4.224.525.471a4.9,4.9,0,0,1,.379.791,5.241,5.241,0,0,1,.314,1.461c.058.862-.085,1.4-.006,1.422" transform="translate(-93.791 -18.008)" fill="#263238"/>
            <path id="Trazado_492169" data-name="Trazado 492169" d="M481.5,188.806s-3.21,16.46-8.541,16.694c-6.541.286-53.887.932-53.887.932l2.886,52.732-20.665-.5-8.258-51.96a19.9,19.9,0,0,1,2.2-13.64c.056-.1.112-.194.169-.291a19.847,19.847,0,0,1,16.908-9.527l39.327-.591Z" transform="translate(-93.189 -12.529)" fill="#263238"/>
            <path id="Trazado_492170" data-name="Trazado 492170" d="M410.459,258.2l.843,15.12s-15.085,5.935-15.2,8.744l29.374-.582-.347-23.612Z" transform="translate(-93.425 -17.688)" fill="#e8505b"/>
            <path id="Trazado_492171" data-name="Trazado 492171" d="M422.042,272.9a1.2,1.2,0,0,1,.857,1.352,1.153,1.153,0,0,1-1.334.861,1.265,1.265,0,0,1-.9-1.436,1.2,1.2,0,0,1,1.487-.742" transform="translate(-95.107 -18.715)" fill="#e0e0e0"/>
            <path id="Trazado_492172" data-name="Trazado 492172" d="M425.474,283.049l-.129-2.379-28.116,1.447s-1.3.6-1.131,1.514Z" transform="translate(-93.424 -19.252)" fill="#e0e0e0"/>
            <path id="Trazado_492173" data-name="Trazado 492173" d="M411.906,274.3c.007.143.726.194,1.441.642.726.428,1.1,1.042,1.233.983.132-.03-.1-.883-.973-1.41s-1.734-.346-1.7-.214" transform="translate(-94.509 -18.805)" fill="#263238"/>
            <path id="Trazado_492174" data-name="Trazado 492174" d="M408.626,275.739c-.03.14.6.372,1.1.969.516.582.652,1.236.8,1.227.135.02.218-.822-.417-1.553s-1.474-.78-1.474-.643" transform="translate(-94.284 -18.909)" fill="#263238"/>
            <path id="Trazado_492175" data-name="Trazado 492175" d="M406.737,279.559c.131.028.317-.693-.068-1.471s-1.061-1.078-1.119-.957c-.079.12.365.533.671,1.176s.374,1.241.516,1.252" transform="translate(-94.072 -19.007)" fill="#263238"/>
            <path id="Trazado_492176" data-name="Trazado 492176" d="M412.111,270.548c.062.129.717-.081,1.528-.043s1.449.282,1.521.158c.081-.105-.545-.624-1.5-.657s-1.62.429-1.547.541" transform="translate(-94.523 -18.52)" fill="#263238"/>
            <g id="Grupo_707344" data-name="Grupo 707344" transform="translate(317.204 243.358)" opacity="0.3">
              <g id="Grupo_707343" data-name="Grupo 707343">
                <g id="Grupo_707342" data-name="Grupo 707342" clip-path="url(#clip-path-11)">
                  <path id="Trazado_492177" data-name="Trazado 492177" d="M411.7,261.432l.146,2.695,14.435-.417-.03-2.43Z" transform="translate(-411.699 -261.279)"/>
                </g>
              </g>
            </g>
            <path id="Trazado_492178" data-name="Trazado 492178" d="M411.988,267.13a2.752,2.752,0,0,0,1.471-.036,6.61,6.61,0,0,0,1.53-.5,6.881,6.881,0,0,0,.835-.465,1.8,1.8,0,0,0,.438-.355.626.626,0,0,0,.05-.765.785.785,0,0,0-.635-.315,1.908,1.908,0,0,0-.55.087,5.2,5.2,0,0,0-2.247,1.249c-.669.645-.891,1.186-.841,1.213.065.046.388-.41,1.071-.944a5.881,5.881,0,0,1,1.3-.766,5.561,5.561,0,0,1,.839-.278c.31-.088.575-.1.658.042.03.052.034.073-.03.166a1.49,1.49,0,0,1-.321.259,7.742,7.742,0,0,1-.768.459,8.162,8.162,0,0,1-1.411.574,10.228,10.228,0,0,0-1.386.379" transform="translate(-94.515 -18.156)" fill="#263238"/>
            <path id="Trazado_492179" data-name="Trazado 492179" d="M412.046,267.185a2.338,2.338,0,0,0,.36-1.429,4.765,4.765,0,0,0-.232-1.607,4.813,4.813,0,0,0-.393-.886,1.215,1.215,0,0,0-.953-.724.687.687,0,0,0-.606.422,2.013,2.013,0,0,0-.141.543,3.305,3.305,0,0,0,.019.99,3.393,3.393,0,0,0,.659,1.508c.59.75,1.191.909,1.2.861.047-.074-.459-.34-.913-1.063a3.394,3.394,0,0,1-.493-1.374,3.031,3.031,0,0,1,.01-.85c.04-.313.152-.567.269-.537.146-.006.4.224.524.471a4.826,4.826,0,0,1,.38.791,5.274,5.274,0,0,1,.314,1.461c.058.862-.085,1.4-.007,1.422" transform="translate(-94.382 -18.008)" fill="#263238"/>
            <path id="Trazado_492180" data-name="Trazado 492180" d="M487.1,188.806s-3.21,16.46-8.541,16.694c-6.541.286-53.887.932-53.887.932l2.885,52.732-20.665-.5-8.258-51.96a19.9,19.9,0,0,1,2.2-13.64c.056-.1.112-.194.169-.291a19.847,19.847,0,0,1,16.908-9.527l39.327-.591Z" transform="translate(-93.573 -12.529)" fill="#263238"/>
            <path id="Trazado_492181" data-name="Trazado 492181" d="M450.383,117.775l6.188,41.428-4.216,18.61,38.319,11.28c3.46-4.949,3.6-20.686,3.474-31.815-.213-19.614.65-20.566-.195-27.446-.835-6.8-2.3-11.3-5.929-13.467l-10.4-5.347s-5.894,3.751-9.472,3.547c0,0-4.259.175-6.62-2.085,0,0-8.606,2.61-11.153,5.3" transform="translate(-97.148 -7.615)" fill="#455a64"/>
            <path id="Trazado_492182" data-name="Trazado 492182" d="M449.442,118.273l-12.773,17.6,17.391,10.208-1.329-6.4Z" transform="translate(-96.207 -8.112)" fill="#455a64"/>
            <path id="Trazado_492183" data-name="Trazado 492183" d="M416.375,183.567a.775.775,0,0,1-.221.034l-.646.05a9.816,9.816,0,0,0-1.044.122,12.767,12.767,0,0,0-1.408.265,18.383,18.383,0,0,0-7.972,4.227A21.019,21.019,0,0,0,401.1,193.1a16.387,16.387,0,0,0-2.245,6.767,32.67,32.67,0,0,0,.3,7.961c.376,2.753.916,5.6,1.215,8.555.66,5.874,1.548,11.441,2.379,16.5.854,5.046,1.623,9.594,2.273,13.431s1.138,6.924,1.445,9.072q.214,1.565.338,2.475c.03.26.054.472.075.646a.112.112,0,1,1-.049.007c-.033-.172-.073-.383-.122-.639q-.156-.9-.428-2.46l-1.6-9.043c-.678-3.832-1.483-8.375-2.376-13.416-.855-5.058-1.757-10.629-2.419-16.519-.3-2.937-.832-5.77-1.205-8.546a32.84,32.84,0,0,1-.273-8.074,16.732,16.732,0,0,1,2.343-6.922,21.153,21.153,0,0,1,4.1-4.885,18.15,18.15,0,0,1,8.157-4.153,12.19,12.19,0,0,1,3.36-.287" transform="translate(-93.574 -12.59)" fill="#455a64"/>
            <path id="Trazado_492184" data-name="Trazado 492184" d="M433.164,167.735s14.779,4.773,26.274,8.937a12.591,12.591,0,0,0,16.289-8.03l7.87-24.8-13.14-4.6-8.786,22.288-32.687-4.3" transform="translate(-95.68 -9.551)" fill="#ffbe9d"/>
            <path id="Trazado_492185" data-name="Trazado 492185" d="M412.474,163.847l-.123-1.172a4,4,0,0,1,2.138-3.185l3.873-2.017a3.025,3.025,0,0,1,1.9-.3l7.931,1.348,9.093,1.195-1.881,10.35-4.205-1.4s-3.051,1.69-4.927,1.287c0,0-1.743,1.161-2.457.312,0,0-1.563,1.34-2.144,1.251s-1.742-.759-1.7-1.16l.045-.536a1.9,1.9,0,0,1-1.921-.089,2.746,2.746,0,0,1-.893-1.206,3.614,3.614,0,0,1-1.965-.848,4.5,4.5,0,0,1-.714-1.786s-1.767-.833-2.055-2.046" transform="translate(-94.539 -10.778)" fill="#ffbe9d"/>
            <path id="Trazado_492186" data-name="Trazado 492186" d="M418.471,160.316c.056-.006.152.423-.043,1.08a5.609,5.609,0,0,1-1.4,2.178c-.7.715-1.345,1.3-1.748,1.788s-.612.82-.678.79.039-.434.4-.995a13.431,13.431,0,0,1,1.673-1.919,7.223,7.223,0,0,0,1.429-1.962c.255-.564.288-.964.364-.961" transform="translate(-94.693 -10.996)" fill="#eb996e"/>
            <path id="Trazado_492187" data-name="Trazado 492187" d="M420.175,164.76a5.161,5.161,0,0,1-1.033,2.335c-.77,1.191-1.616,1.983-1.712,1.9a39.536,39.536,0,0,1,2.745-4.23" transform="translate(-94.887 -11.301)" fill="#eb996e"/>
            <path id="Trazado_492188" data-name="Trazado 492188" d="M422.414,167.7c.113.074-.218.751-.738,1.513s-1.029,1.318-1.138,1.241.221-.755.738-1.514,1.026-1.313,1.138-1.24" transform="translate(-95.1 -11.502)" fill="#eb996e"/>
            <path id="Trazado_492189" data-name="Trazado 492189" d="M422.075,166.366c-.022.059-.2.065-.446-.082a1.339,1.339,0,0,1-.313-1.959c.184-.215.359-.265.4-.217.088.094-.3.566-.2,1.189s.612.951.558,1.068" transform="translate(-95.134 -11.255)" fill="#eb996e"/>
            <path id="Trazado_492190" data-name="Trazado 492190" d="M424.457,169.393c-.024.059-.175.073-.377-.041a1.134,1.134,0,0,1-.518-.716.861.861,0,0,1,.249-.9c.241-.16.428-.048.405.012a.739.739,0,0,0-.182.777c.105.475.472.749.423.87" transform="translate(-95.306 -11.499)" fill="#eb996e"/>
            <path id="Trazado_492191" data-name="Trazado 492191" d="M420.687,163.188c-.007.061-.2.11-.485-.02a1.2,1.2,0,0,1-.19-2.041c.253-.18.455-.168.473-.109.053.1-.523.476-.469,1.137s.7.92.671,1.032" transform="translate(-95.032 -11.042)" fill="#eb996e"/>
            <path id="Trazado_492192" data-name="Trazado 492192" d="M486.439,120.35c-3-1.306-6.7.011-8.866,2.267s-3.164,5.246-4.1,8.138c-.9,2.787-3.146,8.444-4.05,11.231l17.037,7.295q2.174-5.9,4.063-11.9c1.057-3.355,2.043-6.973.816-10.307" transform="translate(-98.454 -8.219)" fill="#455a64"/>
            <path id="Trazado_492193" data-name="Trazado 492193" d="M491.314,127.072a1.911,1.911,0,0,1,.176.411,7.253,7.253,0,0,1,.332,1.241,12.783,12.783,0,0,1-.121,4.768,53.481,53.481,0,0,1-2.059,7.02l-2.979,8.835-.078.232-.248-.106-11.992-5.119-5.051-2.166-.2-.087.065-.191c1.374-4.056,2.918-7.779,4.072-11.206a35.864,35.864,0,0,1,1.853-4.813,12.677,12.677,0,0,1,2.659-3.689,9,9,0,0,1,6.243-2.454,6.6,6.6,0,0,1,1.845.333,3.178,3.178,0,0,1,.587.264,8.186,8.186,0,0,0-2.433-.429,8.893,8.893,0,0,0-6,2.5,12.443,12.443,0,0,0-2.537,3.626,36.272,36.272,0,0,0-1.787,4.782c-1.133,3.456-2.661,7.19-4.016,11.222l-.138-.278,5.053,2.161,11.979,5.145-.325.126c1.1-3.187,2.127-6.147,3.045-8.8a57.221,57.221,0,0,0,2.157-6.961,13.344,13.344,0,0,0,.255-4.7c-.163-1.092-.393-1.661-.352-1.671" transform="translate(-98.431 -8.213)" fill="#263238"/>
            <path id="Trazado_492194" data-name="Trazado 492194" d="M465.718,171.256c-.061.013-.194-.971-.771-2.634a12.991,12.991,0,0,0-1.4-2.855,8.4,8.4,0,0,0-2.966-2.842l.049.014-18.457-2.4-11.127-1.5-4.852-.674-4.216-.673-1.838-.3a2.292,2.292,0,0,0-1.515.273l-2.394,1.157-1.522.713a2.658,2.658,0,0,1-.545.219,2.617,2.617,0,0,1,.5-.306l1.481-.794,2.357-1.23a2.573,2.573,0,0,1,1.683-.336l1.842.264,4.222.613,4.858.631,11.129,1.462,18.44,2.514.032,0,.018.009a8.547,8.547,0,0,1,3.065,3.02,12.6,12.6,0,0,1,1.349,2.949,13.618,13.618,0,0,1,.485,1.99,3.524,3.524,0,0,1,.089.71" transform="translate(-94.664 -10.773)" fill="#eb996e"/>
            <path id="Trazado_492195" data-name="Trazado 492195" d="M456.641,159.567a7.339,7.339,0,0,1-.256-1.34c-.152-.952-.348-2.184-.584-3.665-.526-3.177-1.226-7.407-2-12.083s-1.478-8.91-2.005-12.087c-.23-1.484-.422-2.717-.57-3.67a7.47,7.47,0,0,1-.146-1.356,7.3,7.3,0,0,1,.333,1.324c.187.946.43,2.172.722,3.645.585,3.082,1.354,7.347,2.146,12.067s1.447,9,1.859,12.112c.211,1.555.351,2.817.433,3.69a7.319,7.319,0,0,1,.068,1.363" transform="translate(-97.195 -8.599)" fill="#263238"/>
            <path id="Trazado_492196" data-name="Trazado 492196" d="M612.922,380.934" transform="translate(-76.944 -26.116)" fill="#263238"/>
          </g>
        </g>
      </g>
    </g>
  </g>
</svg>
