<svg xmlns="http://www.w3.org/2000/svg" xmlns:xlink="http://www.w3.org/1999/xlink" width="123.635" height="101" viewBox="0 0 123.635 101">
  <defs>
    <clipPath id="clip-path">
      <rect id="Rectángulo_253509" data-name="Rectángulo 253509" width="33.59" height="30.885" fill="none"/>
    </clipPath>
    <clipPath id="clip-path-2">
      <rect id="Rectángulo_253510" data-name="Rectángulo 253510" width="24.63" height="35.642" fill="none"/>
    </clipPath>
    <clipPath id="clip-path-3">
      <rect id="Rectángulo_253511" data-name="Rectángulo 253511" width="30.47" height="39.153" fill="none"/>
    </clipPath>
    <clipPath id="clip-path-4">
      <rect id="Rectángulo_253512" data-name="Rectángulo 253512" width="23.938" height="14.721" fill="none"/>
    </clipPath>
    <clipPath id="clip-path-5">
      <rect id="Rectángulo_253513" data-name="Rectángulo 253513" width="11.094" height="9.635" fill="none"/>
    </clipPath>
    <clipPath id="clip-path-6">
      <rect id="Rectángulo_253514" data-name="Rectángulo 253514" width="9.866" height="5.956" fill="none"/>
    </clipPath>
  </defs>
  <g id="Grupo_704671" data-name="Grupo 704671" transform="translate(-734 -2359)">
    <path id="Trazado_467431" data-name="Trazado 467431" d="M50.5,0A50.5,50.5,0,1,1,0,50.5,50.5,50.5,0,0,1,50.5,0Z" transform="translate(750 2359)" fill="#fff"/>
    <g id="Grupo_704658" data-name="Grupo 704658" transform="translate(731.725 2359)">
      <g id="Grupo_704668" data-name="Grupo 704668" transform="translate(2.275 0)">
        <g id="Grupo_685085" data-name="Grupo 685085">
          <g id="Grupo_704656" data-name="Grupo 704656" transform="translate(0 0)">
            <path id="Trazado_388860" data-name="Trazado 388860" d="M641.33,325.56a39.752,39.752,0,0,1-.638,7.113,39.5,39.5,0,0,1-74.969,8.874,38.837,38.837,0,0,1-2.011-5.679,39.77,39.77,0,0,1-.465-18.711c.006-.032.014-.061.02-.093a39.595,39.595,0,0,1,15.414-23.492q1.217-.884,2.506-1.674a39.278,39.278,0,0,1,20.655-5.829q1.507,0,2.984.112a39.224,39.224,0,0,1,19.558,6.951h0a39.645,39.645,0,0,1,10.832,11.311q.907,1.433,1.694,2.945a39.309,39.309,0,0,1,4.418,18.171" transform="translate(-534.882 -270.815)" fill="#dce8ff"/>
            <g id="Grupo_685068" data-name="Grupo 685068" transform="translate(28.365 21.082)" opacity="0.7">
              <g id="Grupo_685067" data-name="Grupo 685067">
                <g id="Grupo_685066" data-name="Grupo 685066" clip-path="url(#clip-path)">
                  <path id="Trazado_388861" data-name="Trazado 388861" d="M604.338,411.369c-1.576,2.5.658,6.829-4.07,5.647s-7.617-1.708-7.879.918,3.546,2.628,3.546,5.385-1.708,3.67-4.334,2.36-3.382-3.215-6.435-2.033-4.826.394-5.515-1.97a3.461,3.461,0,0,0-.49-1.034c.006-.032.014-.061.02-.093a39.6,39.6,0,0,1,15.414-23.492q1.217-.884,2.506-1.674a5.194,5.194,0,0,1,3.957,2.064c2.758,3.416,4.6,1.708,3.94,5.647s.394,4.466,2.626,4.334,4.86-.132,5.122,1.576-6.829-.132-8.405,2.364" transform="translate(-579.16 -395.384)" fill="#9fbdff"/>
                </g>
              </g>
            </g>
            <g id="Grupo_685071" data-name="Grupo 685071" transform="translate(49.603 53.131)" opacity="0.7">
              <g id="Grupo_685070" data-name="Grupo 685070">
                <g id="Grupo_685069" data-name="Grupo 685069" clip-path="url(#clip-path-2)">
                  <path id="Trazado_388862" data-name="Trazado 388862" d="M997.745,1004.019s-3.48,1.116-4.4-1.313.131-2.955-2.955-3.677-3.349-2.823-5.318-2.561-.985,1.051-3.283,2.758-4.4.919-4.333,4.071,3.48,3.644,4.169,5.712-.493,2.955.985,4.531,4.235.886,2.955,3.053-3.25,3.841-2.265,7.19.3,3.546,1.97,5.909,4.925,3.152,5.417,1.576-2.265-3.644-1.379-5.22,2.364-.492,2.955-2.856,2.988-2.364,3.184-4.005-2.889-4.137-1.707-5.187,3.546,1.9,5.384-.722.591-4.728,2.495-7.223-2.561-3.48-3.874-2.035" transform="translate(-977.455 -996.445)" fill="#9fbdff"/>
                </g>
              </g>
            </g>
            <g id="Grupo_685074" data-name="Grupo 685074" transform="translate(75.978 38.098)" opacity="0.7">
              <g id="Grupo_685073" data-name="Grupo 685073">
                <g id="Grupo_685072" data-name="Grupo 685072" clip-path="url(#clip-path-3)">
                  <path id="Trazado_388863" data-name="Trazado 388863" d="M1502.577,731.156a39.747,39.747,0,0,1-.638,7.113,39.272,39.272,0,0,1-6.233,15.15,4.508,4.508,0,0,1-3.157-.085c-4.924-1.97-1.28-7.288.689-9.948s-3.053-1.477-6.7-3.94.394-9.061-3.349-7.978-8.273,2.462-10.44-1.182,1.97-4.235.1-7.288,1.083-4.826,4.826-5.121,3.25-2.955,7.879-3.349,4.531,5.516,9.652,5.121,4.891.788,4.891.788a2.386,2.386,0,0,1,1.069.225,39.559,39.559,0,0,1,1.408,10.493" transform="translate(-1472.107 -714.51)" fill="#9fbdff"/>
                </g>
              </g>
            </g>
            <g id="Grupo_685077" data-name="Grupo 685077" transform="translate(78.093 22.316)" opacity="0.7">
              <g id="Grupo_685076" data-name="Grupo 685076">
                <g id="Grupo_685075" data-name="Grupo 685075" clip-path="url(#clip-path-4)">
                  <path id="Trazado_388864" data-name="Trazado 388864" d="M1535.7,432.785c-4.259,2.072-5.969-3.563-9.609-1.869-3.67,1.708-3.027-1.576-5.915-3.678s-8.667,1.708-8.405-1.576,4.6-2.364,5.516-4.99,5.121-1.97,5.121-1.97a2.846,2.846,0,0,1,.764-.173s0,0,0,0a39.638,39.638,0,0,1,10.832,11.311q.907,1.433,1.694,2.945" transform="translate(-1511.767 -418.529)" fill="#9fbdff"/>
                </g>
              </g>
            </g>
            <g id="Grupo_685080" data-name="Grupo 685080" transform="translate(55.75 20.713)" opacity="0.7">
              <g id="Grupo_685079" data-name="Grupo 685079">
                <g id="Grupo_685078" data-name="Grupo 685078" clip-path="url(#clip-path-5)">
                  <path id="Trazado_388865" data-name="Trazado 388865" d="M1103.136,392.988s2.233-3.221-1.313-4.171-3.48.294-6.238,0-3.841,1.84-1.773,4.171,3.743,6.8,5.614,4.42,1.51-4.19,3.71-4.42" transform="translate(-1092.735 -388.452)" fill="#9fbdff"/>
                </g>
              </g>
            </g>
            <path id="Trazado_388866" data-name="Trazado 388866" d="M409.592,464.943a13.467,13.467,0,0,0-7.87-.744s5.074-.347,8.083,2.874a10,10,0,0,1,5.583-3.967,9.356,9.356,0,0,0-5.8,1.836" transform="translate(-382.818 -438.399)" fill="#564c64"/>
            <path id="Trazado_388867" data-name="Trazado 388867" d="M259.832,443.678a10.415,10.415,0,0,0-6.083-.611s3.926-.245,6.239,2.259a7.734,7.734,0,0,1,4.336-3.043,7.236,7.236,0,0,0-4.491,1.394" transform="translate(-242.735 -418.688)" fill="#564c64"/>
            <path id="Trazado_388868" data-name="Trazado 388868" d="M108.979,420.936a9.483,9.483,0,0,0-5.557-.321s3.562-.374,5.762,1.815a7.041,7.041,0,0,1,3.826-2.934,6.588,6.588,0,0,0-4.031,1.441" transform="translate(-100.423 -397.124)" fill="#564c64"/>
            <path id="Trazado_388869" data-name="Trazado 388869" d="M50.944,378.49a6.422,6.422,0,0,0-3.767.134,5.325,5.325,0,0,1,4,.86,4.769,4.769,0,0,1,2.4-2.22,4.462,4.462,0,0,0-2.627,1.226" transform="translate(-47.177 -357.148)" fill="#564c64"/>
            <path id="Trazado_388870" data-name="Trazado 388870" d="M372.413,267.018a6.422,6.422,0,0,0-3.769-.063,5.325,5.325,0,0,1,3.949,1.068,4.768,4.768,0,0,1,2.508-2.092,4.463,4.463,0,0,0-2.688,1.087" transform="translate(-351.503 -251.751)" fill="#564c64"/>
            <path id="Trazado_388871" data-name="Trazado 388871" d="M499,374.5a9.356,9.356,0,0,0-5.457-.621s3.529-.173,5.577,2.1a6.947,6.947,0,0,1,3.931-2.681,6.5,6.5,0,0,0-4.05,1.2" transform="translate(-469.739 -353.381)" fill="#564c64"/>
            <path id="Trazado_388872" data-name="Trazado 388872" d="M444.2,304.444a8.65,8.65,0,0,0-5.063-.384s3.255-.283,5.226,1.749A6.423,6.423,0,0,1,447.9,303.2a6.01,6.01,0,0,0-3.7,1.248" transform="translate(-418.24 -287.023)" fill="#564c64"/>
            <path id="Trazado_388873" data-name="Trazado 388873" d="M307.995,882.849a4.534,4.534,0,0,1,4.435-2.588s4.54-4.853,9.381-.647c0,0,5.146-1.042,8.957.9a8.687,8.687,0,0,1,3.38,2.656Z" transform="translate(-294.088 -831.088)" fill="#ebf3fa"/>
            <path id="Trazado_388874" data-name="Trazado 388874" d="M640.011,817.019h.049a.81.81,0,0,0,.535-.208,3.562,3.562,0,0,1,4.818-.379.782.782,0,0,0,.6.159,8.18,8.18,0,0,1,4.714.594l.136.075a.788.788,0,0,1-.4,1.472l-10.429-.135a.789.789,0,0,1-.023-1.576" transform="translate(-607.686 -772.141)" fill="#ebf3fa"/>
            <path id="Trazado_388875" data-name="Trazado 388875" d="M1503.756,679.713c0,3.95,6.651,10.263,6.651,10.263s6.651-6.313,6.651-10.263a6.669,6.669,0,1,0-13.3,0m2.732-.419a3.919,3.919,0,1,1,3.919,3.919,3.926,3.926,0,0,1-3.919-3.919" transform="translate(-1426.091 -636.7)" fill="#f78e48"/>
            <path id="Trazado_388876" data-name="Trazado 388876" d="M1077.818,213.247c0,3.794,6.389,9.858,6.389,9.858s6.388-6.064,6.388-9.858a6.405,6.405,0,1,0-12.777,0m2.624-.4a3.764,3.764,0,1,1,3.764,3.764,3.771,3.771,0,0,1-3.764-3.764" transform="translate(-1022.864 -195.373)" fill="#f78e48"/>
            <path id="Trazado_388877" data-name="Trazado 388877" d="M1231.2,34.254a.179.179,0,0,1-.178-.163s-.029-.316-.088-.869a.179.179,0,1,1,.356-.038c.059.556.088.871.088.874a.179.179,0,0,1-.162.195h-.017m-.184-1.736a.179.179,0,0,1-.177-.159c-.03-.262-.063-.549-.1-.861a.179.179,0,1,1,.355-.043c.038.312.071.6.1.863a.179.179,0,0,1-.157.2h-.021m-.207-1.723a.179.179,0,0,1-.177-.156q-.052-.41-.111-.859a.179.179,0,1,1,.355-.047q.059.449.111.86a.179.179,0,0,1-.155.2h-.023m-.227-1.718a.179.179,0,0,1-.177-.155q-.057-.416-.12-.857a.179.179,0,0,1,.354-.051q.063.441.12.859a.179.179,0,0,1-.153.2l-.025,0m-.245-1.715a.179.179,0,0,1-.177-.153q-.062-.419-.13-.855a.179.179,0,1,1,.354-.055q.068.436.13.857a.179.179,0,0,1-.151.2l-.026,0m-.264-1.711a.179.179,0,0,1-.176-.151q-.068-.421-.139-.853a.179.179,0,1,1,.353-.059q.072.433.14.855a.179.179,0,0,1-.148.2l-.029,0m-.284-1.708a.179.179,0,0,1-.176-.149q-.073-.421-.15-.851a.179.179,0,0,1,.352-.063q.077.431.15.853a.179.179,0,0,1-.146.207l-.031,0m-.3-1.7a.179.179,0,0,1-.176-.146q-.078-.422-.16-.849a.179.179,0,1,1,.351-.068q.083.428.161.851a.179.179,0,0,1-.176.212m-.327-1.7a.179.179,0,0,1-.175-.144q-.084-.422-.172-.847a.179.179,0,1,1,.35-.073q.088.426.173.849a.179.179,0,0,1-.176.214m-.352-1.694a.179.179,0,0,1-.175-.141q-.09-.42-.185-.841a.179.179,0,0,1,.349-.078q.095.423.186.844a.179.179,0,0,1-.175.217m-.378-1.686a.179.179,0,0,1-.174-.138q-.1-.421-.2-.842a.179.179,0,0,1,.348-.084q.1.422.2.845a.179.179,0,0,1-.174.22m-.409-1.684a.179.179,0,0,1-.173-.135q-.107-.419-.217-.836a.179.179,0,1,1,.346-.092q.111.418.218.839a.179.179,0,0,1-.173.223m-.443-1.673a.179.179,0,0,1-.172-.131q-.115-.417-.235-.83a.179.179,0,1,1,.344-.1q.12.415.236.834a.179.179,0,0,1-.125.22.181.181,0,0,1-.048.007m-.483-1.662a.179.179,0,0,1-.171-.127c-.084-.276-.171-.553-.258-.823a.179.179,0,0,1,.341-.109c.087.272.174.55.259.828a.179.179,0,0,1-.172.231m-.528-1.647a.179.179,0,0,1-.17-.122c-.093-.274-.188-.548-.283-.814a.179.179,0,1,1,.337-.121c.1.268.192.544.286.82a.179.179,0,0,1-.169.236m-17.561-.576a.179.179,0,0,1-.167-.244q.093-.237.186-.466a.179.179,0,1,1,.331.134q-.092.228-.184.462a.179.179,0,0,1-.167.114m16.977-1.053a.179.179,0,0,1-.167-.115c-.1-.272-.21-.542-.315-.8a.179.179,0,1,1,.331-.135c.106.262.213.534.318.809a.179.179,0,0,1-.167.243m-16.46-.209a.179.179,0,0,1-.164-.25c.116-.27.234-.537.352-.793a.179.179,0,1,1,.325.149c-.116.254-.233.518-.348.785a.179.179,0,0,1-.165.108m15.808-1.394a.179.179,0,0,1-.164-.107c-.117-.269-.236-.532-.354-.783a.179.179,0,0,1,.324-.152c.12.254.24.521.359.793a.179.179,0,0,1-.093.235.177.177,0,0,1-.071.015m-15.088-.176a.179.179,0,0,1-.16-.258c.13-.265.263-.525.4-.774a.179.179,0,1,1,.316.168c-.13.245-.261.5-.39.764a.179.179,0,0,1-.161.1m14.35-1.389a.179.179,0,0,1-.159-.1c-.133-.26-.27-.514-.406-.756a.179.179,0,0,1,.312-.176c.138.246.277.5.412.768a.179.179,0,0,1-.159.261m-13.54-.136a.179.179,0,0,1-.155-.268c.148-.257.3-.508.45-.745a.179.179,0,0,1,.3.191c-.148.234-.3.48-.442.733a.179.179,0,0,1-.155.09m12.69-1.369a.179.179,0,0,1-.152-.084c-.156-.248-.315-.487-.473-.711a.179.179,0,1,1,.292-.207c.162.229.325.474.484.728a.179.179,0,0,1-.151.274m-11.765-.088a.179.179,0,0,1-.146-.282c.172-.245.348-.48.523-.7a.179.179,0,0,1,.28.223c-.17.214-.342.444-.51.683a.179.179,0,0,1-.146.076m10.762-1.318a.179.179,0,0,1-.138-.065c-.186-.226-.376-.438-.565-.63a.179.179,0,0,1,.255-.251c.2.2.394.419.586.654a.179.179,0,0,1-.138.293m-9.686-.031a.179.179,0,0,1-.132-.3c.2-.222.411-.431.619-.623a.179.179,0,0,1,.242.263c-.2.185-.4.387-.6.6a.178.178,0,0,1-.132.058m1.271-1.164a.179.179,0,0,1-.107-.322,7.249,7.249,0,0,1,.739-.486.179.179,0,1,1,.177.311,6.86,6.86,0,0,0-.7.462.178.178,0,0,1-.107.036m7.2-.026a.179.179,0,0,1-.112-.04,5.7,5.7,0,0,0-.682-.475.179.179,0,0,1,.182-.308,6.037,6.037,0,0,1,.725.5.179.179,0,0,1-.112.318m-5.706-.824a.179.179,0,0,1-.066-.345,5.756,5.756,0,0,1,.85-.263.179.179,0,1,1,.079.349,5.406,5.406,0,0,0-.8.247.18.18,0,0,1-.066.013m4.229-.034a.179.179,0,0,1-.061-.011,3.96,3.96,0,0,0-.4-.123c-.137-.034-.273-.064-.405-.09a.179.179,0,0,1,.069-.351c.137.027.279.059.422.094a4.317,4.317,0,0,1,.439.134.179.179,0,0,1-.061.347m-1.689-.339h-.014a5.906,5.906,0,0,0-.838-.005.179.179,0,0,1-.023-.357,6.254,6.254,0,0,1,.888.006.179.179,0,0,1-.013.357" transform="translate(-1146.888 0.004)" fill="#f78e48"/>
            <path id="Trazado_388879" data-name="Trazado 388879" d="M1916.169,807.484l-5.133,17.783-.162-.02-17.538-2.131s8.123-1.689,8.967-2.664c.8-.919,9.229-11.816,11.7-12.981a.831.831,0,0,1,.384-.1Z" transform="translate(-1794.898 -764.323)" fill="#739af0"/>
            <path id="Trazado_388880" data-name="Trazado 388880" d="M1910.874,827.033l-17.538-2.13s8.123-1.69,8.967-2.664c.8-.919,9.229-11.816,11.7-12.981-2.184,3.172-7.247,10.795-7.032,13.011.2,2.111,2.674,3.964,3.906,4.765" transform="translate(-1794.898 -766.107)" fill="#2b478b"/>
            <path id="Trazado_388881" data-name="Trazado 388881" d="M847.547,1032.212c-.6.2-2.387.769-4.843,1.483-7.058,2.053-19.612,5.349-25.153,4.942-4.97-.365-31.254-2.372-49.434-3.966,4.4-7.726,9.884-11.994,14.9-14.334,21.182,1.736,48.883,4.081,52.408,4.762,5.8,1.121,13.49,2.032,13.49,2.032s.052.235.1.608c.163,1.212.3,3.863-1.473,4.474" transform="translate(-729.677 -965.932)" fill="#e58638"/>
            <path id="Trazado_388882" data-name="Trazado 388882" d="M338.34,992.51c0,.043,0,.089,0,.134a3.673,3.673,0,0,1-.893,2.659c-.023.022-.047.042-.071.063-.049.039-.1.078-.152.112h0l-.082.051c-.027.015-.055.032-.084.047h0c-.028.015-.057.029-.088.043s-.061.028-.093.041-.064.024-.1.036l-.029.009h0l-.031.01-.032.01h0l-.034.01h0a.191.191,0,0,0-.036.011l-.037.011h0l-.038.013-.041.013h0l-.042.014-.043.014-.093.031h0l-.047.015h0l-.05.015-.037.011-.442.141-.092.028c-.424.134-.939.293-1.532.471l-.186.056-.317.1-.07.021-.1.031-.1.029-.1.031-.1.031-.1.031-.106.032-.106.031a0,0,0,0,0,0,0l-.107.031-.078.024a.141.141,0,0,0-.031.009l-.109.031q-.275.082-.563.164c-.11.033-.222.065-.335.1l-.293.084-.223.065-.9.255-.185.052-.322.091-.294.083-.33.092c-3.669,1.018-8.115,2.16-12.239,2.989l-.433.087-.214.042-.429.082c-.427.082-.85.159-1.267.232l-.414.071-.205.034-.408.068-.4.063-.4.06c-.131.02-.264.04-.392.057l-.387.054-.382.05-.189.023c-.25.031-.5.059-.738.084l-.181.018-.356.034c-.234.02-.464.04-.688.054-.168.013-.334.022-.5.029-.108.006-.215.01-.321.014-.158.006-.313.01-.464.011-.2,0-.4,0-.587,0-.1,0-.189-.005-.28-.009-.046,0-.091,0-.136-.006-.09,0-.178-.009-.265-.015l-.1-.008h-.023l-.064-.005-.259-.019-.074-.005-.093-.008-.146-.01-.08-.006-.082-.006-.17-.013-.176-.013-.092-.006L305.2,1002l-.111-.009-.239-.018c-.034,0-.069,0-.1-.008l-.308-.023-.931-.07-.122-.01-.25-.018-.385-.029-.159-.013-.376-.028-.139-.01-.264-.02-.291-.023-.155-.011-.145-.011-.234-.018-1.412-.107c-.071-.007-.141-.011-.214-.017l-.329-.026-.78-.06-.061-.005-.7-.053-.033,0-4.5-.349-.242-.019-.977-.075-.622-.05-.034,0-.717-.056-.089-.006-1.282-.1-.333-.027-.1-.008-1.143-.09-.5-.04-.335-.026-.682-.055-1.028-.082-.092-.006c-.143-.013-.284-.023-.426-.034l-.031,0-1.275-.1-.036,0-.132-.01-.756-.06c-.19-.015-.381-.029-.572-.046l-.355-.028c-.5-.038-.993-.079-1.492-.119h-.013l-2.495-.2-.343-.028h-.024l-1.1-.089-.339-.028-.948-.076-1.928-.158-1.218-.1-.763-.064-1.817-.149-.087-.008-1.135-.094-1.609-.135-.641-.053-.195-.017-1.287-.108-.189-.015-.875-.075q-1.848-.157-3.625-.311l-.427-.037-.259-.022c-.116-.011-.231-.02-.347-.031l-.685-.06c-4.407-.386-8.34-.749-11.375-1.058-.31-.031-.61-.061-.9-.092-.721-.075-1.381-.147-1.975-.215-1.682-.19-2.827-.349-3.282-.464a33.984,33.984,0,0,1-9.062-3.94c-1.514-1.021-2.45-2.064-2.1-2.924a4.534,4.534,0,0,1,2.389-2.241c.855-.423,1.729-.713,2.3-1.045l.1-.057a1.981,1.981,0,0,0,.278-.206l.041-.038a14.361,14.361,0,0,1,1.12-.939,13.582,13.582,0,0,1,1.281-.851l.008-.005c2.2-1.286,5.87-2.647,11.467-2.243,0,0,10.953.865,24.617,1.985h0l4.158.342h0l1.413.116,2.139.177h0l3.6.3.725.06,1.449.121,2.9.245,1.445.121c1.72.145,3.43.291,5.117.436h.008c4.871.418,9.544.826,13.687,1.2h0l.653.059c2.432.222,4.671.431,6.645.622.944.093,1.829.181,2.644.264,2.953.3,5.014.543,5.818.7,2.088.4,4.423.781,6.553,1.1.176.027.35.052.523.076a.2.2,0,0,0,.027,0c.264.039.524.076.78.113l.023,0,.866.122,1.18.162.473.064c1.84.245,3.064.39,3.064.39s.008.033.019.094l0,.015c0,.017.006.034.01.055.006.04.015.085.023.138.012.069.024.148.036.237a0,0,0,0,0,0,0c0,.022.006.045.009.068.01.074.02.153.029.238.006.059.013.121.019.183,0,.034.006.07.009.106s.006.079.009.119c0,.057.008.116.012.176,0,.024,0,.048,0,.073,0,.042,0,.085.005.127,0,.023,0,.045,0,.066,0,.043,0,.088,0,.131,0,.022,0,.045,0,.068" transform="translate(-218.906 -929.417)" fill="#d7e2ff"/>
            <path id="Trazado_388883" data-name="Trazado 388883" d="M1302.3,1063.067c0,.043,0,.089,0,.134a3.673,3.673,0,0,1-.893,2.659c-.023.022-.047.042-.071.062a1.855,1.855,0,0,1-.152.112h0l-.082.051c-.027.015-.055.032-.084.047h0c-.028.015-.057.029-.088.043s-.061.028-.093.041-.064.024-.1.036l-.029.009h0l-.031.01-.032.01h0l-.035.01h0a.19.19,0,0,0-.036.012l-.037.011h0l-.038.013-.041.013h0l-.042.014-.043.014-.093.031h0l-.047.015h0l-.05.015-.037.011q-.2.065-.442.141l-.092.028c-.424.134-.939.293-1.532.471l-.186.056-.317.1-.07.021-.1.031-.1.029-.1.031-.1.031-.1.031-.106.032-.106.031s0,0,0,0l-.107.031-.078.024a.147.147,0,0,0-.031.009l-.109.031c-.184.055-.371.109-.563.164l-.335.1-.293.084-.223.065-.9.255-.185.052-.322.09-.295.083-.33.092c-3.668,1.018-8.115,2.16-12.239,2.989l-.433.087-.214.042-.429.082c-.427.081-.85.159-1.267.232l-.414.071-.205.034-.408.068-.4.062-.4.06c-.131.02-.264.039-.392.057l-.387.054-.382.05-.189.023c-.25.031-.5.059-.738.084l-.181.018-.355.034c-.234.02-.464.04-.688.054-.168.013-.334.022-.5.029-.108.006-.215.01-.321.014-.158.006-.313.01-.464.011-.2,0-.4,0-.587,0-.1,0-.188-.005-.28-.009-.046,0-.091,0-.136-.006-.091,0-.178-.009-.265-.015l-.1-.008h-.023l-.064-.005-.259-.019-.074-.005-.093-.008-.147-.01-.08-.006-.082-.006-.17-.013-.176-.013-.092-.006-.231-.018-.111-.009-.239-.018c-.034,0-.069,0-.1-.008l-.308-.023-.932-.07-.122-.01-.25-.018-.385-.029-.159-.013-.376-.028-.139-.01-.264-.02-.29-.023-.156-.011-.145-.011-.234-.018-1.412-.107-.214-.017-.329-.026-.78-.06-.061-.005-.7-.053-.033,0-4.5-.349-.242-.019-.977-.075-.622-.05-.035,0-.717-.056-.089-.006-1.282-.1-.333-.027-.1-.008-1.143-.091-.5-.04-.335-.025-.682-.055-1.028-.082-.092-.006c-.143-.013-.284-.023-.426-.034l-.031,0-1.275-.1-.036,0-.132-.01a27.272,27.272,0,0,0,12.332-14.531h.008c4.871.418,9.544.826,13.688,1.2h0l.652.059c2.433.222,4.671.431,6.645.622.944.093,1.829.181,2.644.264,2.953.3,5.014.543,5.818.7,2.089.4,4.423.781,6.553,1.1.176.027.351.052.523.076a.2.2,0,0,0,.027,0c.264.039.524.076.78.113l.023,0,.866.122,1.18.162.473.064c1.84.245,3.064.39,3.064.39s.008.033.019.094l0,.015c0,.017.006.034.01.055.006.04.015.085.023.138.011.069.024.148.036.237a0,0,0,0,0,0,0c0,.022.006.045.009.068.01.074.02.153.029.238.006.059.013.121.019.183,0,.034.006.07.009.106s.006.079.009.119q.006.086.011.176c0,.024,0,.048,0,.073,0,.042,0,.085.005.127,0,.023,0,.045,0,.066,0,.043,0,.088,0,.131,0,.022,0,.045,0,.068" transform="translate(-1182.862 -999.974)" fill="#f99746"/>
            <g id="Grupo_685083" data-name="Grupo 685083" transform="translate(109.568 61.807)" opacity="0.5">
              <g id="Grupo_685082" data-name="Grupo 685082">
                <g id="Grupo_685081" data-name="Grupo 685081" clip-path="url(#clip-path-6)">
                  <path id="Trazado_388884" data-name="Trazado 388884" d="M2110.37,1163.625c-.6.206-2.388.769-4.842,1.483a7.816,7.816,0,0,0-3.461-4.864l9.776-1.093c.163,1.211.3,3.864-1.474,4.473" transform="translate(-2102.067 -1159.152)" fill="#e27727"/>
                </g>
              </g>
            </g>
            <path id="Trazado_388885" data-name="Trazado 388885" d="M1268.033,1122.766h0a.62.62,0,0,1-.522-.7l.062-.689a.626.626,0,0,1,.64-.6.62.62,0,0,1,.521.7l-.062.689a.626.626,0,0,1-.64.6" transform="translate(-1202.44 -1061.014)" fill="#2b478b"/>
            <path id="Trazado_388886" data-name="Trazado 388886" d="M1211.87,1117.916h0a.62.62,0,0,1-.522-.7l.062-.689a.587.587,0,1,1,1.161.1l-.063.689a.626.626,0,0,1-.639.6" transform="translate(-1149.272 -1056.422)" fill="#2b478b"/>
            <path id="Trazado_388887" data-name="Trazado 388887" d="M1155.706,1113.066h0a.619.619,0,0,1-.521-.7l.062-.689a.586.586,0,1,1,1.161.1l-.062.689a.626.626,0,0,1-.64.6" transform="translate(-1096.102 -1051.831)" fill="#2b478b"/>
            <path id="Trazado_388888" data-name="Trazado 388888" d="M1099.541,1108.217h0a.62.62,0,0,1-.521-.7l.062-.689a.626.626,0,0,1,.639-.6.62.62,0,0,1,.522.7l-.062.689a.626.626,0,0,1-.639.6" transform="translate(-1042.932 -1047.24)" fill="#2b478b"/>
            <path id="Trazado_388889" data-name="Trazado 388889" d="M1043.376,1103.367h0a.62.62,0,0,1-.522-.7l.062-.689a.626.626,0,0,1,.64-.6.62.62,0,0,1,.521.7l-.062.689a.626.626,0,0,1-.639.6" transform="translate(-989.762 -1042.649)" fill="#2b478b"/>
            <path id="Trazado_388890" data-name="Trazado 388890" d="M987.212,1098.516h0a.62.62,0,0,1-.522-.7l.063-.689a.626.626,0,0,1,.639-.6.62.62,0,0,1,.522.7l-.062.689a.626.626,0,0,1-.639.6" transform="translate(-936.592 -1038.057)" fill="#2b478b"/>
            <path id="Trazado_388891" data-name="Trazado 388891" d="M931.047,1093.667h0a.62.62,0,0,1-.522-.7l.062-.689a.626.626,0,0,1,.639-.6.619.619,0,0,1,.522.7l-.062.689a.626.626,0,0,1-.64.6" transform="translate(-883.422 -1033.466)" fill="#2b478b"/>
            <path id="Trazado_388892" data-name="Trazado 388892" d="M874.884,1088.816h0a.62.62,0,0,1-.522-.7l.062-.689a.626.626,0,0,1,.639-.6.62.62,0,0,1,.522.7l-.062.689a.626.626,0,0,1-.639.6" transform="translate(-830.254 -1028.874)" fill="#2b478b"/>
            <path id="Trazado_388893" data-name="Trazado 388893" d="M818.719,1083.967h0a.62.62,0,0,1-.522-.7l.062-.689a.626.626,0,0,1,.639-.6.62.62,0,0,1,.522.7l-.062.689a.626.626,0,0,1-.639.6" transform="translate(-777.084 -1024.283)" fill="#2b478b"/>
            <path id="Trazado_388894" data-name="Trazado 388894" d="M763.675,1079.213h0a.62.62,0,0,1-.522-.7l.062-.689a.587.587,0,1,1,1.161.1l-.062.689a.626.626,0,0,1-.639.6" transform="translate(-724.975 -1019.783)" fill="#2b478b"/>
            <path id="Trazado_388895" data-name="Trazado 388895" d="M707.51,1074.363h0a.62.62,0,0,1-.522-.7l.062-.689a.626.626,0,0,1,.639-.6.62.62,0,0,1,.522.7l-.062.689a.626.626,0,0,1-.639.6" transform="translate(-671.804 -1015.191)" fill="#2b478b"/>
            <path id="Trazado_388896" data-name="Trazado 388896" d="M651.346,1069.514h0a.62.62,0,0,1-.522-.7l.062-.689a.587.587,0,1,1,1.161.1l-.062.689a.626.626,0,0,1-.64.6" transform="translate(-618.635 -1010.601)" fill="#2b478b"/>
            <path id="Trazado_388897" data-name="Trazado 388897" d="M581.768,1062.851h0a.62.62,0,0,1-.522-.7l.062-.689a.626.626,0,0,1,.639-.6.62.62,0,0,1,.522.7l-.062.689a.626.626,0,0,1-.64.6" transform="translate(-552.767 -1004.294)" fill="#2b478b"/>
            <path id="Trazado_388898" data-name="Trazado 388898" d="M1880.836,1182.232h0a.62.62,0,0,1-.522-.7l.063-.689a.626.626,0,0,1,.639-.6.62.62,0,0,1,.521.7l-.062.689a.626.626,0,0,1-.639.6" transform="translate(-1782.568 -1117.309)" fill="#2b478b"/>
            <path id="Trazado_388899" data-name="Trazado 388899" d="M1824.672,1177.382h0a.619.619,0,0,1-.521-.7l.062-.689a.626.626,0,0,1,.64-.6.62.62,0,0,1,.521.7l-.062.689a.626.626,0,0,1-.639.6" transform="translate(-1729.399 -1112.717)" fill="#2b478b"/>
            <path id="Trazado_388900" data-name="Trazado 388900" d="M1768.507,1172.532h0a.62.62,0,0,1-.522-.7l.062-.689a.626.626,0,0,1,.64-.6.62.62,0,0,1,.521.7l-.062.689a.626.626,0,0,1-.639.6" transform="translate(-1676.229 -1108.126)" fill="#2b478b"/>
            <path id="Trazado_388901" data-name="Trazado 388901" d="M322.971,1025.222l-2.042,1.926-1.218.079a1.96,1.96,0,0,0,.278-.207l.041-.038a14.234,14.234,0,0,1,1.12-.939,13.719,13.719,0,0,1,1.281-.851l.008,0Z" transform="translate(-305.179 -970.524)" fill="#2b478b"/>
            <path id="Trazado_388902" data-name="Trazado 388902" d="M353.8,1027.147l-1.994,1.945,2.263.48.715-2.22Z" transform="translate(-335.568 -972.379)" fill="#2b478b"/>
            <path id="Trazado_388903" data-name="Trazado 388903" d="M402.321,1032.288l-.526,2.085,1.677-.477.108-1.453Z" transform="translate(-382.887 -977.246)" fill="#2b478b"/>
            <path id="Trazado_388904" data-name="Trazado 388904" d="M1108.082,1262.18a1.642,1.642,0,0,0,.382-2.532,4.981,4.981,0,0,0-2.843-1.4c-2.3-.167-1.368,4.522-.6,4.618a9.269,9.269,0,0,0,3.065-.689" transform="translate(-1047.807 -1191.156)" fill="#2b478b"/>
            <path id="Trazado_388905" data-name="Trazado 388905" d="M2095.45,1126.146c.092-.125,8.663-2.95,14.265-1.721l-5.4,3.4-8.673-.746a.575.575,0,0,1-.2-.93" transform="translate(-1986.079 -1064.177)" fill="#355daf"/>
            <path id="Trazado_388906" data-name="Trazado 388906" d="M1115.372,791.252s-5.737,12.679-6.829,14.6a9.58,9.58,0,0,1-3.479,3.153l-.014.005-15.2,6.176s-18.96-1.5-23.087-1.951h0c-.374-.042-.627-.075-.731-.1-1.254-.267-1.84-.849-1.6-1.306s29.392-3.953,32.619-4.313l.092-.01c3.141-.37,3.434-1.44,3.434-1.44l12.027-13.784a1.647,1.647,0,0,1,.7-.591,5.637,5.637,0,0,1,2.072-.445" transform="translate(-1010.14 -749.062)" fill="#d7e2ff"/>
            <path id="Trazado_388907" data-name="Trazado 388907" d="M1113.3,799.606c-3.236,3.928-12.189,14.762-13.039,15.5-.914.793-27.072,5-33.5,6.042h0c-.374-.042-.627-.075-.731-.1-1.254-.267-1.84-.849-1.6-1.306s29.392-3.953,32.619-4.313,3.526-1.45,3.526-1.45L1112.6,800.2a1.647,1.647,0,0,1,.7-.591" transform="translate(-1010.14 -756.971)" fill="#739af0"/>
            <path id="Trazado_388908" data-name="Trazado 388908" d="M1697.089,791.252s-5.737,12.679-6.829,14.6a9.58,9.58,0,0,1-3.479,3.153l-.014.005a25.284,25.284,0,0,1-7.907-1.5c3.141-.37,3.434-1.44,3.434-1.44l12.027-13.784a1.646,1.646,0,0,1,.7-.591,5.638,5.638,0,0,1,2.072-.445" transform="translate(-1591.857 -749.062)" fill="#d7e2ff"/>
            <path id="Trazado_388909" data-name="Trazado 388909" d="M921.058,1208.019l-.577,6.4a17.417,17.417,0,0,1-6.265.676,13.585,13.585,0,0,1-4.755-1.016,5,5,0,0,1-.8-.427l.6-6.7a2.2,2.2,0,0,1,.88-.41c3.021-.775,10.448,1.228,10.448,1.228Z" transform="translate(-862.723 -1142.032)" fill="#e9f0ff"/>
            <path id="Trazado_388910" data-name="Trazado 388910" d="M910.142,1209.7l-.68,7.54a5.024,5.024,0,0,1-.8-.427l.6-6.7a2.2,2.2,0,0,1,.88-.409" transform="translate(-862.723 -1145.194)" fill="#ff9843"/>
          </g>
        </g>
      </g>
    </g>
  </g>
</svg>
