<svg xmlns="http://www.w3.org/2000/svg" width="158" height="158" viewBox="0 0 158 158">
  <g id="Grupo_704902" data-name="Grupo 704902" transform="translate(-180 -1798.76)">
    <circle id="Elipse_4925" data-name="Elipse 4925" cx="79" cy="79" r="79" transform="translate(180 1798.76)" fill="#aab4f2"/>
    <path id="Trazado_451668" data-name="Trazado 451668" d="M18.45,83.853h3.872l.442,5.2H18.853Zm7.667,0h5.737l.22,5.2H26.558Zm9.522,0h5.735v5.2H35.857Zm9.518,0h5.737l-.218,5.2H45.157Zm9.52,0h5.738l-.442,5.2H54.46Zm9.532,0h3.877l-.406,5.2H63.771ZM16.791,71.269h4.468l.44,5.2H17.224Zm8.262,0h6.274l.22,5.2H25.495Zm10.063,0h6.258v5.2H35.332Zm10.041,0h6.26l-.215,5.2H45.157Zm10.047,0h6.274l-.438,5.2H54.986Zm10.072,0h4.466l-.433,5.2H64.834ZM15.136,58.689h5.057l.442,5.2H15.6Zm8.854,0H30.8l.218,5.2H24.428Zm10.6,0h6.785v5.2H34.807Zm10.568,0h6.787l-.218,5.2H45.157Zm10.574,0h6.812l-.44,5.2h-6.59Zm10.607,0H71.4l-.456,5.2H65.9ZM13.48,46.1h5.65l.44,5.2H13.965Zm9.445,0h7.351l.218,5.2h-7.13Zm11.136,0h7.312v5.2H34.28Zm11.1,0h7.312l-.216,5.2h-7.1Zm11.1,0h7.353l-.44,5.2H56.04Zm11.147,0h5.652l-.488,5.2h-5.6ZM11.826,33.522h6.241l.44,5.2H12.336Zm10.034,0h7.891l.216,5.2H22.3Zm11.674,0h7.839v5.2H33.753Zm11.622,0H53l-.218,5.2H45.157Zm11.624,0H64.67l-.44,5.2H56.565Zm11.685,0H74.71l-.513,5.2h-6.17ZM10.167,20.94H17l.44,5.2H10.709Zm10.632,0h8.425l.216,5.2h-8.2Zm12.213,0h8.361v5.2H33.226Zm12.144,0h8.365l-.216,5.2H45.157Zm12.149,0h8.428l-.44,5.2h-8.2Zm12.222,0h6.835l-.538,5.2H69.092ZM8.512,8.356H15.94l.438,5.2H9.08Zm11.223,0H28.7l.218,5.2H20.173Zm12.751,0h8.888v5.2H32.7Zm12.671,0h8.892l-.216,5.2H45.157Zm12.678,0H66.8l-.438,5.2H57.617Zm12.76,0h7.424l-.566,5.2h-7.3ZM0,0V5.992H4.406L16.076,96.07H70.455L82.125,5.992h4.406V0Z" transform="translate(216.234 1829.76)" fill="#fff"/>
  </g>
</svg>
