<svg xmlns="http://www.w3.org/2000/svg" xmlns:xlink="http://www.w3.org/1999/xlink" width="190" height="84" viewBox="0 0 190 84">
  <defs>
    <clipPath id="clip-path">
      <rect id="Rect치ngulo_262683" data-name="Rect치ngulo 262683" width="70.629" height="68.276" fill="#5263e2"/>
    </clipPath>
  </defs>
  <g id="Grupo_704893" data-name="Grupo 704893" transform="translate(-180 -1467)">
    <g id="Grupo_704271" data-name="Grupo 704271" transform="translate(239 1475.603)">
      <g id="Grupo_704271-2" data-name="Grupo 704271" transform="translate(0 0)" clip-path="url(#clip-path)">
        <path id="Trazado_464968" data-name="Trazado 464968" d="M20.773,35.463H34.688V48.117c-3.285-.054-5.919-1.492-8.553-3.251l-1.6,1.568a13.131,13.131,0,0,0,5.206,3.108,30.864,30.864,0,0,0,4.1.964c.62.119.955.359.95,1,0,.367.005.732.005,1.1V68.276h2.211c.029-.619.079-1.18.081-1.743q.008-6.839,0-13.684c0-.368-.012-.736.005-1.1.056-1.064.121-1.113,1.174-1.251a17.636,17.636,0,0,0,7.95-3.122c.335-.234.627-.533,1.21-1.04-.6-.45-1.127-.851-1.8-1.364-2.483,1.5-5.066,3.094-8.2,3.157-.4-1.1-.52-10.252-.185-12.508a104.528,104.528,0,0,1,13.829-.069,16,16,0,0,1-3.595,7.489c.59.514,1.128.98,1.763,1.533a17.563,17.563,0,0,0,4.307-9.149H70.629v-2.48h-16.8c-.323-5.009-1.848-9.327-5.548-12.877-.524.607-.956,1.109-1.487,1.721,2.7,3.156,4.578,6.626,4.478,11.005H37.2V17.558c2.846-.011,5.162,1.292,7.594,2.562l1.4-1.675c-2.639-2.256-5.792-2.909-9.094-3.509V0H34.863V14.881c-3.324.665-6.56,1.279-9.244,3.518.453.582.859,1.107,1.353,1.743,2.386-1.288,4.788-2.528,7.542-2.632.348,1.242.436,13.1.148,15.131-1.109.326-12.021.405-13.989.081-.336-4.3,1.658-7.709,4.343-10.919-.461-.563-.85-1.04-1.223-1.5-2.735,1.115-5.137,6.372-5.706,12.515a41.19,41.19,0,0,1-4.454.083c-1.518.021-3.04.005-4.558.005H0v2.427c6.023.111,12.072-.018,18.194.071a18.708,18.708,0,0,0,4.341,9.151c.576-.489,1.106-.942,1.719-1.462-1.641-2.375-3.129-4.7-3.481-7.629" transform="translate(0 0)" fill="#5263e2"/>
      </g>
    </g>
    <rect id="Rect치ngulo_263018" data-name="Rect치ngulo 263018" width="190" height="84" transform="translate(180 1467)" fill="none"/>
  </g>
</svg>
