<svg xmlns="http://www.w3.org/2000/svg" xmlns:xlink="http://www.w3.org/1999/xlink" width="190" height="84" viewBox="0 0 190 84">
  <defs>
    <clipPath id="clip-path">
      <rect id="Rect치ngulo_262667" data-name="Rect치ngulo 262667" width="62.523" height="67.28" fill="#5263e2"/>
    </clipPath>
  </defs>
  <g id="Grupo_704893" data-name="Grupo 704893" transform="translate(-180 -1199)">
    <g id="Grupo_704253" data-name="Grupo 704253" transform="translate(243 1210.359)">
      <g id="Grupo_704254" data-name="Grupo 704254" transform="translate(0 0)" clip-path="url(#clip-path)">
        <path id="Trazado_464911" data-name="Trazado 464911" d="M22.416,87.554V73.63h-10.6a104.644,104.644,0,0,0-.043,13.924Z" transform="translate(-3.184 -20.274)" fill="#5263e2"/>
        <path id="Trazado_464912" data-name="Trazado 464912" d="M52.36,27.716a6.6,6.6,0,0,0-13.2.038,6.658,6.658,0,0,0,6.578,6.617,6.544,6.544,0,0,0,6.62-6.655" transform="translate(-10.783 -5.833)" fill="#5263e2"/>
        <path id="Trazado_464913" data-name="Trazado 464913" d="M26.19,71.872c.206-.433.351-.735.531-1.111-1.191-.622-2.322-1.237-3.471-1.812-2.812-1.4-5.639-2.779-8.444-4.2a1.519,1.519,0,0,0-1.456-.112C9.2,66.527,5.032,68.392.872,70.271c-.271.122-.522.29-.872.486L.471,71.9c1.971-.885,3.85-1.731,5.731-2.573,2.32-1.038,4.651-2.049,6.954-3.121a1.748,1.748,0,0,1,1.7.027c3.382,1.71,6.779,3.388,10.172,5.078.346.172.7.337,1.167.565" transform="translate(0 -17.76)" fill="#5263e2"/>
        <path id="Trazado_464914" data-name="Trazado 464914" d="M59.912,42.994c.825,1.215,17.9,15.8,18.894,16.221.222-.636-.329-.838-.643-1.111-1.5-1.305-3.021-2.578-4.532-3.867q-5.912-5.044-11.823-10.085a3.67,3.67,0,0,0-1.9-1.158" transform="translate(-16.497 -11.838)" fill="#5263e2"/>
        <path id="Trazado_464915" data-name="Trazado 464915" d="M6.921,37.455c.219.209.288.323.337.314q9.016-1.687,18.026-3.4c.092-.017.157-.17.414-.466a26.2,26.2,0,0,0-4.793.672c-1.58.2-3.13.619-4.695.926-1.522.3-3.058.528-4.57.875-1.53.351-3.159.3-4.72,1.079" transform="translate(-1.906 -9.333)" fill="#5263e2"/>
        <path id="Trazado_464916" data-name="Trazado 464916" d="M63.326,22.791c.116.031.249.119.341.084Q71.6,20,79.532,17.092c.093-.034.145-.181.4-.518a5.921,5.921,0,0,0-1.078.131c-2.87,1.028-5.733,2.075-8.6,3.116-1.937.705-3.878,1.4-5.812,2.117-.419.153-.814.37-1.22.557l.1.3" transform="translate(-17.409 -4.564)" fill="#5263e2"/>
        <path id="Trazado_464917" data-name="Trazado 464917" d="M79.739,37.734c-.965-.8-15.272-3.833-16.5-3.683.25.211.393.434.578.473q7.628,1.622,15.263,3.2a3.235,3.235,0,0,0,.66.006" transform="translate(-17.413 -9.374)" fill="#5263e2"/>
        <path id="Trazado_464918" data-name="Trazado 464918" d="M14.015,13.59c.054.143.067.354.172.419,4.355,2.741,8.749,5.415,13.258,8.118.16-.714-.232-.87-.541-1.057q-3.915-2.4-7.836-4.784c-1.325-.809-2.647-1.621-3.976-2.423-.286-.172-.593-.307-.891-.457l-.186.184" transform="translate(-3.859 -3.691)" fill="#5263e2"/>
        <path id="Trazado_464919" data-name="Trazado 464919" d="M28.517,53.2c1.107-.525,7.789-9.123,8.052-10.246A9.711,9.711,0,0,0,34.3,45.438c-.706.812-1.329,1.7-1.994,2.541-.692.88-1.411,1.738-2.082,2.636A10.85,10.85,0,0,0,28.517,53.2" transform="translate(-7.852 -11.828)" fill="#5263e2"/>
        <path id="Trazado_464920" data-name="Trazado 464920" d="M48.254,51.278c.114-.2.254-.325.254-.457q.01-3.675-.02-7.354c0-.072-.176-.144-.28-.223a28.294,28.294,0,0,0,.046,8.034" transform="translate(-13.201 -11.907)" fill="#5263e2"/>
        <path id="Trazado_464921" data-name="Trazado 464921" d="M37.684,15.123c0-.336.067-.56-.01-.638-1.512-1.493-3.091-2.91-4.884-4.4.153,1.036,2.191,3.054,4.894,5.038" transform="translate(-9.029 -2.777)" fill="#5263e2"/>
        <path id="Trazado_464922" data-name="Trazado 464922" d="M48.3,0a26.055,26.055,0,0,0-.172,7.517c.42-.427.42-.427.42-2.308,0-.862.033-1.728-.009-2.588A6.311,6.311,0,0,0,48.3,0" transform="translate(-13.199 0)" fill="#5263e2"/>
        <path id="Trazado_464923" data-name="Trazado 464923" d="M61.624,10.933c-.967-.068-3.477,2.27-4.759,4.107.24.014.491.1.574.021,1.408-1.362,2.794-2.746,4.186-4.128" transform="translate(-15.658 -3.01)" fill="#5263e2"/>
      </g>
    </g>
    <rect id="Rect치ngulo_263018" data-name="Rect치ngulo 263018" width="190" height="84" transform="translate(180 1199)" fill="none"/>
  </g>
</svg>
