<svg xmlns="http://www.w3.org/2000/svg" xmlns:xlink="http://www.w3.org/1999/xlink" width="190" height="84" viewBox="0 0 190 84">
  <defs>
    <clipPath id="clip-path">
      <rect id="Rect치ngulo_262656" data-name="Rect치ngulo 262656" width="39.744" height="65.325" fill="#5263e2"/>
    </clipPath>
  </defs>
  <g id="Grupo_704893" data-name="Grupo 704893" transform="translate(-180 -1042)">
    <g id="Grupo_704244" data-name="Grupo 704244" transform="translate(254 1048.102)">
      <g id="Grupo_704243" data-name="Grupo 704243" transform="translate(0 0)" clip-path="url(#clip-path)">
        <path id="Trazado_464884" data-name="Trazado 464884" d="M29.963,49.688c-1.7,1.939-3.325,3.691-4,6.094a7.8,7.8,0,0,1-2.184,3.636,6.407,6.407,0,0,1-9.324-.924A7.242,7.242,0,0,1,16.49,47.821a3.789,3.789,0,0,0,1.99-2.868q.39-2.118.778-4.236c.09-.492.185-.981.293-1.548,1.667-.348,3.274-.681,4.88-1.02a1.284,1.284,0,0,1,1.224.5q2.457,2.465,4.924,4.923,2.651,2.635,5.318,5.25a7.45,7.45,0,0,0,.683.522l3.163-3.1c-3.093-3.084-6.1-6.077-9.219-9.186,2.27-.993,4.637-.992,6.94-1.793l-.918-4.238c-.8.127-1.543.217-2.271.368-2.273.471-4.551.93-6.806,1.472a1.618,1.618,0,0,1-1.7-.514c-1.278-1.292-2.538-2.6-3.843-3.863a1.646,1.646,0,0,1-.521-1.582c.342-2.3.553-4.62.974-6.9.5-2.706-.723-4.55-2.717-6.089a7.464,7.464,0,0,0-4.541-1.324c-.634-.017-1.268.011-1.9,0A4.053,4.053,0,0,1,8.992,8.508,4.207,4.207,0,0,1,13.307,4.44c1.392.017,2.782.17,4.168.276,3.372.254,6.738.622,10.113.738a4.037,4.037,0,0,1,3.767,4.594,4.839,4.839,0,0,1-.484,1.693,3.4,3.4,0,0,1-3.455,2.082,2.392,2.392,0,0,0-2.119.568,2.181,2.181,0,0,0,1.163,3.652A7.228,7.228,0,0,0,33.2,15.96,9.017,9.017,0,0,0,32.478,2.7a7.661,7.661,0,0,0-4.063-1.611C23.657.721,18.9.392,14.139.03a8.72,8.72,0,0,0-9.32,6.4,8.7,8.7,0,0,0,3.214,9,9.015,9.015,0,0,0,5.98,1.645,9.469,9.469,0,0,1,1.9.01,2.137,2.137,0,0,1,2,2.639c-.164,1.282-.326,2.568-.515,4.063l-1.609-1.3-3.111,3.142c.947.975,1.761,1.942,2.71,2.751a2.417,2.417,0,0,1,.95,2.754,16.907,16.907,0,0,0-.47,3.257,1.19,1.19,0,0,1-1.145,1.237c-2.856.565-5.707,1.159-8.558,1.754-1.817.379-3.631.779-5.444,1.177A5.933,5.933,0,0,0,0,38.831c.254,1.373.5,2.719.772,4.161,2.505-.1,4.743-.915,7.045-1.346,2.268-.425,4.522-.93,7-1.444-.372,1.839-.13,3.565-1.8,4.871A10.812,10.812,0,0,0,8.844,55.49,10.559,10.559,0,0,0,14.749,64.1a10.134,10.134,0,0,0,10.392-.437,10.615,10.615,0,0,0,4.729-6.2,6.3,6.3,0,0,0,.348-1.732c.028-1.817-.019-3.634-.046-5.452a2.827,2.827,0,0,0-.208-.588" transform="translate(0 0)" fill="#5263e2"/>
      </g>
    </g>
    <rect id="Rect치ngulo_263018" data-name="Rect치ngulo 263018" width="190" height="84" transform="translate(180 1042)" fill="none"/>
  </g>
</svg>
