<svg xmlns="http://www.w3.org/2000/svg" xmlns:xlink="http://www.w3.org/1999/xlink" width="190" height="84" viewBox="0 0 190 84">
  <defs>
    <clipPath id="clip-path">
      <rect id="Rect치ngulo_262671" data-name="Rect치ngulo 262671" width="67.596" height="68.029" fill="#5263e2"/>
    </clipPath>
  </defs>
  <g id="Grupo_704893" data-name="Grupo 704893" transform="translate(-180 -1288)">
    <g id="Grupo_704257" data-name="Grupo 704257" transform="translate(240 1297.986)">
      <g id="Grupo_704258" data-name="Grupo 704258" transform="translate(0 0)" clip-path="url(#clip-path)">
        <path id="Trazado_464936" data-name="Trazado 464936" d="M54.706,82.411H69.575c.331-1.032.451-17.381.161-19.778-.98-.338-13.424-.422-15.013-.1-.282,1.066-.323,18.351-.017,19.879" transform="translate(-12.574 -14.382)" fill="#5263e2"/>
        <path id="Trazado_464937" data-name="Trazado 464937" d="M45.143,37.059a8.885,8.885,0,0,0,2.369-3.636,17.829,17.829,0,0,0,1.264-6.954c-.078-2.322-.225-4.642-.354-6.963a4,4,0,0,0-.143-.665c-1.1.007-9.629,3.474-10.86,4.422,1.8,2.488.9,4.606-1.154,6.659,2.955,2.482,5.9,4.824,8.879,7.136" transform="translate(-8.368 -4.347)" fill="#5263e2"/>
        <path id="Trazado_464938" data-name="Trazado 464938" d="M4.506,39.485c2.942-2.786,5.719-5.42,8.568-8.12-.908-1.006-2.114-1.765-2.115-3.146a28.7,28.7,0,0,1,.486-3.754,7.776,7.776,0,0,0-.954-.438C7.7,23.111,4.9,22.212,2.109,21.31c-.088-.028-.183-.032-.275-.054-.974-.225-.986-.218-1.29.7a11.631,11.631,0,0,0-.508,4.5,29.775,29.775,0,0,0,4.47,13.021" transform="translate(0 -4.876)" fill="#5263e2"/>
        <path id="Trazado_464939" data-name="Trazado 464939" d="M20.139,12.21c2.9-1.943,3.8-1.929,6.93.038l5.458-10A8.226,8.226,0,0,0,28.739.4a21.013,21.013,0,0,0-6.556-.28,32.145,32.145,0,0,0-7.1,1.529,7.183,7.183,0,0,0-.98.476c2.032,3.391,4.011,6.7,6.041,10.083" transform="translate(-3.253 0)" fill="#5263e2"/>
        <path id="Trazado_464940" data-name="Trazado 464940" d="M24.552,30.135a5.622,5.622,0,0,0-.188-11.243,5.463,5.463,0,0,0-5.369,5.716,5.465,5.465,0,0,0,5.557,5.526" transform="translate(-4.383 -4.359)" fill="#5263e2"/>
        <path id="Trazado_464941" data-name="Trazado 464941" d="M76.121,60.389a4.982,4.982,0,0,0,.324-.5,5.508,5.508,0,0,0,.2-.615c-.975-.521-1.91-1.037-2.862-1.523-4.63-2.359-9.274-4.695-13.891-7.081a2.122,2.122,0,0,0-2.093-.048c-5.809,2.7-11.637,5.356-17.46,8.023-.171.078-.336.165-.511.23-.527.193-.778.51-.5,1.087.251.528.632.452,1.058.258,1.36-.618,2.729-1.22,4.088-1.842,4.463-2.044,8.93-4.077,13.375-6.161a1.951,1.951,0,0,1,1.952.012c3.9,2.032,7.834,4.006,11.757,6,1.251.635,2.5,1.272,3.76,1.9a5.976,5.976,0,0,0,.808.264" transform="translate(-9.047 -11.623)" fill="#5263e2"/>
      </g>
    </g>
    <rect id="Rect치ngulo_263018" data-name="Rect치ngulo 263018" width="190" height="84" transform="translate(180 1288)" fill="none"/>
  </g>
</svg>
