<svg xmlns="http://www.w3.org/2000/svg" xmlns:xlink="http://www.w3.org/1999/xlink" width="190" height="84" viewBox="0 0 190 84">
  <defs>
    <clipPath id="clip-path">
      <rect id="Rect치ngulo_262675" data-name="Rect치ngulo 262675" width="59.82" height="67.234" fill="#5263e2"/>
    </clipPath>
  </defs>
  <g id="Grupo_704893" data-name="Grupo 704893" transform="translate(-180 -1387)">
    <g id="Grupo_704261" data-name="Grupo 704261" transform="translate(244 1395.383)">
      <g id="Grupo_704262" data-name="Grupo 704262" transform="translate(0 0)" clip-path="url(#clip-path)">
        <path id="Trazado_464951" data-name="Trazado 464951" d="M31.411,42.124c1.669.344,3.092.439,3.993,1.916a1.707,1.707,0,0,0,2.964-.128,3.162,3.162,0,0,1,1.87-1.48,9.748,9.748,0,0,1,6.595-.158,2.724,2.724,0,0,1,1.317.888,1.774,1.774,0,0,0,3.067-.152,4.247,4.247,0,0,1,2.826-1.516c1.087-.265,2.2-.531,3.26.358.654.551,1.559.211,2.145-.565a1.655,1.655,0,0,0-.241-2.345,5.563,5.563,0,0,1-1.543-1.879,30.59,30.59,0,0,0-16.069-13.13,26.921,26.921,0,0,0-8.72-1.681c-1.2-.017-1.286-.095-1.389-1.338-.072-.867-.052-1.743-.135-2.609-.112-1.128-.78-1.692-1.706-1.475a1.448,1.448,0,0,0-1.112,1.4c-.082.775-.077,1.557-.139,2.334-.043.538-.137,1.076-.2,1.573-1.989.413-3.885.731-5.738,1.207A34.674,34.674,0,0,0,6.53,32.394a32.684,32.684,0,0,0-4.666,5.751,3.743,3.743,0,0,1-.964.938,1.616,1.616,0,0,0-.737,2.1,1.789,1.789,0,0,0,2.36.786c2.015-1.319,3.768-.17,5.571.478.293.106.466.534.7.807a1.832,1.832,0,0,0,2.69.171c1.393-1.576,3.278-1.492,5.061-1.536a11.931,11.931,0,0,1,3.341.686,2.381,2.381,0,0,1,1.533,1.259,1.725,1.725,0,0,0,2.876.343c.941-1.506,2.43-1.613,3.964-2.046a4.847,4.847,0,0,1,.207.94c.012,4.588.258,9.2-.08,13.759-.221,2.973-.191,5.931-.29,8.895A4.667,4.667,0,0,0,30.577,70.3a5.4,5.4,0,0,0,5.87-.1A4.164,4.164,0,0,0,38.3,66.282,1.584,1.584,0,0,0,36.86,64.71,1.76,1.76,0,0,0,34.681,65.9c-.054.171-.035.365-.082.541a1.334,1.334,0,0,1-1.452,1.172,1.366,1.366,0,0,1-1.25-1.4c-.053-.548-.036-1.1-.053-1.651-.144-4.705-.308-9.411-.422-14.118-.055-2.246-.01-4.5-.01-6.744Z" transform="translate(0 -3.878)" fill="#5263e2"/>
        <path id="Trazado_464952" data-name="Trazado 464952" d="M63.617,4.153a1.919,1.919,0,0,0-1.759,1.253,9.9,9.9,0,0,1-1.541,2.057c-.449.494-.944.9-.541,1.644a1.623,1.623,0,0,0,1.862.824A5.992,5.992,0,0,0,63.7,8.648,9.834,9.834,0,0,0,65.279,6.28c.657-1.3.11-2.094-1.662-2.126" transform="translate(-13.776 -0.959)" fill="#5263e2"/>
        <path id="Trazado_464953" data-name="Trazado 464953" d="M55.5,15.788c.036-.894-.2-1.373-.738-1.641a1.143,1.143,0,0,0-1.375.305c-1.007.985-2.03,1.957-2.982,3a1.838,1.838,0,0,0-.479,1.231,2.24,2.24,0,0,0,.614,1.407,1.077,1.077,0,0,0,1.484-.2c.974-.954,1.969-1.889,2.88-2.9a4.17,4.17,0,0,0,.6-1.194" transform="translate(-11.533 -3.241)" fill="#5263e2"/>
        <path id="Trazado_464954" data-name="Trazado 464954" d="M47.131,8.944a5.353,5.353,0,0,0,.8,1.107c.473.4.954.046,1.374-.231a1.642,1.642,0,0,0,.461-.5c.654-1.043,1.314-2.086,1.936-3.151.59-1.01.519-1.968-.125-2.349-.674-.4-1.508-.1-2.173.889-.64.946-1.226,1.929-1.794,2.919a8.64,8.64,0,0,0-.476,1.314" transform="translate(-10.888 -0.843)" fill="#5263e2"/>
        <path id="Trazado_464955" data-name="Trazado 464955" d="M38.357,5.5c.162.236.345.77.714.977A1.084,1.084,0,0,0,40.535,6.1,42.066,42.066,0,0,0,43.12,1.919a1.248,1.248,0,0,0-1.887-1.6,14.017,14.017,0,0,0-2.744,4.236,4.961,4.961,0,0,0-.132.938" transform="translate(-8.861 0)" fill="#5263e2"/>
        <path id="Trazado_464956" data-name="Trazado 464956" d="M34.824,12.586c-.19-.251-.377-.717-.71-.889a1.231,1.231,0,0,0-1.608.364c-.835,1.193-1.6,2.438-2.368,3.678a1.681,1.681,0,0,0-.174.8c-.023.551-.042,1.123.605,1.39a1.272,1.272,0,0,0,1.6-.4c.857-1.233,1.636-2.524,2.408-3.813a4.266,4.266,0,0,0,.242-1.121" transform="translate(-6.921 -2.667)" fill="#5263e2"/>
      </g>
    </g>
    <rect id="Rect치ngulo_263018" data-name="Rect치ngulo 263018" width="190" height="84" transform="translate(180 1387)" fill="none"/>
  </g>
</svg>
