<svg xmlns="http://www.w3.org/2000/svg" xmlns:xlink="http://www.w3.org/1999/xlink" width="190" height="84" viewBox="0 0 190 84">
  <defs>
    <clipPath id="clip-path">
      <rect id="Rect치ngulo_262689" data-name="Rect치ngulo 262689" width="40.684" height="75.939" fill="#5263e2"/>
    </clipPath>
  </defs>
  <g id="Grupo_704893" data-name="Grupo 704893" transform="translate(-180 -1643)">
    <g id="Grupo_704276" data-name="Grupo 704276" transform="translate(254 1657.179)">
      <g id="Grupo_704277" data-name="Grupo 704277" transform="translate(0 -9.178)" clip-path="url(#clip-path)">
        <path id="Trazado_464998" data-name="Trazado 464998" d="M39.075,16.495a7.828,7.828,0,0,0-.522-.623c-.316-.3-.648-.587-1.147-1.033C32.119,20.2,26.977,25.648,21.676,31.14,16.394,25.658,11.223,20.284,5.936,14.8c-.62.585-1.118,1.057-1.762,1.662,5.269,5.5,10.466,10.915,15.776,16.455C14.656,38.437,9.456,43.862,4.114,49.437c.611.53,1.1.956,1.782,1.543,1.891-1.675,3.5-3.6,5.243-5.394,1.725-1.777,3.438-3.563,5.162-5.342,1.75-1.807,3.507-3.612,5.378-5.536C26.959,40.191,32.131,45.562,37.553,51.2c.511-.719.919-1.293,1.429-2.008-.96-1.014-1.993-2.13-3.053-3.225q-5.781-6-11.578-11.987c-.94-.972-.943-1.114.051-2.142q7.04-7.3,14.089-14.606c.183-.191.335-.417.584-.732" transform="translate(0.515 1.852)" fill="#5263e2"/>
        <path id="Trazado_464999" data-name="Trazado 464999" d="M30.57,56.2a7.253,7.253,0,0,0-7.36-7.281,7.2,7.2,0,0,0-7.364,7.253,7.287,7.287,0,0,0,7.422,7.38,7.388,7.388,0,0,0,7.3-7.352" transform="translate(1.983 6.123)" fill="#5263e2"/>
        <path id="Trazado_465000" data-name="Trazado 465000" d="M40.655,67.536V65.353c-1.248-.343-37.693-.465-40.319-.132C.3,65.968.264,66.751.23,67.5c1.514.389,38.882.4,40.425.038" transform="translate(0.029 8.138)" fill="#5263e2"/>
        <path id="Trazado_465001" data-name="Trazado 465001" d="M37.151,1.8c-.668-.747-1.1-1.231-1.613-1.8-.586.513-1.017.843-1.4,1.224q-6.53,6.532-13.034,13.085a2.1,2.1,0,0,0-.662,1.231c-.054,3.242-.03,6.482-.03,9.854h2.26c.032-.636.083-1.223.087-1.813.011-2.035.081-4.076-.027-6.106a3.2,3.2,0,0,1,1.148-2.584c3-2.987,5.979-5.989,8.986-8.97,1.36-1.347,2.76-2.652,4.283-4.116" transform="translate(2.554 0)" fill="#5263e2"/>
        <path id="Trazado_465002" data-name="Trazado 465002" d="M18.512,40.707l-1.953-.574a8.756,8.756,0,0,0-.53,1.25c-1.026,4.1-2.068,8.2-3.022,12.318a2.612,2.612,0,0,1-2.061,2.2c-3.278.906-6.526,1.916-9.786,2.9-.4.123-.786.316-1.1.443-.041.2-.071.255-.06.3.531,1.808.362,2.034,2.424,1.4,3.721-1.158,7.46-2.249,11.194-3.354a1.374,1.374,0,0,0,1.117-1.049c1.23-5.013,2.489-10.016,3.731-15.025a5,5,0,0,0,.044-.8" transform="translate(0 5.023)" fill="#5263e2"/>
      </g>
    </g>
    <rect id="Rect치ngulo_263018" data-name="Rect치ngulo 263018" width="190" height="84" transform="translate(180 1643)" fill="none"/>
  </g>
</svg>
