<svg xmlns="http://www.w3.org/2000/svg" xmlns:xlink="http://www.w3.org/1999/xlink" width="190" height="87.674" viewBox="0 0 190 87.674">
  <defs>
    <clipPath id="clip-path">
      <rect id="Rect치ngulo_262672" data-name="Rect치ngulo 262672" width="33.805" height="87.674" fill="#5263e2"/>
    </clipPath>
  </defs>
  <g id="Grupo_704893" data-name="Grupo 704893" transform="translate(-816 -1291.663)">
    <g id="Grupo_704259" data-name="Grupo 704259" transform="translate(899 1291.663)">
      <g id="Grupo_704259-2" data-name="Grupo 704259" clip-path="url(#clip-path)">
        <path id="Trazado_464942" data-name="Trazado 464942" d="M31.443,49.611c-2.006.4-27.473.338-28.878-.039-.349-1.949-.282-22.325.1-23.805H31.443ZM.262,52.046H33.654V23.761c-1.414-.418-31.12-.525-33.25-.146-.426,1.27-.58,25.486-.142,28.43" transform="translate(0 6.078)" fill="#5263e2"/>
        <path id="Trazado_464943" data-name="Trazado 464943" d="M33.461,46.985H.141V75.1c1.468.407,31.324.493,33.305.129.416-1.455.44-26.578.015-28.245" transform="translate(0.037 12.213)" fill="#5263e2"/>
        <path id="Trazado_464944" data-name="Trazado 464944" d="M16.5,12.442c-2.544-1.91-9.554-8.964-9.938-9.93H26.652c-3.55,3.471-6.82,6.67-10.153,9.93M27.1,26.218c-2.593.457-19.857.364-21.337-.111,3.545-3.46,7.007-6.841,10.585-10.333C19.922,19.243,23.4,22.618,27.1,26.218M2.482,26.086c-.059-.551-.131-.9-.131-1.249q.049-11,.118-21.992c0-.039.077-.083.126-.111a2.4,2.4,0,0,1,.287-.1c3.876,3.771,7.794,7.582,11.84,11.516-4.12,4.015-8.106,7.9-12.24,11.938m28.947-23.5V26.344c-.741.112-1.362.449-1.688-.569-.134-.425-.622-.746-.973-1.092q-4.623-4.524-9.255-9.05c-.467-.46-.893-.963-1.361-1.47,1.162-1.165,2.2-2.212,3.244-3.249q3.742-3.706,7.5-7.4c.649-.64,1.269-1.412,2.535-.921M.318.287C-.087,1.924-.062,26.99.383,28.58h33.4c.006-9.473.006-18.816,0-28.1C32.338-.055,2.356-.178.318.287" transform="translate(0.008 0)" fill="#5263e2"/>
        <path id="Trazado_464945" data-name="Trazado 464945" d="M21.118,39.308c.055-1.024.115-1.61.118-2.2q.017-4.343,0-8.691c-.005-.979.35-1.382,1.428-.932V43.335c-.556-.5-.935-.777-1.24-1.123-2.725-3.094-5.432-6.205-8.153-9.3-.418-.475-.718-1.134-1.7-1.206V43.2H10.24V27.567l.316-.175c3.426,3.864,6.853,7.733,10.562,11.916m9.843,9.811V25.274H2.184c-.383,1.482-.45,21.857-.1,23.806,1.4.377,26.872.441,28.878.039" transform="translate(0.482 6.57)" fill="#5263e2"/>
        <path id="Trazado_464946" data-name="Trazado 464946" d="M19.387,38.89c-3.708-4.183-7.135-8.052-10.562-11.916l-.316.175V42.778H9.842V31.285c.984.072,1.284.731,1.7,1.206,2.723,3.1,5.429,6.209,8.153,9.3.3.345.684.622,1.24,1.123V27.068c-1.077-.45-1.431-.047-1.426.932q.017,4.347,0,8.691c0,.588-.063,1.176-.12,2.2" transform="translate(2.212 6.988)" fill="#5263e2"/>
      </g>
    </g>
    <rect id="Rect치ngulo_263018" data-name="Rect치ngulo 263018" width="190" height="84" transform="translate(816 1293)" fill="none"/>
  </g>
</svg>
