<svg xmlns="http://www.w3.org/2000/svg" xmlns:xlink="http://www.w3.org/1999/xlink" width="190" height="84" viewBox="0 0 190 84">
  <defs>
    <clipPath id="clip-path">
      <rect id="Rect치ngulo_262703" data-name="Rect치ngulo 262703" width="106.594" height="72.332" fill="#7181f4"/>
    </clipPath>
  </defs>
  <g id="Grupo_704893" data-name="Grupo 704893" transform="translate(-816 -1548)">
    <g id="Grupo_704281" data-name="Grupo 704281" transform="translate(863 1554.834)">
      <g id="Grupo_704280" data-name="Grupo 704280" transform="translate(0 0)" clip-path="url(#clip-path)">
        <path id="Trazado_465019" data-name="Trazado 465019" d="M37.427,38.058a13.893,13.893,0,0,1-.276-1.73q.207-15.5.455-31a5.115,5.115,0,0,1,.445-2.3A2.089,2.089,0,0,1,39.657,2.1a2.106,2.106,0,0,1,1.51,1.085,6,6,0,0,1,.215,2.337c-.049,8.351-.25,16.708-.108,25.055.057,3.168-1.421,5.154-3.847,7.485m27.3-25.846c-1.961-.1-3.925-.236-5.886-.295-1.333-.037-2.083.793-2.837,1.837-3.136,4.343-6.359,8.621-9.581,12.9a9.764,9.764,0,0,1-3.073,2.784c-.053-.911-.156-1.819-.152-2.727.03-7.067.085-14.129.128-21.194a15.24,15.24,0,0,0-.065-2.382A3.49,3.49,0,0,0,39.834.016a3.317,3.317,0,0,0-3.8,2.6,13.638,13.638,0,0,0-.35,3.246c-.173,10.839-.35,21.679-.447,32.52A8.307,8.307,0,0,1,33.5,43.857c-3.868,4.908-7.56,9.963-11.235,15.017a3.706,3.706,0,0,1-3.557,1.646c-1.234-.077-2.471-.014-3.707-.014-.087.238-.173.478-.258.715.417.366.811,1,1.262,1.045a18.081,18.081,0,0,0,4.752.065,4.617,4.617,0,0,0,2.534-1.717c3.3-4.219,6.477-8.532,9.713-12.8.469-.624,1.01-1.191,1.8-2.114a17.543,17.543,0,0,1,.337,2.23c.02,2.886-.026,5.772-.006,8.66a6.249,6.249,0,0,1-1.575,4.559c-3.5,4.026-1.376,8.508,1.927,10.357a7.2,7.2,0,0,0,8.688-1.583,6.055,6.055,0,0,0,.226-8.361,6.235,6.235,0,0,1-1.559-4.91c.148-6.66.258-13.324.262-19.99a7.091,7.091,0,0,1,1.39-4.433c3.994-5.321,8.087-10.56,11.987-15.942a4.622,4.622,0,0,1,4.752-2.2,8.126,8.126,0,0,0,2.673-.059c.48-.1.86-.681,1.286-1.045-.156-.256-.307-.512-.459-.768" transform="translate(15.219 0)" fill="#7181f4"/>
        <path id="Trazado_465020" data-name="Trazado 465020" d="M46.671,11.1c-.793-2.036-1.88-2.624-3.959-2.14-1.823.427-2.957,2.264-2.862,4.638a3.872,3.872,0,0,0,3.234,4.028c1.766.289,3.075-.65,3.752-2.669a20.2,20.2,0,0,1-3.313,1.707c-.445.144-1.264-.447-1.734-.9-1.075-1.024-1.126-3.768-.2-4.943,1.144-1.449,2.065-1.4,5.079.274" transform="translate(41.135 9.082)" fill="#7181f4"/>
        <path id="Trazado_465021" data-name="Trazado 465021" d="M11.5,27.885c-3.138,1.776-3.851,1.856-4.977.539a4.526,4.526,0,0,1-.238-4.481c1.671-2.673,3.445-.787,5.422.246C10.3,21.837,9.111,21.294,7.3,21.9c-2.018.673-2.792,2.043-2.664,4.725A3.648,3.648,0,0,0,7.53,30.229c1.888.4,2.994-.25,3.967-2.343" transform="translate(4.774 22.372)" fill="#7181f4"/>
        <path id="Trazado_465022" data-name="Trazado 465022" d="M50.268,14.683c-.043-.841-.1-1.858-.087-2.614h-.028c-.205.709-.459,1.463-.762,2.3l-1.069,2.937h-.593l-.98-2.884c-.287-.852-.53-1.638-.7-2.353h-.018c-.018.756-.063,1.772-.118,2.677l-.161,2.6H45l.421-6.061h1l1.032,2.933c.252.744.459,1.41.612,2.038H48.1c.152-.61.366-1.276.636-2.038l1.079-2.933h1l.376,6.061h-.762Z" transform="translate(46.461 11.651)" fill="#7181f4"/>
        <path id="Trazado_465023" data-name="Trazado 465023" d="M51.112,14.309c-.862-.018-1.841.136-1.841.98a.7.7,0,0,0,.746.754,1.086,1.086,0,0,0,1.053-.728.95.95,0,0,0,.043-.254Zm.116,2.219-.061-.551H51.14a1.623,1.623,0,0,1-1.331.648A1.24,1.24,0,0,1,48.48,15.38c0-1.057.933-1.628,2.614-1.62v-.091a.893.893,0,0,0-.986-1,2.175,2.175,0,0,0-1.134.321l-.179-.52a2.7,2.7,0,0,1,1.429-.388c1.329,0,1.65.908,1.65,1.78v1.626a6.252,6.252,0,0,0,.073,1.045Z" transform="translate(50.05 12.468)" fill="#7181f4"/>
        <path id="Trazado_465024" data-name="Trazado 465024" d="M51.443,12.126l.62.935c.163.244.3.463.437.711h.03c.14-.26.287-.488.429-.724l.612-.923h.854l-1.486,2.1,1.53,2.25h-.9l-.636-.984c-.171-.25-.317-.49-.472-.754h-.016c-.142.264-.293.5-.455.754l-.632.984h-.87l1.545-2.219-1.473-2.132Z" transform="translate(52.125 12.519)" fill="#7181f4"/>
        <path id="Trazado_465025" data-name="Trazado 465025" d="M15.465,28.035c-.047-.847-.1-1.864-.091-2.62h-.028c-.205.715-.455,1.469-.762,2.3l-1.067,2.939h-.6l-.98-2.888c-.287-.852-.528-1.632-.7-2.353h-.02c-.016.756-.063,1.772-.116,2.681l-.163,2.6H10.2l.421-6.054h1l1.032,2.927c.254.746.461,1.415.612,2.038h.028c.152-.61.366-1.272.634-2.038L15,24.637h1l.378,6.054h-.766Z" transform="translate(10.527 25.435)" fill="#7181f4"/>
        <path id="Trazado_465026" data-name="Trazado 465026" d="M13.917,26.35h.789V30.7h-.789Zm.882-1.223a.489.489,0,0,1-.978,0,.478.478,0,0,1,.492-.494.472.472,0,0,1,.486.494" transform="translate(14.268 25.431)" fill="#7181f4"/>
        <path id="Trazado_465027" data-name="Trazado 465027" d="M14.921,26.7c0-.449-.01-.817-.037-1.175h.7l.049.717h.014a1.6,1.6,0,0,1,1.439-.817c.6,0,1.534.362,1.534,1.851v2.6h-.787V27.367c0-.7-.264-1.284-1.008-1.284a1.122,1.122,0,0,0-1.059.807,1.11,1.11,0,0,0-.055.372v2.614h-.791Z" transform="translate(15.366 26.252)" fill="#7181f4"/>
        <path id="Trazado_465028" data-name="Trazado 465028" d="M34.606,13.971a.85.85,0,0,1,.862-.9.906.906,0,0,1-.012,1.809.849.849,0,0,1-.85-.9" transform="translate(35.726 13.49)" fill="#7181f4"/>
        <path id="Trazado_465029" data-name="Trazado 465029" d="M36.069,13.971a.85.85,0,0,1,.862-.9.906.906,0,0,1-.012,1.809.848.848,0,0,1-.85-.9" transform="translate(37.237 13.49)" fill="#7181f4"/>
        <path id="Trazado_465030" data-name="Trazado 465030" d="M37.529,13.971a.85.85,0,0,1,.864-.9.906.906,0,0,1-.014,1.809.848.848,0,0,1-.85-.9" transform="translate(38.744 13.49)" fill="#7181f4"/>
        <path id="Trazado_465031" data-name="Trazado 465031" d="M0,27.708a.85.85,0,0,1,.862-.9A.906.906,0,0,1,.85,28.613a.849.849,0,0,1-.85-.9" transform="translate(0 27.672)" fill="#7181f4"/>
        <path id="Trazado_465032" data-name="Trazado 465032" d="M1.463,27.708a.851.851,0,0,1,.866-.9.906.906,0,0,1-.016,1.809.847.847,0,0,1-.85-.9" transform="translate(1.51 27.672)" fill="#7181f4"/>
        <path id="Trazado_465033" data-name="Trazado 465033" d="M2.924,27.708a.851.851,0,0,1,.866-.9.906.906,0,0,1-.016,1.809.848.848,0,0,1-.85-.9" transform="translate(3.019 27.672)" fill="#7181f4"/>
      </g>
    </g>
    <rect id="Rect치ngulo_263018" data-name="Rect치ngulo 263018" width="190" height="84" transform="translate(816 1548)" fill="none"/>
  </g>
</svg>
