<svg xmlns="http://www.w3.org/2000/svg" xmlns:xlink="http://www.w3.org/1999/xlink" width="190" height="84" viewBox="0 0 190 84">
  <defs>
    <clipPath id="clip-path">
      <rect id="Rect치ngulo_262653" data-name="Rect치ngulo 262653" width="77.365" height="64" fill="#5263e2"/>
    </clipPath>
  </defs>
  <g id="Grupo_704893" data-name="Grupo 704893" transform="translate(-817 -957)">
    <g id="Grupo_704239" data-name="Grupo 704239" transform="translate(877 966)">
      <g id="Grupo_704240" data-name="Grupo 704240" transform="translate(0 0)" clip-path="url(#clip-path)">
        <path id="Trazado_464875" data-name="Trazado 464875" d="M60.094,45.837a6.672,6.672,0,0,1,6.658,6.733,6.742,6.742,0,1,1-6.658-6.733m-36.913,0c2.845-.3,6.683,2.363,6.747,6.651A6.714,6.714,0,0,1,16.5,52.5c-.082-3.981,3.739-7,6.68-6.663M73.97,28.854V48.879a32.371,32.371,0,0,1-5.547-.009c-.428-.041-.854-.738-1.179-1.2a8.431,8.431,0,0,0-6.969-3.833A8.251,8.251,0,0,0,52.749,47.8a2.315,2.315,0,0,1-2.239,1.18q-8.928-.051-17.857,0A2.1,2.1,0,0,1,30.53,47.9a8.15,8.15,0,0,0-5.7-3.918c-.47-.086-.931-.213-1.534-.355.68-4.47,1.347-8.876,2.046-13.48l-1.839-.21c-.265,1.447-.53,2.757-.737,4.076-.45,2.883-.924,5.763-1.274,8.657-.136,1.129-.779,1.515-1.694,1.858a8.507,8.507,0,0,0-5.236,8.686A8.675,8.675,0,0,0,31.875,52.3V50.93H51.367c-.217,3.327.574,6.187,3.195,8.325a8.708,8.708,0,0,0,12.21-1.28,9,9,0,0,0,1.815-7.027c2.44-.325,4.812.031,7.251-.236V26.965c-3.655-.265-7.256-.083-10.852-.116-3.678-.033-7.358-.007-11.037-.007H42.976c-.033.705-.057,1.22-.091,1.964,3.513.1,6.9.034,10.281.046,3.465.011,6.928,0,10.39,0Z" transform="translate(1.528 2.819)" fill="#5263e2"/>
        <path id="Trazado_464876" data-name="Trazado 464876" d="M22.945,20.844C17.734,15.78,12.628,10.818,7.326,5.665l-1.8,2.057c4.97,5.133,10.23,9.911,15.36,15.113-5.13,5.008-10.209,9.97-15.5,15.133.746.582,1.369,1.071,2.174,1.7,5.09-4.718,10.073-9.777,15.351-14.842C28.182,29.791,33.238,34.854,38.5,39.913l1.9-2.036L25.026,22.865c2.509-2.744,5.183-5.079,7.69-7.572s5.07-4.983,7.728-7.592c-.757-.576-1.4-1.065-2.225-1.7-4.933,4.8-10.062,9.778-15.275,14.844" transform="translate(0.566 0.596)" fill="#5263e2"/>
        <path id="Trazado_464877" data-name="Trazado 464877" d="M11.148,55.861c2.209-7.437,4.321-14.556,6.478-21.819l-1.89-.5c-1.938,6.469-3.85,12.846-5.815,19.409C6.848,51.368,3.94,49.867.861,48.283L0,50.045l11.148,5.816" transform="translate(0 3.525)" fill="#5263e2"/>
        <path id="Trazado_464878" data-name="Trazado 464878" d="M51.857,5.875H40.319V7.749h9.743V26.464l1.688.149c.378-1.241.47-18.7.108-20.738" transform="translate(4.238 0.618)" fill="#5263e2"/>
        <path id="Trazado_464879" data-name="Trazado 464879" d="M23.085,0c-1.64,4.752-3.216,9.323-4.84,14.025.548.214,1.07.416,1.565.609C20.667,13.486,24.619,1.963,24.648.55L23.085,0" transform="translate(1.918 0)" fill="#5263e2"/>
      </g>
    </g>
    <rect id="Rect치ngulo_263018" data-name="Rect치ngulo 263018" width="190" height="84" transform="translate(817 957)" fill="none"/>
  </g>
</svg>
