<svg xmlns="http://www.w3.org/2000/svg" xmlns:xlink="http://www.w3.org/1999/xlink" width="190" height="84" viewBox="0 0 190 84">
  <defs>
    <clipPath id="clip-path">
      <rect id="Rect치ngulo_262664" data-name="Rect치ngulo 262664" width="113" height="39.845" fill="#5263e2"/>
    </clipPath>
  </defs>
  <g id="Grupo_704893" data-name="Grupo 704893" transform="translate(-816 -1118)">
    <g id="Grupo_704251" data-name="Grupo 704251" transform="translate(860 1143)">
      <g id="Grupo_704250" data-name="Grupo 704250" transform="translate(0 0)" clip-path="url(#clip-path)">
        <path id="Trazado_464899" data-name="Trazado 464899" d="M26.373,39.542c1.126,0,2.176-.028,3.223.01a2.284,2.284,0,0,0,1.776-.719Q41.4,29.016,51.43,19.206a2.2,2.2,0,0,0,.227-.458c-.546-.578-1.116-1.231-1.736-1.835-4.478-4.365-9.063-8.624-13.4-13.124C34.6,1.8,32.679.639,29.879,1.061a22.539,22.539,0,0,1-3.4.029c-.408,1.346-.491,36.431-.1,38.451" transform="translate(3.408 0.127)" fill="#5263e2"/>
        <path id="Trazado_464900" data-name="Trazado 464900" d="M51.416,18.756c1.851,1.872,3.526,3.621,5.259,5.314q6.4,6.262,12.85,12.486a7.875,7.875,0,0,1,.935.938c1.58,2.215,3.786,2.349,6.177,1.911.363-1.176.453-36.216.053-38.3-1.2-.008-2.459.072-3.7-.04A6.524,6.524,0,0,0,67.159,3.3c-4.142,4.373-8.58,8.463-12.9,12.668-.937.912-1.866,1.83-2.844,2.791" transform="translate(6.709 0.134)" fill="#5263e2"/>
        <path id="Trazado_464901" data-name="Trazado 464901" d="M72.091,37.17C65.4,30.65,58.956,24.373,52.354,17.943L32.9,36.891a2.271,2.271,0,0,0,.151.279c.031.04.077.093.116.093q18.987.037,37.973.058a8.646,8.646,0,0,0,.954-.15" transform="translate(4.292 2.341)" fill="#5263e2"/>
        <path id="Trazado_464902" data-name="Trazado 464902" d="M52,17.46,68.46,1.423c-1.374-.406-29.983-.531-32.842-.184,1.566,2.123,3.579,3.65,5.312,5.431,1.775,1.82,3.639,3.558,5.463,5.33s3.636,3.54,5.611,5.46" transform="translate(4.648 0.135)" fill="#5263e2"/>
        <path id="Trazado_464903" data-name="Trazado 464903" d="M21.711,39.845h3.248c.371-1.159.484-37.666.113-39.845H21.711Z" transform="translate(2.833 0)" fill="#5263e2"/>
        <path id="Trazado_464904" data-name="Trazado 464904" d="M78.575,17.548l9.316,8.939c.121-.051.242-.1.364-.155V19.608h14.492V15.977h-14.4V9.232L88,9.064c-3.2,2.633-6.107,5.6-9.424,8.484" transform="translate(10.253 1.183)" fill="#5263e2"/>
        <path id="Trazado_464905" data-name="Trazado 464905" d="M14.619,20.831V27.6c.127.051.25.1.374.157l9.363-8.5c-3.192-3.055-6.253-5.983-9.315-8.909-.119.035-.236.068-.355.1-.029,1.064-.067,2.123-.08,3.186-.015,1.1,0,2.2,0,3.531-4.912.156-9.7-.02-14.6.106v3.559Z" transform="translate(0 1.35)" fill="#5263e2"/>
        <path id="Trazado_464906" data-name="Trazado 464906" d="M75.5,39.842h2.986c.363-1.248.489-37.291.144-39.819H75.608c-.361,1.188-.479,37.45-.109,39.819" transform="translate(9.822 0.003)" fill="#5263e2"/>
      </g>
    </g>
    <rect id="Rect치ngulo_263018" data-name="Rect치ngulo 263018" width="190" height="84" transform="translate(816 1118)" fill="none"/>
  </g>
</svg>
