<svg xmlns="http://www.w3.org/2000/svg" xmlns:xlink="http://www.w3.org/1999/xlink" width="190" height="84" viewBox="0 0 190 84">
  <defs>
    <clipPath id="clip-path">
      <rect id="Rect치ngulo_262676" data-name="Rect치ngulo 262676" width="35.9" height="66.916" fill="#5263e2"/>
    </clipPath>
  </defs>
  <g id="Grupo_704893" data-name="Grupo 704893" transform="translate(-816 -1386)">
    <g id="Grupo_704263" data-name="Grupo 704263" transform="translate(898 1395.543)">
      <g id="Grupo_704263-2" data-name="Grupo 704263" transform="translate(0 0)" clip-path="url(#clip-path)">
        <path id="Trazado_464957" data-name="Trazado 464957" d="M35.262,39.775H1.257c-.307.992-.343,31.805-.03,33.057H35.14c.268-.977.381-30.443.123-33.057" transform="translate(-0.15 -5.916)" fill="#5263e2"/>
        <path id="Trazado_464958" data-name="Trazado 464958" d="M1.75,30c-.326-2.065-.222-26.12.1-27.051,4.63,4.459,9.185,8.926,13.825,13.466L1.75,30M16.9,15.242c-1.618-1.577-3.13-3.049-4.644-4.521C10.7,9.212,9.118,7.738,7.609,6.189A60.044,60.044,0,0,1,3.2,1.769c.042-.1.084-.2.125-.3H23.769c1.958,0,3.915-.009,5.874.009.334,0,.762-.155.987.385C26.089,6.287,21.544,10.716,16.9,15.242M3.007,31.307C3.852,30.1,16.16,18.221,17.06,17.75c2.274,2.212,4.584,4.418,6.849,6.671s4.685,4.4,6.8,6.908c-9.042.152-18.02.152-27,.144a3.267,3.267,0,0,1-.7-.166m31.047.189c-1.038-.433-14.89-13.831-15.8-15.2.242-.262.481-.547.747-.805q3.846-3.737,7.7-7.469c2.029-1.966,4.053-3.938,6.093-5.892.335-.323.648-.827,1.444-.4,0,9.556,0,19.2-.008,28.847a5.417,5.417,0,0,1-.176.916M0,33.03H35.609c.329-.932.408-31.548.086-33.03H0Z" transform="translate(0 0)" fill="#5263e2"/>
      </g>
    </g>
    <rect id="Rect치ngulo_263018" data-name="Rect치ngulo 263018" width="190" height="84" transform="translate(816 1386)" fill="none"/>
  </g>
</svg>
