<svg xmlns="http://www.w3.org/2000/svg" xmlns:xlink="http://www.w3.org/1999/xlink" width="158" height="158" viewBox="0 0 158 158">
  <defs>
    <clipPath id="clip-path">
      <rect id="Rectángulo_261085" data-name="Rectángulo 261085" width="105.023" height="103.321" fill="#fff"/>
    </clipPath>
  </defs>
  <g id="Grupo_704903" data-name="Grupo 704903" transform="translate(-810 -1798.76)">
    <circle id="Elipse_4926" data-name="Elipse 4926" cx="79" cy="79" r="79" transform="translate(810 1798.76)" fill="#aab4f2"/>
    <g id="Grupo_698402" data-name="Grupo 698402" transform="translate(829 1821.76)" clip-path="url(#clip-path)">
      <path id="Trazado_451665" data-name="Trazado 451665" d="M77.823,44.409A43.311,43.311,0,0,0,71,21.037l-11.269,7.2a30.089,30.089,0,0,1-.065,32.46l-.2-9.631c-5.425,10.281-16.016,22.1-25.121,30.145,12.149-.163,27.931,1.477,38.856,5.45L64.054,76.136A43.239,43.239,0,0,0,77.823,44.409" transform="translate(27.2 16.662)" fill="#fff"/>
      <path id="Trazado_451666" data-name="Trazado 451666" d="M49.422,25.381c.025,0,.045,0,.068,0l-7.962,5.3c11.586-.941,27.241,1.656,38.915,5.023C73.789,25.548,66.7,11.349,64.192,0L60.217,13.365A43.5,43.5,0,0,0,12.765,32.118l11.267,7.2a30.006,30.006,0,0,1,25.39-13.933" transform="translate(10.111 -0.001)" fill="#fff"/>
      <path id="Trazado_451667" data-name="Trazado 451667" d="M29.173,54.308l8.222,5c-5.751-10.1-10.02-25.383-11.907-37.386C19.093,32.251,9.222,44.677,0,51.75L13.79,49.7A43.314,43.314,0,0,0,56.513,85.18V71.809a30,30,0,0,1-27.34-17.5" transform="translate(0 17.364)" fill="#fff"/>
    </g>
  </g>
</svg>
