<svg xmlns="http://www.w3.org/2000/svg" xmlns:xlink="http://www.w3.org/1999/xlink" width="190" height="84" viewBox="0 0 190 84">
  <defs>
    <clipPath id="clip-path">
      <rect id="Rect치ngulo_262668" data-name="Rect치ngulo 262668" width="83.363" height="69.245" fill="#5263e2"/>
    </clipPath>
  </defs>
  <g id="Grupo_704893" data-name="Grupo 704893" transform="translate(-816 -1202)">
    <g id="Grupo_704255" data-name="Grupo 704255" transform="translate(874 1196.081)">
      <g id="Grupo_704255-2" data-name="Grupo 704255" transform="translate(22 13)" clip-path="url(#clip-path)">
        <path id="Trazado_464924" data-name="Trazado 464924" d="M41.859,78.283V32.926c-1.442-.351-39.544-.409-41.5-.066V78.1c.056.052.1.09.14.127s.086.09.136.1a3.839,3.839,0,0,0,.706.106q19.794.007,39.587,0a7.5,7.5,0,0,0,.926-.144" transform="translate(0.082 -9.186)" fill="#5263e2"/>
        <path id="Trazado_464925" data-name="Trazado 464925" d="M42.74,32.079V28.7C41.218,28.336,1.759,28.32,0,28.7c0,.7-.012,1.447,0,2.192.009.362.071.726.12,1.184Z" transform="translate(0 -9.618)" fill="#5263e2"/>
        <path id="Trazado_464926" data-name="Trazado 464926" d="M18.755,29.807c3.21-3.224,6.222-6.249,9.234-9.275l-.148-.342-6.309-.158V12.585H16.59c-.252,2.422.028,4.835-.173,7.393-2.129.308-4.275,0-6.755.235,3.056,3.359,5.994,6.415,9.093,9.594" transform="translate(2.179 -11.243)" fill="#5263e2"/>
        <path id="Trazado_464927" data-name="Trazado 464927" d="M20.689,7.954A2.526,2.526,0,0,1,18,5.477a2.785,2.785,0,0,1,2.788-2.645,2.733,2.733,0,0,1,2.69,2.553,2.563,2.563,0,0,1-2.787,2.57M17.751,9.324c-.186.218-.266.276-.252.3.612,1.205,1.76,1.761,3.477,1.688,1.517-.067,2.93-.846,3.2-1.932.587-2.323.227-4.667.308-7.293l-1.331.7c-1.887-.85-3.643-1.1-5.157.4a3.068,3.068,0,0,0-.4,4.037,3.166,3.166,0,0,0,2.631,1.462,15.267,15.267,0,0,0,3.045-.533,2.116,2.116,0,0,1-2.134,2.413c-1.408.222-2.4-.611-3.392-1.24" transform="translate(36.621 8.582)" fill="#5263e2"/>
        <path id="Trazado_464928" data-name="Trazado 464928" d="M11.939,2.937c-.051-.975-.1-1.815-.157-2.937-.44.334-.794.477-.8.623-.029,2.636-.02,5.273,0,7.91,0,.117.2.233.344.389.891-.423.442-1.149.52-1.711A16.649,16.649,0,0,0,11.871,5.2a9.286,9.286,0,0,1,1.086.706c.888.8,1.741,1.629,2.624,2.435.423.387.441.372,1.761.542C15.626,7.2,14.12,5.731,12.48,4.134L16.713.4c-2.179-.055-2.844,1.94-4.775,2.537" transform="translate(35.255 8.368)" fill="#5263e2"/>
        <path id="Trazado_464929" data-name="Trazado 464929" d="M32.234,9.054c-.047-.8-.105-1.762-.1-2.476H32.11c-.216.672-.482,1.387-.8,2.179l-1.124,2.782h-.626L28.524,8.806c-.3-.807-.558-1.548-.735-2.228h-.022c-.016.715-.064,1.677-.121,2.537l-.168,2.459h-.787l.445-5.737h1.049l1.088,2.775c.265.7.483,1.335.643,1.931h.027c.162-.578.39-1.206.673-1.931L31.75,5.837H32.8l.4,5.737h-.8Z" transform="translate(38.8 8.967)" fill="#5263e2"/>
        <path id="Trazado_464930" data-name="Trazado 464930" d="M35.538,9.331c-.906-.019-1.939.127-1.939.926a.705.705,0,0,0,.787.716,1.141,1.141,0,0,0,1.108-.689.744.744,0,0,0,.044-.239Zm.124,2.1-.065-.519h-.028a1.775,1.775,0,0,1-1.4.612,1.247,1.247,0,0,1-1.4-1.182c0-1,.982-1.543,2.752-1.533V8.724c0-.34-.1-.95-1.039-.95a2.484,2.484,0,0,0-1.194.3L33.1,7.584A3.121,3.121,0,0,1,34.6,7.218,1.529,1.529,0,0,1,36.344,8.9v1.54a5.177,5.177,0,0,0,.076.988Z" transform="translate(40.171 9.108)" fill="#5263e2"/>
        <path id="Trazado_464931" data-name="Trazado 464931" d="M37.283,7.3l.653.885c.17.228.311.441.462.673h.029c.151-.249.3-.46.455-.681l.641-.877h.9L38.86,9.3l1.612,2.127h-.949l-.67-.927c-.179-.239-.33-.468-.491-.716h-.02c-.151.248-.312.468-.482.716l-.663.927h-.914l1.625-2.1L36.355,7.3Z" transform="translate(40.963 9.117)" fill="#5263e2"/>
      </g>
    </g>
    <rect id="Rect치ngulo_263018" data-name="Rect치ngulo 263018" width="190" height="84" transform="translate(816 1202)" fill="none"/>
  </g>
</svg>
