<svg xmlns="http://www.w3.org/2000/svg" xmlns:xlink="http://www.w3.org/1999/xlink" width="121.943" height="101" viewBox="0 0 121.943 101">
  <defs>
    <clipPath id="clip-path">
      <rect id="Rectángulo_253477" data-name="Rectángulo 253477" width="22.253" height="20.461" fill="none"/>
    </clipPath>
    <clipPath id="clip-path-2">
      <rect id="Rectángulo_253478" data-name="Rectángulo 253478" width="16.317" height="23.613" fill="none"/>
    </clipPath>
    <clipPath id="clip-path-3">
      <rect id="Rectángulo_253479" data-name="Rectángulo 253479" width="20.187" height="25.939" fill="none"/>
    </clipPath>
    <clipPath id="clip-path-4">
      <rect id="Rectángulo_253480" data-name="Rectángulo 253480" width="15.859" height="9.753" fill="none"/>
    </clipPath>
    <clipPath id="clip-path-5">
      <rect id="Rectángulo_253481" data-name="Rectángulo 253481" width="7.35" height="6.383" fill="none"/>
    </clipPath>
    <clipPath id="clip-path-6">
      <rect id="Rectángulo_253482" data-name="Rectángulo 253482" width="7.416" height="10.605" fill="none"/>
    </clipPath>
    <clipPath id="clip-path-7">
      <rect id="Rectángulo_253483" data-name="Rectángulo 253483" width="12.736" height="11.105" fill="none"/>
    </clipPath>
    <clipPath id="clip-path-9">
      <rect id="Rectángulo_253485" data-name="Rectángulo 253485" width="12.735" height="11.105" fill="none"/>
    </clipPath>
    <clipPath id="clip-path-10">
      <rect id="Rectángulo_253500" data-name="Rectángulo 253500" width="4.128" height="2.492" fill="none"/>
    </clipPath>
    <clipPath id="clip-path-11">
      <rect id="Rectángulo_253502" data-name="Rectángulo 253502" width="5.574" height="12.535" fill="none"/>
    </clipPath>
    <clipPath id="clip-path-12">
      <rect id="Rectángulo_253504" data-name="Rectángulo 253504" width="6.913" height="17.569" fill="none"/>
    </clipPath>
  </defs>
  <g id="Grupo_704674" data-name="Grupo 704674" transform="translate(-319 -2359)">
    <path id="Trazado_467430" data-name="Trazado 467430" d="M50.5,0A50.5,50.5,0,1,1,0,50.5,50.5,50.5,0,0,1,50.5,0Z" transform="translate(330 2359)" fill="#fff"/>
    <g id="Grupo_704670" data-name="Grupo 704670" transform="translate(-5.104 -6.445)">
      <path id="Trazado_388725" data-name="Trazado 388725" d="M1170.906,189.1a26.328,26.328,0,0,1-.423,4.712,26.169,26.169,0,0,1-49.666,5.879,25.725,25.725,0,0,1-1.332-3.762,26.352,26.352,0,0,1-.308-12.4c0-.021.009-.04.013-.061a26.231,26.231,0,0,1,10.212-15.563q.807-.585,1.66-1.109a26.022,26.022,0,0,1,13.684-3.861q1,0,1.977.074a25.983,25.983,0,0,1,12.957,4.605h0a26.257,26.257,0,0,1,7.176,7.493q.6.949,1.122,1.951a26.042,26.042,0,0,1,2.927,12.038" transform="translate(-742.067 2214.372)" fill="#dce8ff"/>
      <g id="Grupo_685029" data-name="Grupo 685029" transform="translate(377.109 2381.172)" opacity="0.7">
        <g id="Grupo_685028" data-name="Grupo 685028">
          <g id="Grupo_685027" data-name="Grupo 685027" clip-path="url(#clip-path)">
            <path id="Trazado_388726" data-name="Trazado 388726" d="M1146.505,246.642c-1.044,1.653.436,4.524-2.7,3.741s-5.046-1.131-5.22.608,2.349,1.741,2.349,3.568-1.131,2.431-2.871,1.563-2.24-2.13-4.263-1.347-3.2.261-3.654-1.305a2.289,2.289,0,0,0-.325-.685c0-.021.009-.04.013-.061a26.231,26.231,0,0,1,10.211-15.563q.807-.585,1.66-1.109a3.441,3.441,0,0,1,2.622,1.368c1.827,2.263,3.044,1.131,2.61,3.741s.261,2.958,1.739,2.871,3.219-.087,3.393,1.044-4.524-.087-5.568,1.566" transform="translate(-1129.825 -236.052)" fill="#9fbdff"/>
          </g>
        </g>
      </g>
      <g id="Grupo_685032" data-name="Grupo 685032" transform="translate(391.179 2402.404)" opacity="0.7">
        <g id="Grupo_685031" data-name="Grupo 685031">
          <g id="Grupo_685030" data-name="Grupo 685030" clip-path="url(#clip-path-2)">
            <path id="Trazado_388727" data-name="Trazado 388727" d="M1409.665,643.085s-2.305.739-2.915-.87.087-1.957-1.957-2.436-2.219-1.87-3.524-1.7-.652.7-2.175,1.827-2.914.609-2.871,2.7,2.305,2.414,2.762,3.784-.327,1.957.652,3,2.806.587,1.958,2.023-2.153,2.545-1.5,4.763.2,2.349,1.3,3.915,3.262,2.088,3.589,1.044-1.5-2.414-.914-3.458,1.566-.326,1.958-1.892,1.979-1.566,2.11-2.653-1.914-2.74-1.131-3.436,2.349,1.261,3.567-.479.392-3.132,1.653-4.785-1.7-2.305-2.567-1.348" transform="translate(-1396.222 -638.068)" fill="#9fbdff"/>
          </g>
        </g>
      </g>
      <g id="Grupo_685035" data-name="Grupo 685035" transform="translate(408.652 2392.446)" opacity="0.7">
        <g id="Grupo_685034" data-name="Grupo 685034">
          <g id="Grupo_685033" data-name="Grupo 685033" clip-path="url(#clip-path-3)">
            <path id="Trazado_388728" data-name="Trazado 388728" d="M1747.253,460.525a26.351,26.351,0,0,1-.423,4.712,26.018,26.018,0,0,1-4.129,10.037,2.986,2.986,0,0,1-2.092-.056c-3.262-1.3-.848-4.828.457-6.59s-2.023-.979-4.437-2.61.261-6-2.219-5.285-5.481,1.631-6.916-.783,1.3-2.806.065-4.828.718-3.2,3.2-3.393,2.153-1.957,5.22-2.218,3,3.654,6.394,3.393,3.24.522,3.24.522a1.581,1.581,0,0,1,.709.149,26.209,26.209,0,0,1,.933,6.952" transform="translate(-1727.067 -449.497)" fill="#9fbdff"/>
          </g>
        </g>
      </g>
      <g id="Grupo_685038" data-name="Grupo 685038" transform="translate(410.053 2381.989)" opacity="0.7">
        <g id="Grupo_685037" data-name="Grupo 685037">
          <g id="Grupo_685036" data-name="Grupo 685036" clip-path="url(#clip-path-4)">
            <path id="Trazado_388729" data-name="Trazado 388729" d="M1769.452,260.978c-2.822,1.373-3.954-2.361-6.366-1.238-2.431,1.131-2.006-1.044-3.919-2.436s-5.742,1.131-5.568-1.044,3.044-1.566,3.654-3.305,3.393-1.3,3.393-1.3a1.886,1.886,0,0,1,.506-.115s0,0,0,0a26.263,26.263,0,0,1,7.176,7.493q.6.949,1.122,1.951" transform="translate(-1753.593 -251.533)" fill="#9fbdff"/>
          </g>
        </g>
      </g>
      <g id="Grupo_685041" data-name="Grupo 685041" transform="translate(395.252 2380.928)" opacity="0.7">
        <g id="Grupo_685040" data-name="Grupo 685040">
          <g id="Grupo_685039" data-name="Grupo 685039" clip-path="url(#clip-path-5)">
            <path id="Trazado_388730" data-name="Trazado 388730" d="M1480.218,234.421s1.479-2.134-.87-2.763-2.305.195-4.133,0-2.544,1.219-1.174,2.763,2.479,4.508,3.719,2.928,1-2.776,2.458-2.928" transform="translate(-1473.327 -231.416)" fill="#9fbdff"/>
          </g>
        </g>
      </g>
      <path id="Trazado_388731" data-name="Trazado 388731" d="M1945.343,1304.748c1.04-3.316-4.3-5.48-4.3-5.48s-6.4,2.879-7.418,2.394,4.992-3.53,4.992-3.53c-1.713-1.343-7.8-2.077-7.8-2.077s-3.393,5.961-4.26,5.241,3.273-5.125,3.273-5.125c-2.106-.6-5.072.41-5.072.41-4.207,2.041-2.589,9.377-5.293,10.885h0a8.073,8.073,0,0,0-1.294.786l.482.308c.122-.1.245-.2.37-.29l0,0,.005,0c.081-.053.2-.129.337-.22h0c.331-.194.567-.343.728-.457h0a14.7,14.7,0,0,1,2.989-1.372c-.3,2.294,3.631,5.222,6.23,6.218s2.011-.292,1.446-2.133-3.334-3.22-3.837-4.122.88-.6,2.337.5,1.244,3.117,3.567,4.933,7.181-1.634,7.181-1.634c-2.047-.561-4.508-3.46-4.25-4.124s4.757,2.292,5.577,2.567,2.96-.349,4-3.666" transform="translate(-1499.431 1141.17)" fill="#dfebfd"/>
      <path id="Trazado_388732" data-name="Trazado 388732" d="M126.253,1162.815c.5-4.431,7.88-4.208,7.88-4.208s6.021,6.693,7.467,6.652-4.031-6.728-4.031-6.728c2.706-.689,10.226,1.6,10.226,1.6s.9,8.753,2.286,8.357-1.188-7.71-1.188-7.71c2.782.388,5.741,3.107,5.741,3.107,3.88,4.573-1.817,12.347.576,15.516h0a10.389,10.389,0,0,1,1.112,1.592l-.725.112q-.134-.278-.283-.532l0,0,0-.007c-.067-.1-.163-.253-.282-.433h0c-.288-.4-.487-.7-.617-.913v0a18.874,18.874,0,0,0-2.8-3.158c-.831,2.85-6.966,4.249-10.532,4.073s-2.209-1.383-.592-3.252,5.581-2.053,6.637-2.85-.723-1.159-3-.626-3.074,3.014-6.741,3.942-7.582-5.636-7.582-5.636c2.693.4,7.083-1.727,7.123-2.64s-6.77.226-7.874.125-3.293-1.942-2.8-6.374" transform="translate(197.922 1271.483)" fill="#dfebfd"/>
      <g id="Grupo_685044" data-name="Grupo 685044" transform="translate(426.025 2426.817)" opacity="0.5">
        <g id="Grupo_685043" data-name="Grupo 685043">
          <g id="Grupo_685042" data-name="Grupo 685042" clip-path="url(#clip-path-6)">
            <path id="Trazado_388733" data-name="Trazado 388733" d="M2056.01,1110.919s1.912-6.822,6.12-10.415a.787.787,0,0,1,1.283.739c0,.012,0,.024-.007.037-.24,1.233-5.042,5.842-7.4,9.64" transform="translate(-2056.01 -1100.315)" fill="#c5ddff"/>
          </g>
        </g>
      </g>
      <g id="Grupo_685047" data-name="Grupo 685047" transform="translate(425.283 2428.24)" opacity="0.5">
        <g id="Grupo_685046" data-name="Grupo 685046">
          <g id="Grupo_685045" data-name="Grupo 685045" clip-path="url(#clip-path-7)">
            <path id="Trazado_388734" data-name="Trazado 388734" d="M2041.944,1138.357s4.9-8.135,11.564-11.034a.834.834,0,0,1,1.085.385,1.322,1.322,0,0,1-.13,1.183c-.721,1.453-8.284,5.544-12.519,9.465" transform="translate(-2041.944 -1127.252)" fill="#c5ddff"/>
          </g>
        </g>
      </g>
      <g id="Grupo_685050" data-name="Grupo 685050" transform="translate(337.383 2419.348)" opacity="0.5">
        <g id="Grupo_685049" data-name="Grupo 685049">
          <g id="Grupo_685048" data-name="Grupo 685048" clip-path="url(#clip-path-6)">
            <path id="Trazado_388735" data-name="Trazado 388735" d="M385.042,969.494s-1.913-6.822-6.121-10.416a.787.787,0,0,0-1.282.739l.007.037c.239,1.233,5.042,5.842,7.4,9.64" transform="translate(-377.626 -958.889)" fill="#c5ddff"/>
          </g>
        </g>
      </g>
      <g id="Grupo_685053" data-name="Grupo 685053" transform="translate(332.806 2420.771)" opacity="0.5">
        <g id="Grupo_685052" data-name="Grupo 685052">
          <g id="Grupo_685051" data-name="Grupo 685051" clip-path="url(#clip-path-9)">
            <path id="Trazado_388736" data-name="Trazado 388736" d="M303.707,996.931s-4.9-8.136-11.564-11.034a.835.835,0,0,0-1.085.385,1.324,1.324,0,0,0,.13,1.183c.721,1.453,8.284,5.544,12.519,9.465" transform="translate(-290.971 -985.827)" fill="#c5ddff"/>
          </g>
        </g>
      </g>
      <path id="Trazado_388737" data-name="Trazado 388737" d="M914.9,425.669l-.021,59.675a3.549,3.549,0,0,1-3.55,3.548l-31.195-.011a3.549,3.549,0,0,1-3.548-3.551l.021-59.675a3.549,3.549,0,0,1,3.551-3.548l31.195.011a3.549,3.549,0,0,1,3.548,3.55" transform="translate(-512.856 1968.89)" fill="#c2cfff"/>
      <path id="Trazado_388738" data-name="Trazado 388738" d="M903.341,481.342l-31.195-.011a4,4,0,0,1-3.994-4l.021-59.675a4,4,0,0,1,4-3.994l31.195.011a4,4,0,0,1,3.993,4l-.021,59.675a4,4,0,0,1-4,3.994M872.17,414.558a3.108,3.108,0,0,0-3.105,3.1l-.021,59.675a3.107,3.107,0,0,0,3.1,3.1l31.195.011a3.107,3.107,0,0,0,3.1-3.1l.021-59.675a3.107,3.107,0,0,0-3.1-3.105Z" transform="translate(-504.864 1976.885)" fill="#163560"/>
      <path id="Trazado_388739" data-name="Trazado 388739" d="M968.331,524.621l-.525.376-.527-.372a.646.646,0,0,1,1.052,0" transform="translate(-598.754 1872.046)" fill="#fff"/>
      <path id="Trazado_388740" data-name="Trazado 388740" d="M954.383,506.987a1.559,1.559,0,0,0-1.276.663l.333.234a1.153,1.153,0,0,1,1.88-.006l.331-.238a1.559,1.559,0,0,0-1.269-.653" transform="translate(-585.331 1888.494)" fill="#fff"/>
      <path id="Trazado_388741" data-name="Trazado 388741" d="M928.854,473.979a3.3,3.3,0,0,0-2.7,1.4l.333.234a2.895,2.895,0,0,1,4.721-.016l.33-.238a3.3,3.3,0,0,0-2.684-1.381" transform="translate(-559.801 1919.759)" fill="#fff"/>
      <path id="Trazado_388742" data-name="Trazado 388742" d="M942.739,492.04a2.36,2.36,0,0,0-1.926.994l.333.234a1.956,1.956,0,0,1,3.177-.011l.33-.236a2.359,2.359,0,0,0-1.914-.98" transform="translate(-573.686 1902.652)" fill="#fff"/>
      <path id="Trazado_388743" data-name="Trazado 388743" d="M1016.361,282.565a8.921,8.921,0,0,0-5.214-.493s3.362-.23,5.355,1.9a6.624,6.624,0,0,1,3.7-2.628,6.2,6.2,0,0,0-3.84,1.216" transform="translate(-640.305 2102.226)" fill="#9fc1f4"/>
      <path id="Trazado_388744" data-name="Trazado 388744" d="M916.206,268.344a6.9,6.9,0,0,0-4.03-.4,5.721,5.721,0,0,1,4.133,1.5,5.123,5.123,0,0,1,2.872-2.016,4.794,4.794,0,0,0-2.975.923" transform="translate(-546.562 2115.417)" fill="#9fc1f4"/>
      <path id="Trazado_388745" data-name="Trazado 388745" d="M815.312,253.133a6.282,6.282,0,0,0-3.681-.213,5.208,5.208,0,0,1,3.817,1.2,4.665,4.665,0,0,1,2.535-1.944,4.365,4.365,0,0,0-2.671.955" transform="translate(-451.327 2129.847)" fill="#9fc1f4"/>
      <path id="Trazado_388746" data-name="Trazado 388746" d="M776.508,224.745a4.254,4.254,0,0,0-2.5.089,3.527,3.527,0,0,1,2.65.57,3.16,3.16,0,0,1,1.587-1.471,2.957,2.957,0,0,0-1.741.812" transform="translate(-415.694 2156.599)" fill="#9fc1f4"/>
      <path id="Trazado_388747" data-name="Trazado 388747" d="M991.521,150.189a4.255,4.255,0,0,0-2.5-.042,3.528,3.528,0,0,1,2.616.707,3.159,3.159,0,0,1,1.661-1.386,2.956,2.956,0,0,0-1.781.72" transform="translate(-619.351 2227.13)" fill="#9fc1f4"/>
      <path id="Trazado_388748" data-name="Trazado 388748" d="M1076.174,222.076a6.2,6.2,0,0,0-3.615-.412,5.139,5.139,0,0,1,3.694,1.394,4.6,4.6,0,0,1,2.6-1.776,4.307,4.307,0,0,0-2.683.794" transform="translate(-698.474 2159.12)" fill="#9fc1f4"/>
      <path id="Trazado_388749" data-name="Trazado 388749" d="M1039.528,175.219a5.731,5.731,0,0,0-3.354-.254,4.751,4.751,0,0,1,3.462,1.159,4.256,4.256,0,0,1,2.344-1.732,3.982,3.982,0,0,0-2.451.827" transform="translate(-664.01 2203.527)" fill="#9fc1f4"/>
      <path id="Trazado_388750" data-name="Trazado 388750" d="M1875.556,528.814c0,2.617,4.406,6.8,4.406,6.8s4.406-4.183,4.406-6.8a4.418,4.418,0,1,0-8.813,0m1.81-.278a2.6,2.6,0,1,1,2.6,2.6,2.6,2.6,0,0,1-2.6-2.6" transform="translate(-1459.062 1872.307)" fill="#f78e48"/>
      <path id="Trazado_388751" data-name="Trazado 388751" d="M1590.672,216.823c0,2.513,4.232,6.531,4.232,6.531s4.232-4.018,4.232-6.531a4.244,4.244,0,1,0-8.465,0m1.738-.267a2.494,2.494,0,1,1,2.494,2.494,2.5,2.5,0,0,1-2.494-2.494" transform="translate(-1189.223 2167.644)" fill="#f78e48"/>
      <path id="Trazado_388752" data-name="Trazado 388752" d="M1870.01,1625.653h-10.441a1.813,1.813,0,0,1-1.812-1.812v-.237h13.929v.373a1.676,1.676,0,0,1-1.676,1.676" transform="translate(-1442.202 830.851)" fill="#163560"/>
      <path id="Trazado_388753" data-name="Trazado 388753" d="M1863.592,1250.581V1267.2a2.643,2.643,0,0,1-.065.583h-1.95a1.531,1.531,0,0,0-1.53,1.531v.518h-7.638v-.518a1.529,1.529,0,0,0-1.53-1.531h-2.107a2.643,2.643,0,0,1-.065-.583v-16.623a2.632,2.632,0,0,1,2.631-2.633h9.624a2.632,2.632,0,0,1,2.631,2.633" transform="translate(-1433.63 1186.667)" fill="#f78248"/>
      <path id="Trazado_388754" data-name="Trazado 388754" d="M1935.079,1232.334a7.176,7.176,0,0,0-5.876-.008l-.124-.217a5.463,5.463,0,0,1,1.7-.54,8.25,8.25,0,0,1,4.389.532Z" transform="translate(-1509.757 1202.272)" fill="#163560"/>
      <rect id="Rectángulo_253486" data-name="Rectángulo 253486" width="1.008" height="1.373" transform="translate(416.495 2455.734)" fill="#163560"/>
      <path id="Trazado_388755" data-name="Trazado 388755" d="M1871.534,1664.9a.717.717,0,1,1,.717.718.718.718,0,0,1-.717-.718" transform="translate(-1455.251 792.414)" fill="#1f4777"/>
      <path id="Trazado_388756" data-name="Trazado 388756" d="M1876.87,1669.961a.435.435,0,1,1,.435.436.435.435,0,0,1-.435-.436" transform="translate(-1460.305 787.355)" fill="#163560"/>
      <rect id="Rectángulo_253487" data-name="Rectángulo 253487" width="1.008" height="1.373" transform="translate(426.865 2455.734)" fill="#163560"/>
      <path id="Trazado_388757" data-name="Trazado 388757" d="M2067.86,1664.9a.718.718,0,1,1,.717.718.718.718,0,0,1-.717-.718" transform="translate(-1641.209 792.414)" fill="#1f4777"/>
      <path id="Trazado_388758" data-name="Trazado 388758" d="M2073.2,1669.961a.436.436,0,1,1,.436.436.436.436,0,0,1-.436-.436" transform="translate(-1646.263 787.355)" fill="#163560"/>
      <path id="Trazado_388759" data-name="Trazado 388759" d="M1898.9,1247.948v20.092a1.53,1.53,0,0,0-.384-.182v-19.91Z" transform="translate(-1480.81 1186.667)" fill="#e06832"/>
      <rect id="Rectángulo_253488" data-name="Rectángulo 253488" width="0.384" height="21.889" transform="translate(420.777 2434.615)" fill="#e06832"/>
      <rect id="Rectángulo_253489" data-name="Rectángulo 253489" width="0.384" height="21.889" transform="translate(423.641 2434.615)" fill="#e06832"/>
      <path id="Trazado_388760" data-name="Trazado 388760" d="M2069.945,1247.948v20.08a1.511,1.511,0,0,0-.384.349v-20.429Z" transform="translate(-1642.82 1186.667)" fill="#e06832"/>
      <path id="Trazado_388761" data-name="Trazado 388761" d="M1689.169,1067.007c0-.029.42-.9.286-.963s-.373-.057-.4.1a5.309,5.309,0,0,0,.114.868" transform="translate(-1282.406 1359.001)" fill="#ffb27d"/>
      <path id="Trazado_388762" data-name="Trazado 388762" d="M1664.128,1054.284a5.106,5.106,0,0,0-.318-1.643c-.219-.259-.667-.626-.807-.615a1.385,1.385,0,0,0-.526,1.3,4.608,4.608,0,0,0,.864,1.319Z" transform="translate(-1257.207 1372.242)" fill="#ffb27d"/>
      <path id="Trazado_388763" data-name="Trazado 388763" d="M1672.291,1018.533l-1.276.382a.08.08,0,0,1-.1-.054l-.729-2.433a.08.08,0,0,1,.054-.1l1.276-.382a.08.08,0,0,1,.1.054l.729,2.433a.08.08,0,0,1-.054.1" transform="translate(-1264.535 1406.419)" fill="#f1a34f"/>
      <path id="Trazado_388764" data-name="Trazado 388764" d="M1667.349,1020.368l-1.157.347a.142.142,0,0,1-.177-.1l-.694-2.315a.142.142,0,0,1,.095-.177l1.157-.347a.142.142,0,0,1,.177.1l.694,2.315a.142.142,0,0,1-.1.177" transform="translate(-1259.923 1404.683)" fill="#d86713"/>
      <path id="Trazado_388765" data-name="Trazado 388765" d="M1670.49,1039.94s.531-.818.661-.772c.185.065-.482,1.1-.482,1.1s.494-.775.572-.717c.176.133-.1.62-.382.993,0,0,.5-.455.513-.373.057.287-.546.983-.546.983l-.337-.769Z" transform="translate(-1264.825 1384.421)" fill="#ffb27d"/>
      <path id="Trazado_388766" data-name="Trazado 388766" d="M1662.942,1034.483c.026-.1.155-2.053.211-1.867s.188,1.209.188,1.209Z" transform="translate(-1257.677 1390.637)" fill="#ffb27d"/>
      <path id="Trazado_388767" data-name="Trazado 388767" d="M1686.036,1007.719a14.472,14.472,0,0,1-.668,3.836c-.484,1.353-1.315,2.45-2.74,2.045-.146-.042-.287-.086-.424-.134h0a6.518,6.518,0,0,1-3.833-3.318,1.492,1.492,0,0,1,.84-.487,29.1,29.1,0,0,1,3.309,1.153c.593.119,1.072-3.138,1.457-4.267s1.962-1.633,1.962-1.633Z" transform="translate(-1272.289 1416.865)" fill="#739af0"/>
      <path id="Trazado_388768" data-name="Trazado 388768" d="M1754.192,1101.652l-.056,1.53c-.483,1.353-1.315,2.451-2.74,2.045-.146-.041-.287-.086-.424-.134.046.006.918.124,1.283-.241s.336-1.62,1.027-2.45.909-.75.909-.75" transform="translate(-1341.058 1325.238)" fill="#5283db"/>
      <path id="Trazado_388769" data-name="Trazado 388769" d="M1767.135,1625.863s.713.65.574,1.112-.782.77-.869,1.335-.435.873-.747.873H1764.6s-.23-.4.326-.517.766-.784.731-1.4a10.859,10.859,0,0,1,.052-1.438l1.182-.274Z" transform="translate(-1353.921 829.002)" fill="#133054"/>
      <path id="Trazado_388770" data-name="Trazado 388770" d="M1664.766,1631.414h4.392a.318.318,0,0,0,.318-.309,2.244,2.244,0,0,0-.157-.947c-.235-.52-.383-.611.608-2.123-.3.307-1.1.166-1.778.075a21.439,21.439,0,0,1-1.617,2.276c-.306.22-1.672.141-1.766,1.029" transform="translate(-1259.404 826.654)" fill="#163560"/>
      <path id="Trazado_388771" data-name="Trazado 388771" d="M1720.379,1222.329s-3.184,6.009-4.05,9.317c-.671,2.568,3.427,12.5,3.427,12.5a3.286,3.286,0,0,0,.882-.237,1.43,1.43,0,0,0,.741-.777,73.663,73.663,0,0,0-1.073-10.542c-.186-.772.9-3.261,2.74-4.624s2.6-5.749,1.508-6.045-4.176.4-4.176.4" transform="translate(-1308.174 1211.383)" fill="#163560"/>
      <path id="Trazado_388772" data-name="Trazado 388772" d="M1720.615,1198.553s-3.348,12.272-4.363,15.027-2.626,8.6-2.626,8.6a4.241,4.241,0,0,0,2.322.252s4.9-7.171,5.108-10.341c.1-1.465,5.022-7.273,4.474-11.06Z" transform="translate(-1305.683 1233.452)" fill="#1c468a"/>
      <path id="Trazado_388773" data-name="Trazado 388773" d="M1786.67,1011.56a5.826,5.826,0,0,1-1.972.465h0a10.894,10.894,0,0,1-6.232-1.556s-.734-.6.168-3.175c.682-1.946,1.015-6.05,1.847-9.79a9.169,9.169,0,0,1,4.869-.115c1.656.56,1.491,3.1,1.8,5.748.029.247.061.495.1.742.452,2.9-.576,7.681-.576,7.681" transform="translate(-1366.832 1424.274)" fill="#739af0"/>
      <path id="Trazado_388774" data-name="Trazado 388774" d="M1803.636,866.041s1.844-3,3.271-1.457a2.494,2.494,0,0,1,1.468,1.692c.546,1.483-.3,2.792-.871,2.58-.364-.136-.534.491-.534.491Z" transform="translate(-1390.94 1550.202)" fill="#233862"/>
      <path id="Trazado_388775" data-name="Trazado 388775" d="M1860.226,847.762s.127-1.243,1.942-1.122c0,0-.858.015-1.043.374a1.4,1.4,0,0,1,1.08-.207c.455.2.648,1.048.624,1.319s-.375,1.119-.681,1.163a1.422,1.422,0,0,1-.707-.172Z" transform="translate(-1444.541 1566.786)" fill="#233862"/>
      <path id="Trazado_388776" data-name="Trazado 388776" d="M1831.453,958.558a8.364,8.364,0,0,1-.629-2.383l-.109.038-1.833.645s.129.588.21,1.147c.034.229.057.637.073.993s.374.4.739.382c.969-.045,1.5-.406,1.548-.822" transform="translate(-1414.854 1463.03)" fill="#ffb27d"/>
      <path id="Trazado_388777" data-name="Trazado 388777" d="M1828.883,957.545s.129.588.21,1.147a2.261,2.261,0,0,0,1.622-1.792Z" transform="translate(-1414.854 1462.343)" fill="#e8945b"/>
      <path id="Trazado_388778" data-name="Trazado 388778" d="M1802.182,885.414a5.607,5.607,0,0,0,.452-1.72,1.924,1.924,0,0,0-2.486-1.915,2.726,2.726,0,0,0-1.059.585c-.39.354-.922,1.073.023,2.7l.265.557Z" transform="translate(-1386.154 1533.596)" fill="#233862"/>
      <path id="Trazado_388779" data-name="Trazado 388779" d="M1800.983,901.306s2.5-.319,2.281-1.875-.049-2.645-1.657-2.508-1.833.776-1.885,1.313.6,3.112,1.261,3.069" transform="translate(-1387.229 1519.163)" fill="#ffb27d"/>
      <path id="Trazado_388780" data-name="Trazado 388780" d="M1813.821,892.005s.947,1.727,2.035,1.845a2.087,2.087,0,0,0,1.5-.228,3,3,0,0,1-1.225-1.616s-1.923-.945-2.313,0" transform="translate(-1400.586 1524.207)" fill="#233862"/>
      <path id="Trazado_388781" data-name="Trazado 388781" d="M1796.792,897.59a2.227,2.227,0,0,0-.519.9c-.067.414-.006,1.238-.248,1.245,0,0-.694-1.167-.216-1.952.506-.833.983-.188.983-.188" transform="translate(-1383.367 1518.746)" fill="#233862"/>
      <path id="Trazado_388782" data-name="Trazado 388782" d="M1815.808,893.8a4.259,4.259,0,0,0,2.175,2.263,4.621,4.621,0,0,1-1.788-2.229c-.294-1.245-.387-.033-.387-.033" transform="translate(-1402.469 1522.612)" fill="#233862"/>
      <path id="Trazado_388783" data-name="Trazado 388783" d="M1895.836,1116.292a5.829,5.829,0,0,1-1.972.465h0a2.208,2.208,0,0,1,.12-2.751c1.155-1.454-.09-4.136.8-5.6.619-1.015,1.221-.779,1.53-.542.029.247.061.495.1.742.452,2.9-.575,7.681-.575,7.681" transform="translate(-1475.998 1319.542)" fill="#5283db"/>
      <path id="Trazado_388784" data-name="Trazado 388784" d="M2011.27,1230.23s.154.357.368.381a4.508,4.508,0,0,1,1.121.394c.284.169.264.922-.019.993s-.426-.562-1.312-.731c-.3-.057-.739.15-.917-.57Z" transform="translate(-1586.889 1203.449)" fill="#ffb27d"/>
      <path id="Trazado_388785" data-name="Trazado 388785" d="M1904.306,1002.375c2.578.948,2.673,5.516,3.823,7.527,1.185,2.074,2.339,4.8,2.339,4.8s-.021.082-.463.208a1.851,1.851,0,0,1-.636.051,40.613,40.613,0,0,1-3.1-3.073,38.789,38.789,0,0,1-2.222-4.9s-.767-4.993.256-4.617" transform="translate(-1485.788 1419.289)" fill="#739af0"/>
      <path id="Trazado_388786" data-name="Trazado 388786" d="M2011.718,1242.466a.977.977,0,0,0,.443.555c.38.248.685.5.722.343s-.211-.319-.271-.6-.894-.295-.894-.295" transform="translate(-1588.032 1191.859)" fill="#ffb27d"/>
      <rect id="Rectángulo_253490" data-name="Rectángulo 253490" width="37.412" height="27.083" transform="translate(364.181 2419.116)" fill="#f78e48"/>
      <path id="Trazado_388787" data-name="Trazado 388787" d="M1079.431,1552.122v3.653c0,.045,0,.09,0,.134H1060.72c0-.044,0-.089,0-.134v-3.653c0-1.667,1.076-3.03,2.391-3.03h13.933c1.315,0,2.391,1.363,2.391,3.03" transform="translate(-687.257 901.427)" fill="#f78248"/>
      <path id="Trazado_388788" data-name="Trazado 388788" d="M1215.931,1595.873l-1.2-1.078.338-.378.778.7,1.076-1.54.416.291Z" transform="translate(-833.134 859.295)" fill="#ffe3ca"/>
      <path id="Trazado_388789" data-name="Trazado 388789" d="M1198.083,1576.312a2.3,2.3,0,1,1,2.305-2.305,2.308,2.308,0,0,1-2.305,2.305m0-4.492a2.187,2.187,0,1,0,2.186,2.186,2.189,2.189,0,0,0-2.186-2.186" transform="translate(-815.185 880.011)" fill="#ffe3ca"/>
      <path id="Trazado_388790" data-name="Trazado 388790" d="M948.459,562.058a3,3,0,0,1,2.938-1.715s3.007-3.215,6.215-.429a10.493,10.493,0,0,1,5.934.6,5.756,5.756,0,0,1,2.239,1.76Z" transform="translate(-580.928 1839.438)" fill="#ebf3fa"/>
      <path id="Trazado_388791" data-name="Trazado 388791" d="M1170.52,518.052h.032a.535.535,0,0,0,.355-.138,2.36,2.36,0,0,1,3.192-.251.519.519,0,0,0,.4.105,5.419,5.419,0,0,1,3.123.393l.09.049a.522.522,0,0,1-.266.975l-6.909-.09a.522.522,0,0,1-.015-1.044" transform="translate(-790.789 1878.884)" fill="#ebf3fa"/>
      <path id="Trazado_388792" data-name="Trazado 388792" d="M1331.4,1027.453h-7.427a2.326,2.326,0,0,1-2.323-2.323v-15.683a2.326,2.326,0,0,1,2.323-2.323h7.427a2.326,2.326,0,0,1,2.323,2.323v15.683a2.326,2.326,0,0,1-2.323,2.323m-7.427-20.093a2.089,2.089,0,0,0-2.086,2.086v15.683a2.089,2.089,0,0,0,2.086,2.086h7.427a2.089,2.089,0,0,0,2.086-2.086v-15.683a2.089,2.089,0,0,0-2.086-2.086Z" transform="translate(-934.412 1414.772)" fill="#ffe3ca"/>
      <path id="Trazado_388793" data-name="Trazado 388793" d="M1034.808,1019.471h-10.729a1.709,1.709,0,0,1-1.709-1.709v-6.686a1.709,1.709,0,0,1,1.709-1.709h10.729a1.709,1.709,0,0,1,1.709,1.709v6.686a1.709,1.709,0,0,1-1.709,1.709" transform="translate(-650.935 1412.646)" fill="#ffe3ca"/>
      <path id="Trazado_388794" data-name="Trazado 388794" d="M1032.84,1238.559h-11.045a1.672,1.672,0,0,1-1.67-1.67v-5.219a1.672,1.672,0,0,1,1.67-1.67h11.045a1.671,1.671,0,0,1,1.67,1.67v5.219a1.671,1.671,0,0,1-1.67,1.67m-11.045-8.322a1.434,1.434,0,0,0-1.433,1.433v5.219a1.434,1.434,0,0,0,1.433,1.433h11.045a1.434,1.434,0,0,0,1.433-1.433v-5.219a1.434,1.434,0,0,0-1.433-1.433Z" transform="translate(-648.809 1203.667)" fill="#ffe3ca"/>
      <path id="Trazado_388795" data-name="Trazado 388795" d="M1377.492,1056.3c0,1.833,3.087,4.764,3.087,4.764s3.088-2.931,3.088-4.764a3.1,3.1,0,1,0-6.175,0m1.268-.195a1.819,1.819,0,1,1,1.819,1.819,1.823,1.823,0,0,1-1.819-1.819" transform="translate(-987.302 1371.336)" fill="#ffe3ca"/>
      <path id="Trazado_388796" data-name="Trazado 388796" d="M1155.031,1101.025h-.146l-.015,0-1.121.306a.059.059,0,0,1-.041,0l-1.575-.606c-.04-.019.2-.138.239-.165.394-.287,1.643-.985,2.112-1.3a.1.1,0,0,0-.033-.185.224.224,0,0,0-.127.008l-2.294.833-.308-.2a.1.1,0,0,0-.133.03l-.151.239a.1.1,0,0,0,.028.131l-.3.107a.06.06,0,0,1-.043,0l-1.412-.6a.586.586,0,0,0-.395-.024l-.163.048a.2.2,0,0,0-.133.257l.019.054a.626.626,0,0,0,.372.384l1.145.431a.06.06,0,0,1,.038.054l.01.495-.066-.042a.1.1,0,0,0-.133.03l-.151.239a.1.1,0,0,0,.03.133l.331.21.016.772a.316.316,0,0,0,.057.174c.045.065.093.138.11.13a15.782,15.782,0,0,0,.75-1.681c.01-.026.235.057.261.067l1.561.478a.058.058,0,0,1,.038.047l.069.455a.227.227,0,0,0,.071.133h0a.059.059,0,0,0,.09-.011l.363-.556a.059.059,0,0,1,.047-.027l.168-.005a.059.059,0,0,0,.039-.1l-.041-.039.847-.6a.059.059,0,0,0-.035-.108" transform="translate(-770.89 1327.679)" fill="#f78e48"/>
      <path id="Trazado_388797" data-name="Trazado 388797" d="M1178.957,1271.922a2.309,2.309,0,1,1,2.309-2.309,2.312,2.312,0,0,1-2.309,2.309m0-4.366a2.056,2.056,0,1,0,2.056,2.056,2.059,2.059,0,0,0-2.056-2.056" transform="translate(-797.066 1168.333)" fill="#ffe3ca"/>
      <path id="Trazado_388798" data-name="Trazado 388798" d="M1218.383,1290.945h-.032a.08.08,0,0,1-.08-.08v-1.286a.08.08,0,0,1,.08-.08h.032a.08.08,0,0,1,.08.08v1.286a.08.08,0,0,1-.08.08" transform="translate(-836.49 1147.31)" fill="#ffe3ca"/>
      <path id="Trazado_388799" data-name="Trazado 388799" d="M1219.279,1291.617l0,0a.046.046,0,0,1,0-.065l1.284-1.284a.047.047,0,0,1,.065,0l0,0a.046.046,0,0,1,0,.065l-1.284,1.284a.046.046,0,0,1-.065,0" transform="translate(-837.43 1146.597)" fill="#ffe3ca"/>
      <path id="Trazado_388800" data-name="Trazado 388800" d="M1217.7,1312.959a.126.126,0,1,1,.126.126.126.126,0,0,1-.126-.126" transform="translate(-835.948 1125.209)" fill="#ffe3ca"/>
      <rect id="Rectángulo_253491" data-name="Rectángulo 253491" width="5.077" height="0.527" transform="translate(372.957 2435.18)" fill="#ffe3ca"/>
      <rect id="Rectángulo_253492" data-name="Rectángulo 253492" width="5.077" height="0.53" transform="translate(372.957 2436.382)" fill="#ffe3ca"/>
      <rect id="Rectángulo_253493" data-name="Rectángulo 253493" width="3.044" height="0.53" transform="translate(372.957 2437.588)" fill="#ffe3ca"/>
      <rect id="Rectángulo_253494" data-name="Rectángulo 253494" width="5.077" height="0.527" transform="translate(390.738 2435.202)" fill="#ffe3ca"/>
      <rect id="Rectángulo_253495" data-name="Rectángulo 253495" width="5.077" height="0.53" transform="translate(390.738 2436.404)" fill="#ffe3ca"/>
      <rect id="Rectángulo_253496" data-name="Rectángulo 253496" width="3.044" height="0.53" transform="translate(390.738 2437.61)" fill="#ffe3ca"/>
      <rect id="Rectángulo_253497" data-name="Rectángulo 253497" width="5.077" height="0.527" transform="translate(373.272 2424.338)" fill="#f78e48"/>
      <rect id="Rectángulo_253498" data-name="Rectángulo 253498" width="5.077" height="0.53" transform="translate(373.272 2425.54)" fill="#f78e48"/>
      <rect id="Rectángulo_253499" data-name="Rectángulo 253499" width="3.044" height="0.53" transform="translate(373.272 2426.745)" fill="#f78e48"/>
      <path id="Trazado_388801" data-name="Trazado 388801" d="M1693.12,96.932a.119.119,0,0,1-.118-.108s-.019-.209-.058-.576a.119.119,0,0,1,.236-.025c.039.368.059.577.059.579a.118.118,0,0,1-.107.129h-.011m-.122-1.15a.118.118,0,0,1-.118-.105c-.02-.173-.042-.364-.067-.57a.118.118,0,1,1,.235-.028c.025.207.047.4.067.572a.119.119,0,0,1-.1.131H1693m-.137-1.141a.119.119,0,0,1-.118-.1q-.034-.272-.073-.569a.119.119,0,1,1,.235-.031q.039.3.074.57a.119.119,0,0,1-.1.132h-.015m-.15-1.138a.119.119,0,0,1-.117-.1q-.038-.276-.08-.568a.119.119,0,0,1,.235-.034q.041.292.08.569a.119.119,0,0,1-.1.134h-.016m-.163-1.136a.118.118,0,0,1-.117-.1q-.042-.278-.086-.566a.119.119,0,1,1,.234-.036q.045.289.086.568a.118.118,0,0,1-.1.135h-.018m-.175-1.134a.119.119,0,0,1-.117-.1q-.045-.279-.092-.565a.119.119,0,0,1,.234-.039q.048.287.093.567a.119.119,0,0,1-.1.136l-.019,0m-.188-1.131a.119.119,0,0,1-.117-.1q-.048-.279-.1-.564a.119.119,0,0,1,.233-.042q.051.285.1.565a.119.119,0,0,1-.1.137l-.02,0m-.2-1.129a.118.118,0,0,1-.116-.1q-.052-.279-.106-.562a.118.118,0,1,1,.233-.045q.055.284.107.564a.119.119,0,0,1-.095.138l-.022,0m-.217-1.126a.119.119,0,0,1-.116-.1q-.056-.279-.114-.561a.119.119,0,0,1,.232-.048q.058.282.114.563a.119.119,0,0,1-.093.139l-.023,0m-.233-1.122a.119.119,0,0,1-.116-.094q-.06-.278-.123-.557a.119.119,0,0,1,.232-.052q.063.28.123.559a.118.118,0,0,1-.091.141l-.025,0m-.251-1.117a.118.118,0,0,1-.115-.092q-.066-.279-.133-.558a.118.118,0,1,1,.23-.056q.068.28.134.56a.119.119,0,0,1-.116.145m-.271-1.115a.119.119,0,0,1-.115-.089q-.07-.278-.143-.554a.119.119,0,1,1,.229-.061q.073.277.144.556a.119.119,0,0,1-.086.144.12.12,0,0,1-.029,0m-.293-1.108a.119.119,0,0,1-.114-.087q-.077-.276-.156-.55a.119.119,0,0,1,.228-.066q.08.275.157.553a.119.119,0,0,1-.083.146.122.122,0,0,1-.032,0m-.319-1.1a.118.118,0,0,1-.113-.084c-.056-.183-.113-.366-.171-.545a.119.119,0,0,1,.226-.072c.058.18.115.365.172.549a.119.119,0,0,1-.113.153m-.35-1.091a.118.118,0,0,1-.112-.081c-.062-.182-.125-.363-.188-.539a.119.119,0,0,1,.223-.08c.064.178.127.36.189.543a.118.118,0,0,1-.074.15.116.116,0,0,1-.038.006m-11.634-.381a.118.118,0,0,1-.11-.162q.061-.157.123-.309a.119.119,0,1,1,.22.089q-.061.151-.122.306a.119.119,0,0,1-.11.075m11.247-.7a.119.119,0,0,1-.111-.076c-.069-.181-.139-.359-.209-.531a.119.119,0,0,1,.22-.089c.07.173.141.354.211.536a.119.119,0,0,1-.111.161m-10.9-.138a.118.118,0,0,1-.109-.165c.077-.179.155-.356.233-.525a.118.118,0,1,1,.215.1c-.077.168-.155.343-.231.52a.119.119,0,0,1-.109.072m10.473-.923a.119.119,0,0,1-.109-.071c-.078-.178-.157-.353-.235-.519a.118.118,0,1,1,.214-.1c.079.168.159.345.238.525a.119.119,0,0,1-.061.156.117.117,0,0,1-.047.01m-10-.116a.116.116,0,0,1-.052-.012.119.119,0,0,1-.054-.159c.087-.176.175-.348.262-.513a.119.119,0,1,1,.209.111c-.086.162-.173.333-.258.506a.118.118,0,0,1-.106.066m9.507-.92a.118.118,0,0,1-.105-.065c-.088-.172-.179-.34-.269-.5a.119.119,0,0,1,.207-.116c.091.163.183.334.273.509a.118.118,0,0,1-.105.173m-8.97-.09a.119.119,0,0,1-.1-.178c.1-.17.2-.336.3-.494a.119.119,0,1,1,.2.127c-.1.155-.2.318-.293.485a.118.118,0,0,1-.1.059m8.407-.907a.118.118,0,0,1-.1-.056c-.1-.164-.208-.323-.314-.471a.119.119,0,0,1,.194-.137c.108.152.216.314.321.482a.119.119,0,0,1-.1.182m-7.794-.058a.119.119,0,0,1-.1-.187c.114-.162.231-.318.347-.464a.118.118,0,1,1,.185.148c-.113.142-.226.294-.338.453a.118.118,0,0,1-.1.05m7.13-.873a.118.118,0,0,1-.091-.043c-.123-.15-.249-.29-.374-.417a.119.119,0,1,1,.169-.166c.13.132.261.278.388.433a.118.118,0,0,1-.092.194m-6.417-.02a.118.118,0,0,1-.087-.2c.134-.147.272-.286.41-.413a.119.119,0,1,1,.161.174c-.133.122-.266.256-.4.4a.119.119,0,0,1-.088.038m.843-.771a.118.118,0,0,1-.071-.213,4.771,4.771,0,0,1,.489-.322.119.119,0,0,1,.118.206,4.53,4.53,0,0,0-.465.306.118.118,0,0,1-.071.024m4.772-.017a.119.119,0,0,1-.074-.026,3.778,3.778,0,0,0-.452-.315.119.119,0,1,1,.12-.2,4.05,4.05,0,0,1,.48.334.119.119,0,0,1-.075.211m-3.78-.546a.119.119,0,0,1-.044-.229,3.832,3.832,0,0,1,.563-.174.119.119,0,1,1,.052.231,3.588,3.588,0,0,0-.528.164.119.119,0,0,1-.044.008m2.8-.023a.119.119,0,0,1-.041-.007,2.6,2.6,0,0,0-.266-.081c-.091-.022-.181-.043-.268-.06a.119.119,0,1,1,.046-.233c.091.018.185.039.279.062a2.845,2.845,0,0,1,.291.089.119.119,0,0,1-.04.23m-1.119-.225h-.009a3.9,3.9,0,0,0-.555,0,.119.119,0,0,1-.016-.237,4.147,4.147,0,0,1,.589,0,.119.119,0,0,1-.009.237" transform="translate(-1272.219 2298.391)" fill="#f78e48"/>
      <path id="Trazado_388803" data-name="Trazado 388803" d="M885.04,723.486s1.615-.112,1.967,1.155a4.239,4.239,0,0,1,3.871-2.325c2.627.209,3.113,1.754,3.113,1.754a3.8,3.8,0,0,1,2.755.172,2.193,2.193,0,0,1,1.17,1.953,3.242,3.242,0,0,1,3.45-1.034s-.46-2.326,2.311-2.858,3.947.387,3.947.387a4.969,4.969,0,0,1,5.915.512s2.035-.4,3.03.858a6.816,6.816,0,0,1,5.874-2.031v12.18H885.024Z" transform="translate(-520.844 1684.906)" fill="#d7e2ff"/>
      <path id="Trazado_388804" data-name="Trazado 388804" d="M885.039,863.888a7.022,7.022,0,0,1,5.141.913,2.4,2.4,0,0,1,2.13-.53,2.379,2.379,0,0,1,1.963,1.6s5.385-1.779,8.052,2.667h-17.3Z" transform="translate(-520.844 1550.582)" fill="#ebf3fa"/>
      <path id="Trazado_388805" data-name="Trazado 388805" d="M1275.365,777.457a3.783,3.783,0,0,1,2.984-3.378,1.611,1.611,0,0,1-.731-2.272,3.2,3.2,0,0,1,2.547-1.738s.189-2.931,5.306-2.425a3.374,3.374,0,0,1,3.2,2.5,1.941,1.941,0,0,1,1.7-.852,1.785,1.785,0,0,1,1.8-1.652v9.813Z" transform="translate(-890.569 1641.659)" fill="#ebf3fa"/>
      <path id="Trazado_388806" data-name="Trazado 388806" d="M1376.662,509.856l-2.148,7.441-.068-.008-7.338-.891s3.4-.707,3.752-1.115c.333-.384,3.862-4.944,4.894-5.431a.347.347,0,0,1,.161-.042Z" transform="translate(-977.466 1885.821)" fill="#739af0"/>
      <path id="Trazado_388807" data-name="Trazado 388807" d="M1374.447,518.043l-7.338-.891s3.4-.707,3.752-1.115c.333-.384,3.862-4.944,4.894-5.431-.914,1.327-3.032,4.517-2.942,5.444.086.883,1.119,1.659,1.635,1.994" transform="translate(-977.467 1885.067)" fill="#2b478b"/>
      <path id="Trazado_388808" data-name="Trazado 388808" d="M925.021,604.74c-.25.086-1,.322-2.026.62-2.953.859-8.206,2.238-10.524,2.068-2.08-.153-13.077-.992-20.684-1.659a13.98,13.98,0,0,1,6.236-6c8.863.726,20.453,1.707,21.928,1.992,2.426.469,5.644.85,5.644.85s.022.1.042.255c.068.507.126,1.616-.617,1.872" transform="translate(-527.249 1800.61)" fill="#e58638"/>
      <path id="Trazado_388809" data-name="Trazado 388809" d="M709.8,587.974c0,.018,0,.037,0,.056a1.537,1.537,0,0,1-.374,1.113l-.03.026c-.02.017-.042.032-.063.047h0l-.034.021-.035.02h0l-.037.018-.039.017-.04.015-.012,0h0l-.013,0-.013,0h0l-.014,0h0l-.015,0-.016,0h0l-.016.005-.017.005h0l-.017.006-.018.006-.039.013h0l-.02.006h0l-.021.006-.015,0-.185.059-.038.012c-.178.056-.393.123-.641.2l-.078.023-.133.04-.029.009-.042.013-.042.012-.043.013-.043.013-.043.013-.044.013-.044.013h0l-.045.013-.033.01-.013,0-.046.013-.236.069-.14.041-.123.035-.093.027-.375.107-.077.022-.135.038-.123.035-.138.038c-1.535.426-3.4.9-5.121,1.251l-.181.036-.089.018-.18.034q-.268.051-.53.1l-.173.03-.086.014-.171.028-.169.026-.166.025-.164.024-.162.022-.16.021-.079.01-.309.035-.076.008-.149.014c-.1.008-.194.016-.288.022-.07.005-.14.009-.207.012l-.134.006c-.066,0-.131,0-.194,0-.085,0-.167,0-.246,0l-.117,0-.057,0-.111-.006-.041,0h-.01l-.027,0-.108-.008-.031,0-.039,0-.061,0-.034,0-.034,0-.071-.005-.073-.005-.038,0-.1-.008-.046,0-.1-.007-.044,0-.129-.01-.39-.029-.051,0-.1-.007-.161-.012-.067-.005-.157-.012-.058,0-.11-.008-.122-.01-.065,0-.061,0-.1-.008-.591-.045-.09-.007-.138-.011-.326-.025-.026,0-.291-.022h-.014l-1.884-.146-.1-.008-.409-.031-.26-.021h-.014l-.3-.023-.037,0-.536-.042-.139-.011-.043,0-.478-.038-.211-.016-.14-.011-.285-.023-.43-.034-.038,0-.178-.014h-.013l-.534-.042-.015,0-.056,0-.316-.025-.239-.019-.149-.012-.624-.049h-.005l-1.044-.084-.143-.012h-.01l-.461-.037-.142-.012-.4-.032-.807-.066-.51-.042-.319-.027-.76-.062-.036,0-.475-.039-.673-.056-.268-.023-.082-.007-.538-.045-.079-.006-.366-.031-1.517-.13-.179-.016-.108-.009-.145-.013-.287-.025c-1.844-.162-3.489-.313-4.759-.443l-.376-.038c-.3-.031-.578-.061-.826-.09-.7-.079-1.183-.146-1.373-.194a14.22,14.22,0,0,1-3.792-1.648c-.633-.427-1.025-.864-.88-1.223a1.9,1.9,0,0,1,1-.938c.358-.177.724-.3.963-.437l.04-.024a.824.824,0,0,0,.116-.086l.017-.016a5.982,5.982,0,0,1,.469-.393,5.679,5.679,0,0,1,.536-.356l0,0a8.127,8.127,0,0,1,4.8-.938s4.583.362,10.3.831h0l1.74.143h0l.591.049.9.074h0l1.507.125.3.025.606.051,1.215.1.6.051,2.141.182h0c2.038.175,3.993.345,5.727.5h0l.273.025c1.018.093,1.954.18,2.78.26l1.106.11c1.236.126,2.1.227,2.434.292.874.169,1.851.327,2.742.459l.219.032.011,0,.326.047.01,0,.363.051.494.068.2.027c.77.1,1.282.163,1.282.163s0,.014.008.039l0,.006c0,.007,0,.014,0,.023s.006.036.01.058.01.062.015.1h0c0,.009,0,.019,0,.028,0,.031.008.064.012.1l.008.077c0,.014,0,.029,0,.044s0,.033,0,.05l0,.074c0,.01,0,.02,0,.03s0,.036,0,.053,0,.019,0,.028,0,.037,0,.055,0,.019,0,.028" transform="translate(-311.37 1816.043)" fill="#d7e2ff"/>
      <path id="Trazado_388810" data-name="Trazado 388810" d="M1117.215,617.794c0,.018,0,.037,0,.056a1.537,1.537,0,0,1-.374,1.113l-.03.026a.789.789,0,0,1-.063.047h0l-.034.021-.035.02h0l-.037.018-.039.017-.04.015-.012,0h0l-.013,0-.013,0h0l-.015,0h0l-.015,0-.016,0h0l-.016.005-.017.005h0l-.018.006-.018.006-.039.013h0l-.02.006h0l-.021.006-.016,0-.185.059-.038.012c-.178.056-.393.123-.641.2l-.078.023-.133.04-.029.009-.042.013-.042.012-.043.013-.043.013-.043.013-.044.013-.044.013h0l-.045.013-.032.01-.013,0-.046.013-.236.069-.14.041-.123.035-.093.027-.375.107-.078.022-.135.038-.123.035-.138.038c-1.535.426-3.4.9-5.121,1.251l-.181.036-.09.018-.18.034q-.268.051-.53.1l-.173.03-.086.014-.171.028-.169.026-.166.025-.164.024-.162.022-.16.021-.079.01-.309.035-.076.008-.149.014c-.1.008-.194.016-.288.022-.071.005-.14.009-.208.012l-.134.006c-.066,0-.131,0-.194,0-.085,0-.167,0-.246,0l-.117,0-.057,0-.111-.006-.04,0h-.009l-.027,0-.108-.008-.031,0-.039,0-.061,0-.033,0-.034,0-.071-.005-.074-.005-.038,0-.1-.007-.046,0-.1-.007-.044,0-.129-.01-.39-.029-.051,0-.1-.007-.161-.012-.067-.005-.157-.012-.058,0-.11-.008-.121-.01-.065,0-.061,0-.1-.008-.591-.045-.089-.007-.138-.011-.326-.025-.026,0-.291-.022h-.014l-1.884-.146-.1-.008-.409-.031-.26-.021h-.014l-.3-.023-.037,0-.536-.042-.139-.011-.043,0-.478-.038-.21-.016-.14-.011-.285-.023-.43-.034-.038,0-.178-.014h-.013l-.533-.042-.015,0-.055,0a11.411,11.411,0,0,0,5.16-6.08h0c2.038.175,3.993.345,5.727.5h0l.273.025c1.018.093,1.954.18,2.78.26l1.106.11c1.236.126,2.1.227,2.434.292.874.169,1.85.327,2.742.459l.219.032.011,0,.326.047.009,0,.363.051.494.068.2.027c.77.1,1.282.163,1.282.163s0,.014.008.039l0,.006c0,.007,0,.014,0,.023s.006.036.01.058.01.062.015.1h0c0,.009,0,.019,0,.028,0,.031.009.064.012.1l.008.077c0,.014,0,.029,0,.044s0,.033,0,.05l0,.074c0,.01,0,.02,0,.03s0,.036,0,.053,0,.019,0,.028,0,.037,0,.055,0,.019,0,.028" transform="translate(-718.788 1786.223)" fill="#f99746"/>
      <g id="Grupo_685056" data-name="Grupo 685056" transform="translate(394.298 2403.478)" opacity="0.5">
        <g id="Grupo_685055" data-name="Grupo 685055">
          <g id="Grupo_685054" data-name="Grupo 685054" clip-path="url(#clip-path-10)">
            <path id="Trazado_388811" data-name="Trazado 388811" d="M1458.756,660.282c-.25.086-1,.322-2.026.62a3.271,3.271,0,0,0-1.448-2.035l4.091-.457c.068.507.126,1.617-.617,1.872" transform="translate(-1455.282 -658.41)" fill="#e27727"/>
          </g>
        </g>
      </g>
      <path id="Trazado_388812" data-name="Trazado 388812" d="M1102.962,643.032h0a.259.259,0,0,1-.218-.293l.026-.288a.262.262,0,0,1,.268-.251.259.259,0,0,1,.218.293l-.026.288a.262.262,0,0,1-.268.251" transform="translate(-727.063 1760.424)" fill="#2b478b"/>
      <path id="Trazado_388813" data-name="Trazado 388813" d="M1079.238,640.983h0a.259.259,0,0,1-.218-.293l.026-.288a.262.262,0,0,1,.268-.251.259.259,0,0,1,.218.293l-.026.288a.262.262,0,0,1-.268.251" transform="translate(-704.593 1762.365)" fill="#2b478b"/>
      <path id="Trazado_388814" data-name="Trazado 388814" d="M1055.512,638.934h0a.259.259,0,0,1-.218-.293l.026-.288a.262.262,0,0,1,.268-.251.259.259,0,0,1,.218.293l-.026.288a.262.262,0,0,1-.268.251" transform="translate(-682.119 1764.305)" fill="#2b478b"/>
      <path id="Trazado_388815" data-name="Trazado 388815" d="M1031.787,636.886h0a.259.259,0,0,1-.218-.293l.026-.288a.262.262,0,0,1,.268-.251.259.259,0,0,1,.218.293l-.026.288a.262.262,0,0,1-.267.251" transform="translate(-659.648 1766.245)" fill="#2b478b"/>
      <path id="Trazado_388816" data-name="Trazado 388816" d="M1008.061,634.836h0a.259.259,0,0,1-.218-.293l.026-.288a.262.262,0,0,1,.268-.251.259.259,0,0,1,.218.293l-.026.288a.262.262,0,0,1-.268.251" transform="translate(-637.174 1768.187)" fill="#2b478b"/>
      <path id="Trazado_388817" data-name="Trazado 388817" d="M984.335,632.787h0a.26.26,0,0,1-.218-.293l.026-.288a.262.262,0,0,1,.268-.251.26.26,0,0,1,.218.293l-.026.288a.262.262,0,0,1-.268.251" transform="translate(-614.702 1770.128)" fill="#2b478b"/>
      <path id="Trazado_388818" data-name="Trazado 388818" d="M960.611,630.738h0a.259.259,0,0,1-.218-.293l.026-.288a.262.262,0,0,1,.268-.251.259.259,0,0,1,.218.293l-.026.288a.262.262,0,0,1-.268.251" transform="translate(-592.23 1772.068)" fill="#2b478b"/>
      <path id="Trazado_388819" data-name="Trazado 388819" d="M936.886,628.69h0a.259.259,0,0,1-.218-.293l.026-.288a.262.262,0,0,1,.268-.251.259.259,0,0,1,.218.293l-.026.288a.262.262,0,0,1-.268.251" transform="translate(-569.758 1774.008)" fill="#2b478b"/>
      <path id="Trazado_388820" data-name="Trazado 388820" d="M913.16,626.642h0a.259.259,0,0,1-.218-.293l.026-.288a.245.245,0,1,1,.486.042l-.026.288a.262.262,0,0,1-.267.251" transform="translate(-547.285 1775.948)" fill="#2b478b"/>
      <path id="Trazado_388821" data-name="Trazado 388821" d="M889.908,624.633h0a.259.259,0,0,1-.218-.293l.026-.288a.262.262,0,0,1,.268-.251.259.259,0,0,1,.218.293l-.026.288a.262.262,0,0,1-.268.251" transform="translate(-525.262 1777.85)" fill="#2b478b"/>
      <path id="Trazado_388822" data-name="Trazado 388822" d="M866.182,622.584h0a.259.259,0,0,1-.218-.293l.026-.288a.262.262,0,0,1,.268-.251.259.259,0,0,1,.218.293l-.026.288a.262.262,0,0,1-.268.251" transform="translate(-502.789 1779.792)" fill="#2b478b"/>
      <path id="Trazado_388823" data-name="Trazado 388823" d="M842.457,620.536h0a.259.259,0,0,1-.218-.293l.026-.288a.245.245,0,1,1,.486.042l-.026.288a.262.262,0,0,1-.268.251" transform="translate(-480.316 1781.732)" fill="#2b478b"/>
      <path id="Trazado_388824" data-name="Trazado 388824" d="M813.066,617.722h0a.259.259,0,0,1-.218-.293l.026-.288a.262.262,0,0,1,.268-.251.259.259,0,0,1,.218.293l-.026.288a.262.262,0,0,1-.268.251" transform="translate(-452.477 1784.397)" fill="#2b478b"/>
      <path id="Trazado_388825" data-name="Trazado 388825" d="M1361.826,668.151h0a.259.259,0,0,1-.219-.293l.026-.288a.245.245,0,1,1,.486.042l-.026.288a.262.262,0,0,1-.267.251" transform="translate(-972.255 1736.631)" fill="#2b478b"/>
      <path id="Trazado_388826" data-name="Trazado 388826" d="M1338.1,666.1h0a.259.259,0,0,1-.218-.293l.026-.288a.262.262,0,0,1,.268-.251.259.259,0,0,1,.218.293l-.026.288a.262.262,0,0,1-.268.251" transform="translate(-949.783 1738.572)" fill="#2b478b"/>
      <path id="Trazado_388827" data-name="Trazado 388827" d="M1314.375,664.053h0a.259.259,0,0,1-.218-.293l.026-.288a.245.245,0,1,1,.486.042l-.026.288a.262.262,0,0,1-.268.251" transform="translate(-927.311 1740.513)" fill="#2b478b"/>
      <path id="Trazado_388828" data-name="Trazado 388828" d="M703.731,601.834l-.854.806-.51.033a.832.832,0,0,0,.116-.086l.017-.016a6.023,6.023,0,0,1,.468-.393,5.724,5.724,0,0,1,.536-.356l0,0Z" transform="translate(-347.834 1798.669)" fill="#2b478b"/>
      <path id="Trazado_388829" data-name="Trazado 388829" d="M716.762,602.647l-.834.814.947.2.3-.929Z" transform="translate(-360.678 1797.885)" fill="#2b478b"/>
      <path id="Trazado_388830" data-name="Trazado 388830" d="M737.262,604.819l-.22.872.7-.2.045-.608Z" transform="translate(-380.677 1795.829)" fill="#2b478b"/>
      <path id="Trazado_388831" data-name="Trazado 388831" d="M1035.38,701.916a.687.687,0,0,0,.16-1.059,2.085,2.085,0,0,0-1.19-.585c-.964-.07-.572,1.892-.253,1.932a3.876,3.876,0,0,0,1.282-.288" transform="translate(-661.706 1705.419)" fill="#2b478b"/>
      <path id="Trazado_388832" data-name="Trazado 388832" d="M1452.487,644.459c.039-.052,3.625-1.234,5.969-.72l-2.257,1.421-3.629-.312a.241.241,0,0,1-.083-.389" transform="translate(-1058.271 1759.086)" fill="#355daf"/>
      <path id="Trazado_388833" data-name="Trazado 388833" d="M1038.272,503s-2.4,5.3-2.857,6.11a4.009,4.009,0,0,1-1.456,1.319l-.006,0-6.36,2.584s-7.933-.626-9.66-.816h0c-.157-.018-.262-.031-.306-.041-.525-.112-.77-.355-.669-.547s12.3-1.654,13.648-1.8l.038,0c1.314-.155,1.437-.6,1.437-.6l5.032-5.768a.69.69,0,0,1,.292-.247,2.358,2.358,0,0,1,.867-.186" transform="translate(-645.788 1892.271)" fill="#d7e2ff"/>
      <path id="Trazado_388834" data-name="Trazado 388834" d="M1037.4,506.528c-1.354,1.644-5.1,6.176-5.456,6.485-.383.332-11.327,2.091-14.016,2.528h0c-.157-.017-.262-.031-.306-.04-.525-.112-.77-.355-.669-.547s12.3-1.654,13.648-1.8,1.475-.607,1.475-.607l5.032-5.768a.69.69,0,0,1,.292-.247" transform="translate(-645.788 1888.929)" fill="#739af0"/>
      <path id="Trazado_388835" data-name="Trazado 388835" d="M1284.136,503s-2.4,5.3-2.857,6.11a4.007,4.007,0,0,1-1.456,1.319l-.006,0a10.581,10.581,0,0,1-3.309-.628c1.314-.155,1.437-.6,1.437-.6l5.032-5.768a.688.688,0,0,1,.292-.247,2.359,2.359,0,0,1,.867-.186" transform="translate(-891.652 1892.271)" fill="#d7e2ff"/>
      <path id="Trazado_388836" data-name="Trazado 388836" d="M956.343,679.046l-.241,2.676a7.287,7.287,0,0,1-2.621.283,5.684,5.684,0,0,1-1.99-.425,2.088,2.088,0,0,1-.336-.179l.253-2.805a.921.921,0,0,1,.368-.171c1.264-.324,4.372.514,4.372.514Z" transform="translate(-583.481 1726.182)" fill="#e9f0ff"/>
      <path id="Trazado_388837" data-name="Trazado 388837" d="M951.775,679.761l-.285,3.155a2.1,2.1,0,0,1-.336-.178l.253-2.805a.921.921,0,0,1,.368-.171" transform="translate(-583.481 1724.846)" fill="#ff9843"/>
      <path id="Trazado_388838" data-name="Trazado 388838" d="M460.918,783.793l18.792-5.016c.4-.106.662-.424.587-.706l-10.537-39.612c-.075-.282-.462-.426-.86-.319l-18.792,5.016c-.4.106-.662.424-.587.706l10.537,39.612c.075.282.462.426.86.32" transform="translate(-108.329 1669.583)" fill="#ffe3ca"/>
      <path id="Trazado_388839" data-name="Trazado 388839" d="M460.918,866.984l1.545-.412-10.809-40.638-1.545.412c-.4.106-.662.424-.587.706l10.537,39.612c.075.282.462.426.86.32" transform="translate(-108.329 1586.392)" fill="#f2be8f"/>
      <g id="Grupo_685059" data-name="Grupo 685059" transform="translate(352.514 2413.747)" opacity="0.5">
        <g id="Grupo_685058" data-name="Grupo 685058">
          <g id="Grupo_685057" data-name="Grupo 685057" clip-path="url(#clip-path-11)">
            <rect id="Rectángulo_253501" data-name="Rectángulo 253501" width="2.496" height="12.305" transform="translate(0 0.643) rotate(-14.895)" fill="#eabc92"/>
          </g>
        </g>
      </g>
      <g id="Grupo_685062" data-name="Grupo 685062" transform="translate(357.863 2412.319)" opacity="0.5">
        <g id="Grupo_685061" data-name="Grupo 685061">
          <g id="Grupo_685060" data-name="Grupo 685060" clip-path="url(#clip-path-12)">
            <rect id="Rectángulo_253503" data-name="Rectángulo 253503" width="2.496" height="17.514" transform="translate(0 0.643) rotate(-14.895)" fill="#eabc92"/>
          </g>
        </g>
      </g>
      <rect id="Rectángulo_253505" data-name="Rectángulo 253505" width="0.556" height="8.757" transform="matrix(0.966, -0.257, 0.257, 0.966, 356.712, 2413.269)" fill="#f2be8f"/>
      <rect id="Rectángulo_253506" data-name="Rectángulo 253506" width="0.556" height="8.757" transform="matrix(0.966, -0.257, 0.257, 0.966, 351.399, 2414.688)" fill="#f2be8f"/>
      <path id="Trazado_388840" data-name="Trazado 388840" d="M542.686,883.987l.05.139a.06.06,0,0,0,.007.014l.668.965a.061.061,0,0,1,.01.041l-.049,1.7c0,.045-.2-.147-.237-.173-.405-.279-1.49-1.235-1.943-1.578a.1.1,0,0,0-.165.094.225.225,0,0,0,.05.119l1.564,1.907-.083.359a.1.1,0,0,0,.073.117l.279.064a.1.1,0,0,0,.116-.07l.2.246a.059.059,0,0,1,.013.042l-.1,1.547a.593.593,0,0,0,.11.384l.1.139a.2.2,0,0,0,.29.04l.045-.036a.633.633,0,0,0,.241-.483l.026-1.235a.059.059,0,0,1,.039-.055l.468-.176-.018.076a.1.1,0,0,0,.073.117l.279.064a.1.1,0,0,0,.117-.073L545,887.9l.73-.274a.319.319,0,0,0,.147-.112c.047-.065.1-.135.087-.148a15.943,15.943,0,0,0-1.853-.15c-.029,0-.024-.243-.024-.272l-.069-1.647a.06.06,0,0,1,.032-.052l.411-.219a.228.228,0,0,0,.1-.112v0a.06.06,0,0,0-.041-.082l-.652-.159a.06.06,0,0,1-.042-.036l-.061-.158a.06.06,0,0,0-.11,0l-.024.052-.857-.605a.06.06,0,0,0-.091.069" transform="translate(-195.013 1531.482)" fill="#f2be8f"/>
      <path id="Trazado_388841" data-name="Trazado 388841" d="M478.116,1077.89h-24.71V1043.7H478.16a1.694,1.694,0,0,1,1.694,1.694v30.76a1.739,1.739,0,0,1-1.739,1.739" transform="translate(-112.021 1380.13)" fill="#739af0"/>
      <path id="Trazado_388842" data-name="Trazado 388842" d="M517.8,1093.115v1.071h-.5V1091.3h1.1a1.347,1.347,0,0,1,.446.068.943.943,0,0,1,.33.191.812.812,0,0,1,.2.291.94.94,0,0,1,.07.366.958.958,0,0,1-.07.376.742.742,0,0,1-.2.281.93.93,0,0,1-.33.176,1.487,1.487,0,0,1-.446.061Zm0-.4h.6a.772.772,0,0,0,.249-.036.449.449,0,0,0,.171-.1.387.387,0,0,0,.1-.155.606.606,0,0,0,.031-.2.614.614,0,0,0-.031-.194.446.446,0,0,0-.1-.165.477.477,0,0,0-.171-.115.654.654,0,0,0-.249-.043h-.6Z" transform="translate(-172.535 1335.038)" fill="#aec3ff"/>
      <path id="Trazado_388843" data-name="Trazado 388843" d="M556.691,1093.514h-1.117l-.234.671h-.521l1.089-2.883h.449l1.091,2.883h-.523Zm-.976-.4h.835l-.418-1.2Z" transform="translate(-208.079 1335.039)" fill="#aec3ff"/>
      <path id="Trazado_388844" data-name="Trazado 388844" d="M609.666,1092.733a.441.441,0,0,0-.026-.156.309.309,0,0,0-.094-.126.777.777,0,0,0-.188-.11,2.91,2.91,0,0,0-.308-.11,2.941,2.941,0,0,1-.38-.141,1.311,1.311,0,0,1-.3-.184.791.791,0,0,1-.2-.242.667.667,0,0,1-.071-.313.7.7,0,0,1,.074-.321.761.761,0,0,1,.209-.253.988.988,0,0,1,.323-.166,1.377,1.377,0,0,1,.416-.059,1.28,1.28,0,0,1,.437.07.98.98,0,0,1,.328.191.821.821,0,0,1,.276.62h-.5a.551.551,0,0,0-.033-.193.4.4,0,0,0-.1-.153.462.462,0,0,0-.17-.1.744.744,0,0,0-.243-.036.79.79,0,0,0-.23.03.462.462,0,0,0-.161.083.327.327,0,0,0-.095.127.4.4,0,0,0-.031.158.317.317,0,0,0,.151.267,1.606,1.606,0,0,0,.462.2,2.709,2.709,0,0,1,.422.159,1.216,1.216,0,0,1,.3.2.712.712,0,0,1,.175.248.8.8,0,0,1,.057.31.728.728,0,0,1-.072.327.7.7,0,0,1-.206.247.967.967,0,0,1-.324.157,1.543,1.543,0,0,1-.424.054,1.507,1.507,0,0,1-.41-.057,1.16,1.16,0,0,1-.362-.17.894.894,0,0,1-.258-.284.787.787,0,0,1-.1-.4h.5a.524.524,0,0,0,.049.234.437.437,0,0,0,.133.161.565.565,0,0,0,.2.091,1.023,1.023,0,0,0,.247.029.618.618,0,0,0,.393-.106.342.342,0,0,0,.132-.28" transform="translate(-258.463 1335.749)" fill="#aec3ff"/>
      <path id="Trazado_388845" data-name="Trazado 388845" d="M656,1092.733a.438.438,0,0,0-.026-.156.309.309,0,0,0-.094-.126.778.778,0,0,0-.188-.11,2.9,2.9,0,0,0-.308-.11,2.965,2.965,0,0,1-.38-.141,1.308,1.308,0,0,1-.3-.184.792.792,0,0,1-.2-.242.667.667,0,0,1-.071-.313.7.7,0,0,1,.074-.321.762.762,0,0,1,.209-.253.987.987,0,0,1,.323-.166,1.376,1.376,0,0,1,.416-.059,1.282,1.282,0,0,1,.438.07.98.98,0,0,1,.328.191.823.823,0,0,1,.276.62H656a.55.55,0,0,0-.033-.193.4.4,0,0,0-.1-.153.463.463,0,0,0-.17-.1.744.744,0,0,0-.244-.036.79.79,0,0,0-.23.03.46.46,0,0,0-.161.083.325.325,0,0,0-.095.127.4.4,0,0,0-.031.158.317.317,0,0,0,.151.267,1.608,1.608,0,0,0,.462.2,2.708,2.708,0,0,1,.422.159,1.211,1.211,0,0,1,.3.2.711.711,0,0,1,.175.248.8.8,0,0,1,.057.31.727.727,0,0,1-.072.327.7.7,0,0,1-.206.247.966.966,0,0,1-.324.157,1.544,1.544,0,0,1-.424.054,1.507,1.507,0,0,1-.41-.057,1.159,1.159,0,0,1-.362-.17.893.893,0,0,1-.258-.284.786.786,0,0,1-.1-.4h.5a.522.522,0,0,0,.049.234.436.436,0,0,0,.133.161.564.564,0,0,0,.2.091,1.023,1.023,0,0,0,.247.029.617.617,0,0,0,.393-.106.341.341,0,0,0,.132-.28" transform="translate(-302.349 1335.749)" fill="#aec3ff"/>
      <path id="Trazado_388846" data-name="Trazado 388846" d="M703.955,1093.115v1.071h-.5V1091.3h1.1a1.348,1.348,0,0,1,.446.068.946.946,0,0,1,.33.191.812.812,0,0,1,.2.291.938.938,0,0,1,.07.366.956.956,0,0,1-.07.376.742.742,0,0,1-.2.281.932.932,0,0,1-.33.176,1.488,1.488,0,0,1-.446.061Zm0-.4h.6a.771.771,0,0,0,.248-.036.451.451,0,0,0,.171-.1.389.389,0,0,0,.1-.155.612.612,0,0,0,.031-.2.621.621,0,0,0-.031-.194.448.448,0,0,0-.1-.165.479.479,0,0,0-.171-.115.653.653,0,0,0-.248-.043h-.6Z" transform="translate(-348.862 1335.038)" fill="#aec3ff"/>
      <path id="Trazado_388847" data-name="Trazado 388847" d="M753.192,1092.109a1.872,1.872,0,0,1-.086.589,1.283,1.283,0,0,1-.243.442,1.055,1.055,0,0,1-.376.278,1.267,1.267,0,0,1-.972,0,1.085,1.085,0,0,1-.379-.278,1.28,1.28,0,0,1-.247-.442,1.831,1.831,0,0,1-.088-.589v-.146a1.842,1.842,0,0,1,.088-.59,1.308,1.308,0,0,1,.246-.444,1.055,1.055,0,0,1,.377-.279,1.27,1.27,0,0,1,.973,0,1.054,1.054,0,0,1,.378.279,1.283,1.283,0,0,1,.244.444,1.884,1.884,0,0,1,.086.59Zm-.5-.151a1.759,1.759,0,0,0-.047-.427.91.91,0,0,0-.135-.31.585.585,0,0,0-.219-.189.647.647,0,0,0-.294-.065.631.631,0,0,0-.289.065.593.593,0,0,0-.219.189.917.917,0,0,0-.139.31,1.686,1.686,0,0,0-.049.427v.151a1.7,1.7,0,0,0,.049.428.922.922,0,0,0,.139.312.6.6,0,0,0,.221.19.64.64,0,0,0,.29.064.59.59,0,0,0,.512-.253,1.278,1.278,0,0,0,.179-.74Z" transform="translate(-393.708 1335.749)" fill="#aec3ff"/>
      <path id="Trazado_388848" data-name="Trazado 388848" d="M806.59,1093.076h-.558v1.111h-.5V1091.3h1.014a1.583,1.583,0,0,1,.442.056.906.906,0,0,1,.328.166.705.705,0,0,1,.2.272.95.95,0,0,1,.069.376.81.81,0,0,1-.14.484.89.89,0,0,1-.389.3l.647,1.2v.026h-.536Zm-.558-.4h.515a.709.709,0,0,0,.235-.036.466.466,0,0,0,.168-.1.4.4,0,0,0,.1-.15.529.529,0,0,0,.034-.192.6.6,0,0,0-.032-.2.4.4,0,0,0-.1-.155.429.429,0,0,0-.167-.1.756.756,0,0,0-.245-.035h-.513Z" transform="translate(-445.548 1335.038)" fill="#aec3ff"/>
      <path id="Trazado_388849" data-name="Trazado 388849" d="M849.99,1091.707h-.9v2.479h-.5v-2.479H847.7v-.4h2.287Z" transform="translate(-485.493 1335.038)" fill="#aec3ff"/>
      <path id="Trazado_388850" data-name="Trazado 388850" d="M666.336,1613.336h-3.975a.232.232,0,1,1,0-.464h3.975a.232.232,0,1,1,0,.464" transform="translate(-309.72 841.014)" fill="#aec3ff"/>
      <path id="Trazado_388851" data-name="Trazado 388851" d="M618.375,1634.259h-9.639a.232.232,0,1,1,0-.464h9.639a.232.232,0,1,1,0,.464" transform="translate(-258.928 821.197)" fill="#aec3ff"/>
      <path id="Trazado_388852" data-name="Trazado 388852" d="M535.064,1219.529a9.428,9.428,0,1,1,6.667-2.761,9.366,9.366,0,0,1-6.667,2.761m0-18.752a9.324,9.324,0,1,0,6.593,2.731,9.264,9.264,0,0,0-6.593-2.731" transform="translate(-180.436 1231.444)" fill="#aec3ff"/>
      <path id="Trazado_388853" data-name="Trazado 388853" d="M576.129,1243.61a7.619,7.619,0,0,1-.122,1.362,7.562,7.562,0,0,1-14.351,1.7,7.427,7.427,0,0,1-.385-1.087,7.614,7.614,0,0,1-.089-3.582l0-.018a7.582,7.582,0,0,1,2.951-4.5c.155-.113.316-.22.48-.321a7.519,7.519,0,0,1,3.954-1.116q.288,0,.571.021a7.422,7.422,0,0,1,.786.1,7.513,7.513,0,0,1,2.958,1.23h0a7.594,7.594,0,0,1,2.074,2.165q.173.274.324.564a7.528,7.528,0,0,1,.846,3.479" transform="translate(-213.942 1197.936)" fill="#aec3ff"/>
      <path id="Trazado_388854" data-name="Trazado 388854" d="M569.078,1260.237c-.3.478.126,1.307-.779,1.081s-1.458-.327-1.508.176.679.5.679,1.031-.327.7-.83.452-.647-.615-1.232-.389-.924.076-1.056-.377a.664.664,0,0,0-.094-.2l0-.018a7.58,7.58,0,0,1,2.951-4.5c.155-.113.316-.22.48-.32a.993.993,0,0,1,.758.4c.528.654.88.327.754,1.081s.075.855.5.83.93-.025.98.3-1.307-.025-1.609.453" transform="translate(-217.019 1177.925)" fill="#94b0ed"/>
      <path id="Trazado_388855" data-name="Trazado 388855" d="M645.121,1374.791s-.666.214-.842-.251.025-.566-.566-.7-.641-.541-1.018-.49-.189.2-.629.528-.842.176-.829.779.666.7.8,1.094-.094.566.189.867.811.17.566.584-.622.735-.434,1.376.056.679.377,1.131.943.6,1.037.3-.434-.7-.264-1,.453-.094.566-.547.572-.453.61-.767-.553-.792-.327-.993.679.365,1.031-.138.113-.905.478-1.383-.49-.666-.742-.39" transform="translate(-289.931 1067.896)" fill="#94b0ed"/>
      <path id="Trazado_388856" data-name="Trazado 388856" d="M742.668,1322.039a7.617,7.617,0,0,1-.122,1.362,7.519,7.519,0,0,1-1.193,2.9.864.864,0,0,1-.6-.016c-.943-.377-.245-1.4.132-1.9s-.585-.283-1.282-.754.076-1.735-.641-1.527-1.584.471-2-.226.377-.811.019-1.4.207-.924.924-.98.622-.566,1.508-.641.867,1.056,1.848.98.936.151.936.151a.458.458,0,0,1,.2.043,7.573,7.573,0,0,1,.27,2.009" transform="translate(-380.481 1119.506)" fill="#94b0ed"/>
      <path id="Trazado_388857" data-name="Trazado 388857" d="M749.082,1264.379c-.815.4-1.142-.682-1.839-.358s-.58-.3-1.132-.7-1.659.327-1.609-.3.88-.453,1.056-.955.98-.377.98-.377a.546.546,0,0,1,.146-.033h0a7.584,7.584,0,0,1,2.074,2.165q.174.274.324.564" transform="translate(-387.741 1173.688)" fill="#94b0ed"/>
      <path id="Trazado_388858" data-name="Trazado 388858" d="M665.506,1256.7s.427-.617-.251-.8-.666.056-1.194,0-.735.352-.339.8.716,1.3,1.075.846.289-.8.71-.846" transform="translate(-311.033 1179.195)" fill="#94b0ed"/>
    </g>
  </g>
</svg>
