<svg xmlns="http://www.w3.org/2000/svg" xmlns:xlink="http://www.w3.org/1999/xlink" width="33.201" height="33.254" viewBox="0 0 33.201 33.254">
  <defs>
    <clipPath id="clip-path">
      <rect id="Rectángulo_264150" data-name="Rectángulo 264150" width="33.201" height="33.254" fill="none"/>
    </clipPath>
  </defs>
  <g id="Grupo_707212" data-name="Grupo 707212" transform="translate(3 1)">
    <g id="Grupo_707212-2" data-name="Grupo 707212" transform="translate(-3 -1)" clip-path="url(#clip-path)">
      <path id="Trazado_491814" data-name="Trazado 491814" d="M12.294,31.1c0,.266,0,.5,0,.73a1.331,1.331,0,0,1-.71,1.242A1.3,1.3,0,0,1,10.159,33c-.858-.564-1.7-1.146-2.569-1.7a1.255,1.255,0,0,0-.612-.19C6.219,31.089,5.459,31.1,4.7,31.1a2.6,2.6,0,0,1-2.849-2.521c-.6-4.817-1.21-9.634-1.8-14.453a4.583,4.583,0,0,1,.02-1.523,2.472,2.472,0,0,1,2.437-1.876c1.887-.01,3.774,0,5.662,0h.348V9.654H8.182c-1.094,0-2.189,0-3.283,0a1.611,1.611,0,0,1-1.718-1.72q0-3.116,0-6.233A1.605,1.605,0,0,1,4.886,0q4.188,0,8.375,0a1.612,1.612,0,0,1,1.712,1.725c0,.837,0,1.674,0,2.538H22.48c0-.447,0-.9,0-1.354A2.7,2.7,0,0,1,25.378,0c.636,0,1.273-.005,1.91,0a2.671,2.671,0,0,1,2.7,2.706c.009,2.524,0,5.049,0,7.573v.444c.236,0,.455,0,.674,0a2.543,2.543,0,0,1,2.524,2.841c-.3,2.56-.638,5.117-.958,7.675-.3,2.414-.613,4.827-.9,7.244a2.644,2.644,0,0,1-1.875,2.5,3.481,3.481,0,0,1-.925.109q-7.89.01-15.779,0Zm10.178-19.3H2.69c-.067,0-.134,0-.2,0a1.474,1.474,0,0,0-1.433,1.637c.1.943.234,1.882.352,2.823q.42,3.354.84,6.709c.239,1.9.47,3.809.723,5.711a1.448,1.448,0,0,0,1.565,1.333c.938,0,1.876-.007,2.814.008a1.041,1.041,0,0,1,.524.156c.908.589,1.8,1.2,2.709,1.79.133.086.362.174.464.116s.155-.3.161-.456c.019-.531.007-1.062.007-1.613h.481q8.458,0,16.917,0A1.45,1.45,0,0,0,30.2,28.673c.317-2.412.615-4.826.917-7.239.324-2.591.635-5.183.968-7.773a1.572,1.572,0,0,0-2.089-1.8c0,1.536,0,3.077,0,4.618a1.127,1.127,0,0,1-.1.479c-.776,1.57-1.563,3.135-2.345,4.7a1.458,1.458,0,0,1-1.422.871c-1.284-.009-2.568,0-3.852,0h-.306v-1.1h2.829c-.06-.132-.1-.233-.149-.33-.673-1.347-1.351-2.691-2.014-4.044a1.526,1.526,0,0,1-.151-.634c-.013-1.318-.007-2.636-.007-3.954v-.666M9.076,1.077q-2.059,0-4.118,0c-.524,0-.7.178-.7.7q0,3.047,0,6.094c0,.524.179.7.7.7q4.118,0,8.235,0c.524,0,.7-.179.7-.7q0-3.047,0-6.094c0-.523-.18-.7-.705-.7q-2.059,0-4.118,0m5.9,4.3c0,.874,0,1.711,0,2.547a1.616,1.616,0,0,1-1.743,1.729q-1.624,0-3.249,0H9.63v1.054H22.458V5.377Zm8.6-.053h5.323c0-.928.028-1.831-.008-2.732a1.561,1.561,0,0,0-1.553-1.5q-1.1-.029-2.208,0a1.552,1.552,0,0,0-1.544,1.471c-.042.911-.01,1.826-.01,2.761m2.085,3.3H23.592v7.436h2.065Zm3.208.009H26.817v7.418h2.047ZM23.94,17.189c.044.106.072.189.111.266.6,1.207,1.2,2.417,1.818,3.617.071.139.243.315.366.314s.292-.179.364-.318c.616-1.2,1.215-2.409,1.818-3.617.039-.077.065-.16.106-.262ZM28.9,6.469H23.582V7.482H28.9Z" transform="translate(0 0)"/>
      <path id="Trazado_491815" data-name="Trazado 491815" d="M33.139,131.973v.666c0,1.318-.007,2.636.007,3.954a1.526,1.526,0,0,0,.151.634c.662,1.352,1.341,2.7,2.014,4.044.049.1.09.2.149.33H32.631v1.1h.306c1.284,0,2.568-.006,3.852,0a1.458,1.458,0,0,0,1.422-.871c.782-1.567,1.569-3.132,2.345-4.7a1.127,1.127,0,0,0,.1-.479c.007-1.541,0-3.081,0-4.618a1.573,1.573,0,0,1,2.089,1.8c-.334,2.589-.645,5.182-.968,7.772-.3,2.414-.6,4.828-.917,7.239a1.45,1.45,0,0,1-1.586,1.348q-8.458,0-16.917,0h-.481c0,.551.012,1.082-.007,1.613-.006.161-.054.394-.161.456s-.331-.03-.464-.116c-.908-.59-1.8-1.2-2.709-1.79a1.041,1.041,0,0,0-.524-.156c-.938-.015-1.876,0-2.814-.008a1.448,1.448,0,0,1-1.565-1.333c-.253-1.9-.484-3.807-.723-5.711q-.421-3.354-.84-6.709c-.118-.941-.248-1.881-.352-2.823a1.474,1.474,0,0,1,1.433-1.637c.067,0,.134,0,.2,0H33.139ZM28.867,143.2a2.763,2.763,0,0,0,2.142-2.486,2.689,2.689,0,0,0-.41-1.594,2.781,2.781,0,0,0-1.732-1.22c0-1.093,0-2.165,0-3.236a1.621,1.621,0,0,0-1.371-1.616,1.64,1.64,0,0,0-1.786,1.1.728.728,0,0,1-.208.323,10.5,10.5,0,0,1-5.64,2.24c-1.11.09-2.23.057-3.345.074a2.686,2.686,0,0,0-2.673,2.662q-.013,1.105,0,2.211A2.652,2.652,0,0,0,16,144.243a10.569,10.569,0,0,0,1.163.094c.013.049.026.091.035.133.313,1.4.635,2.8.93,4.212.07.336.172.481.552.462.78-.038,1.562-.011,2.344-.012.107,0,.214-.01.354-.018v-4.482a10.919,10.919,0,0,1,4.156,2.01.563.563,0,0,1,.164.24,1.618,1.618,0,0,0,3.171-.557c0-1.038,0-2.075,0-3.129m11.246.582H32.627v1.041h7.486Zm-7.5,3.186H40.1v-1.042H32.615Zm1.061,1.1H32.623v1.049h1.053Zm2.138,0H34.77v1.053h1.043Zm1.1,1.047h1.053v-1.051H36.909Zm2.143-.008H40.1V148.07H39.051Z" transform="translate(-10.668 -120.166)" fill="#f0d0b4"/>
      <path id="Trazado_491817" data-name="Trazado 491817" d="M263.751,16.327c0-.934-.032-1.849.01-2.761A1.552,1.552,0,0,1,265.3,12.1q1.1-.03,2.209,0a1.561,1.561,0,0,1,1.553,1.5c.036.9.008,1.8.008,2.732Z" transform="translate(-240.179 -11.002)" fill="#aab2bd"/>
      <rect id="Rectángulo_264141" data-name="Rectángulo 264141" width="2.065" height="7.436" transform="translate(23.592 8.623)" fill="#4fc1e9"/>
      <path id="Trazado_491827" data-name="Trazado 491827" d="M0,0H2.047V7.418H0Z" transform="translate(26.817 8.632)" fill="#ff826e"/>
      <path id="Trazado_491818" data-name="Trazado 491818" d="M267.993,192.429h4.583c-.041.1-.068.185-.106.262-.6,1.207-1.2,2.416-1.818,3.617-.072.14-.239.317-.364.318s-.295-.175-.366-.314c-.616-1.2-1.215-2.41-1.818-3.618-.039-.077-.067-.16-.111-.266" transform="translate(-244.053 -175.239)" fill="#aab2bd"/>
      <rect id="Rectángulo_264143" data-name="Rectángulo 264143" width="5.313" height="1.013" transform="translate(23.582 6.469)" fill="#ffeaa7"/>
      <path id="Trazado_491819" data-name="Trazado 491819" d="M50.493,154.107c0,1.054,0,2.091,0,3.129a1.618,1.618,0,0,1-3.171.557.562.562,0,0,0-.164-.24A10.918,10.918,0,0,0,43,155.543v4.482c-.14.007-.247.017-.354.018-.781,0-1.564-.026-2.344.012-.38.019-.482-.126-.552-.462-.294-1.407-.617-2.809-.93-4.212-.009-.042-.022-.084-.035-.133a10.558,10.558,0,0,1-1.163-.094,2.652,2.652,0,0,1-2.154-2.587q-.013-1.105,0-2.211a2.686,2.686,0,0,1,2.673-2.662c1.116-.017,2.236.016,3.345-.074a10.5,10.5,0,0,0,5.64-2.24.729.729,0,0,0,.208-.323,1.64,1.64,0,0,1,1.786-1.1,1.621,1.621,0,0,1,1.371,1.616c.007,1.071,0,2.143,0,3.236a2.781,2.781,0,0,1,1.732,1.22,2.689,2.689,0,0,1,.41,1.594,2.763,2.763,0,0,1-2.142,2.486m-9.638.042a12.276,12.276,0,0,1,6.381,2.095v-9.58a12.28,12.28,0,0,1-6.381,2.1Zm8.547-2.694q0-2.812,0-5.624a1.839,1.839,0,0,0-.01-.334.515.515,0,0,0-.5-.459.523.523,0,0,0-.532.46,1.946,1.946,0,0,0-.009.3q0,5.657,0,11.315a1.634,1.634,0,0,0,.01.3.516.516,0,0,0,.5.459.522.522,0,0,0,.532-.46,2.189,2.189,0,0,0,.01-.334q0-2.812,0-5.624m-12.741-1.6h2.016v1.082h-2.1v1.054h2.1v1.1h-2a1.417,1.417,0,0,0,1.088.96c.644.087,1.3.071,1.968.1V148.8c-.6,0-1.178-.04-1.752.011a1.544,1.544,0,0,0-1.32,1.049m5.218,5.463-1.964-.121c.277,1.249.537,2.432.808,3.612a.243.243,0,0,0,.184.132c.319.014.639.006.972.006Zm8.654-5.266v2.809a1.484,1.484,0,0,0,1-1.411,1.466,1.466,0,0,0-1-1.4" transform="translate(-32.294 -131.078)"/>
      <rect id="Rectángulo_264144" data-name="Rectángulo 264144" width="7.486" height="1.041" transform="translate(21.959 23.611)"/>
      <rect id="Rectángulo_264145" data-name="Rectángulo 264145" width="7.486" height="1.042" transform="translate(21.947 25.756)"/>
      <rect id="Rectángulo_264146" data-name="Rectángulo 264146" width="1.053" height="1.049" transform="translate(21.955 27.897)"/>
      <rect id="Rectángulo_264147" data-name="Rectángulo 264147" width="1.043" height="1.053" transform="translate(24.103 27.9)"/>
      <rect id="Rectángulo_264148" data-name="Rectángulo 264148" width="1.053" height="1.051" transform="translate(26.241 27.896)"/>
      <rect id="Rectángulo_264149" data-name="Rectángulo 264149" width="1.046" height="1.035" transform="translate(28.384 27.904)"/>
      <path id="Trazado_491820" data-name="Trazado 491820" d="M72.965,23.569a5.069,5.069,0,0,1,.659.218c.812.393,1.616.806,2.425,1.207a1.416,1.416,0,0,1,0,2.593c-.808.4-1.611.816-2.423,1.21a1.4,1.4,0,0,1-2.092-1.314c0-.826-.009-1.652,0-2.478a1.462,1.462,0,0,1,1.427-1.435m-.33,2.689c0,.39-.006.779,0,1.169s.208.515.537.353c.789-.386,1.575-.777,2.354-1.182.112-.058.247-.208.244-.312s-.142-.247-.255-.306c-.779-.4-1.565-.8-2.353-1.184-.313-.154-.517-.026-.526.326-.01.378,0,.757,0,1.136" transform="translate(-65.142 -21.464)"/>
      <path id="Trazado_491821" data-name="Trazado 491821" d="M95.834,181.967v-5.386a12.282,12.282,0,0,0,6.381-2.1v9.58a12.276,12.276,0,0,0-6.381-2.095" transform="translate(-87.273 -158.896)" fill="#fff"/>
      <path id="Trazado_491822" data-name="Trazado 491822" d="M180.789,162.688q0,2.812,0,5.624a2.186,2.186,0,0,1-.01.334.522.522,0,0,1-.531.46.517.517,0,0,1-.5-.459,1.641,1.641,0,0,1-.01-.3q0-5.657,0-11.315a1.959,1.959,0,0,1,.009-.3.523.523,0,0,1,.532-.46.516.516,0,0,1,.5.459,1.837,1.837,0,0,1,.01.334q0,2.812,0,5.624" transform="translate(-163.682 -142.31)" fill="#fcd770"/>
      <path id="Trazado_491823" data-name="Trazado 491823" d="M48.031,199.261a1.545,1.545,0,0,1,1.32-1.049c.573-.051,1.155-.011,1.752-.011v5.355c-.665-.029-1.323-.013-1.967-.1a1.417,1.417,0,0,1-1.088-.96h2v-1.1h-2.1v-1.054h2.1v-1.082Z" transform="translate(-43.664 -180.482)" fill="#fcd770"/>
      <path id="Trazado_491824" data-name="Trazado 491824" d="M87.27,270.134v3.629c-.333,0-.653.008-.972-.006a.243.243,0,0,1-.184-.132c-.271-1.18-.531-2.363-.808-3.612l1.964.121" transform="translate(-77.686 -245.893)" fill="#aab2bd"/>
      <path id="Trazado_491825" data-name="Trazado 491825" d="M204.171,212.424a1.466,1.466,0,0,1,1,1.4,1.484,1.484,0,0,1-1,1.411Z" transform="translate(-185.932 -193.448)" fill="#ff826e"/>
      <path id="Trazado_491826" data-name="Trazado 491826" d="M83.853,38.113c0-.379-.007-.757,0-1.136.009-.352.213-.48.526-.326.788.388,1.574.779,2.353,1.184.114.059.253.2.255.306s-.133.254-.244.312c-.779.405-1.565.8-2.354,1.182-.329.161-.53.026-.537-.353s0-.779,0-1.169" transform="translate(-76.36 -33.319)" fill="#ff826e"/>
    </g>
  </g>
</svg>
