<svg xmlns="http://www.w3.org/2000/svg" xmlns:xlink="http://www.w3.org/1999/xlink" width="190" height="84" viewBox="0 0 190 84">
  <defs>
    <clipPath id="clip-path">
      <rect id="Rectángulo_262660" data-name="Rectángulo 262660" width="106.25" height="37.023" fill="#5263e2"/>
    </clipPath>
  </defs>
  <g id="Grupo_704893" data-name="Grupo 704893" transform="translate(-817 -1039)">
    <g id="Grupo_704245" data-name="Grupo 704245" transform="translate(863 1063)">
      <g id="Grupo_704246" data-name="Grupo 704246" transform="translate(0 0)" clip-path="url(#clip-path)">
        <path id="Trazado_464888" data-name="Trazado 464888" d="M87.808,36.911c.437.043.78.095,1.126.1.618.016,1.235,0,1.811,0,.3-1.132.374-35.35.1-37.02H87.808Z" transform="translate(-7.696 0)" fill="#5263e2"/>
        <path id="Trazado_464889" data-name="Trazado 464889" d="M81.167,36.776c.288-1.977.2-34.914-.109-35.965H30.772c-.3.981-.4,33.953-.107,35.965Z" transform="translate(-2.673 -0.071)" fill="#5263e2"/>
        <rect id="Rectángulo_262659" data-name="Rectángulo 262659" width="3.304" height="36.905" transform="translate(23.114)" fill="#5263e2"/>
        <path id="Trazado_464890" data-name="Trazado 464890" d="M13.813,21.376v6.719c3.26-2.725,6.066-5.47,9.155-8.195C20,17.055,17.09,14.267,14.075,11.378a7.973,7.973,0,0,0-.257,3.2c-.053,1.057-.012,2.12-.012,3.373H0V21.29a42.735,42.735,0,0,0,4.527.08c1.516.023,3.034.005,4.553.005Z" transform="translate(0 -0.997)" fill="#5263e2"/>
        <path id="Trazado_464891" data-name="Trazado 464891" d="M91.6,18.076c2.941,2.825,5.814,5.587,8.812,8.466a8.413,8.413,0,0,0,.284-3.3c.045-1.059.009-2.121.009-3.326h13.571v-3.43H100.725v-6.4c-.985.333-6.188,4.932-9.122,7.99" transform="translate(-8.029 -0.884)" fill="#5263e2"/>
      </g>
    </g>
    <rect id="Rectángulo_263018" data-name="Rectángulo 263018" width="190" height="84" transform="translate(817 1039)" fill="none"/>
  </g>
</svg>
